<svg xmlns="http://www.w3.org/2000/svg" viewBox="0 0 394.28 391.56"><defs><style>.a{fill:#050506;}.b{fill:#060606;}.c{fill:#080808;}.d{fill:#070707;}.e{fill:#050505;}.f{fill:#040404;}.g{fill:#8894ed;}.h{fill:#e5b2fc;}.i{fill:#e5b2fb;}.j{fill:#e1aff7;}.k{fill:#fff;}.l{fill:#08080d;}.m{fill:#090a10;}.n{fill:#06070b;}.o{fill:#0b0c13;}.p{fill:#0d0c12;}.q{fill:#07080c;}.r{fill:#0f0c11;}.s{fill:#141016;}</style></defs><title>arrghh</title><path class="a" d="M270.42,148.36a105,105,0,0,1,18,5.1c5.4,2.11,7.89-1.9,10.88-4.3,4-3.23,7.37-7.31,11-11.06,1.59-1.66,2.92-3.6,4.7-5,0.53-.42,3.17.62,3.16,0.91-0.21,4.86,1.63,10.17-4.83,13.28-3.72,1.79-6.49,5.58-9.61,8.56-1.82,1.74-1.52,3.12,1,3.9,16.8,5.17,30.67,15.71,44.9,25.31,13.69,9.24,25.4,20.82,33.82,35.38a136.39,136.39,0,0,1,15.81,41.88,149.85,149.85,0,0,1,2.94,23.49,51.14,51.14,0,0,1-2.28,15.63c-2.76,9.69-5.53,19.47-9.57,28.65-2.61,5.92-7,11.33-11.44,16.11A299.49,299.49,0,0,1,354.24,370a191.08,191.08,0,0,1-23.87,17,248.8,248.8,0,0,1-28.42,15.23c-12.8,5.7-26,10.2-40.1,12.33-16.17,2.44-32.31,3.21-48.58,3.93a276.67,276.67,0,0,1-66.64-5.55c-12.42-2.47-25.07-4.42-36.47-10.65C100,396.67,89.28,392,79.52,385.83c-6.94-4.39-12.5-10.91-19.07-16-8.8-6.77-17-14-21.37-24.47-3.5-8.37-7.44-16.75-9.38-25.52A203.73,203.73,0,0,1,25,284.07c-0.29-7.4,1.8-15.09,3.89-22.34A256.64,256.64,0,0,1,38.5,235.2c4.42-10.71,11.31-20,19.42-28.08,10-10,19.88-20.24,31.08-28.72,11-8.34,23.05-15.62,36.75-19.29s27.17-8.6,41.09-10.73c18.65-2.85,39.42-5.13,56.46-5.13S254.91,145.31,270.42,148.36Zm-231,115.77c-0.86,6.21-2.54,12.43-2.4,18.61a137.29,137.29,0,0,0,6.22,37.72c4.14,13.25,8.88,26.08,20.1,35.28,4.49,3.68,9.1,7.27,13.28,11.29a116.78,116.78,0,0,0,32.7,22.2c2.68,1.22,5.71,1.71,8.34,3,14.77,7.31,30.71,10.38,46.77,13,25.08,4.1,50.33,4.4,75.58,2.39A203,203,0,0,0,298.35,394c17.87-7,33.92-16.76,49-28.14a113.87,113.87,0,0,0,20.9-19.78,101.49,101.49,0,0,0,18-34.1c4.2-14,5.86-27.76,2.09-42a11.45,11.45,0,0,0-.2-3c-5.66-16.72-10.19-33.64-21.43-48.27a111.62,111.62,0,0,0-22.55-22.1c-11.83-8.7-24.79-15.89-37.32-23.62a41.86,41.86,0,0,0-6-2.56c0.83,1.72,1.79,3.38,2.48,5.15,2.49,6.44,1.92,13.24,1.91,19.9,0,5.49.15,11.14-3.77,15.92s-7.26,9.87-11,14.75c-2.29,3-4.4,6.36-7.25,8.76-9.92,8.33-21.57,7.63-33.33,5.56a7.79,7.79,0,0,1-3.15-1.42c-4.51-3.34-4.52-3.39-6.13,1.92-0.62,2.06-.87,4.25-1.65,6.24-1.71,4.38-3,9.15-5.65,12.89-3.81,5.36-8.71,10-13.14,14.89-2,1.75-4,3.46-5.91,5.26a26.75,26.75,0,0,0-2.09,2.45,21.19,21.19,0,0,0,3.34,1.58,14.89,14.89,0,0,0,3,.1c7.9,0.53,15.85.72,23.69,1.73,5.7,0.73,11.24,2.63,16.88,3.85,14.83,3.21,28.71,8.17,38.33,20.85,1.55,2,3.6,4.65,3.47,6.89-0.58,10-.75,20.24-7.9,28.41-5.1,5.83-9.56,12.61-15.71,17-5.89,4.22-13.55,6-20.5,8.65a5.6,5.6,0,0,1-4.29-.05c-9-5.54-18.18-10.88-25.22-19.18a94.55,94.55,0,0,0-13.46-13.18c-7.7-6.05-15.8-11.61-24-17-2.53-1.67-5.78-2.45-8.81-3.08-4.36-.91-8.92-1-13.23-2-12.7-3.12-25.24-2.07-37.72.94-4.52,1.09-8.95,2.59-13.34,4.12-3.62,1.26-7.16,2.76-10.67,4.3-2.5,1.09-4.83,2.59-7.36,3.57-0.88.34-2.95-.12-3.08-0.6a4.43,4.43,0,0,1,.5-3.64,55,55,0,0,1,8.19-7.59c7.22-5.1,14.36-10.45,22.14-14.54,5.75-3,12.7-3.69,18.7-6.36,6.22-2.77,12.1-6.18,19.06-6.83,0.76-.07,1.44-1,2.15-1.53a21.54,21.54,0,0,0-1.92-2c-3-2.41-6.09-4.77-9.14-7.14-0.36-1.74-.67-3.48-1.08-5.2-0.89-3.82-2.68-7.66-2.55-11.44,0.19-5.55,1.56-11.1,2.77-16.57,0.47-2.11,2-4,2.79-6a5.83,5.83,0,0,0-.16-2.39c-0.69.33-1.39,0.64-2.07,1-3.91,2.08-7.61,4.88-11.77,6.11-11.56,3.41-23,3.23-34.25-2.12-7.73-3.67-13.68-8.8-17.28-16.39-4.88-10.31-1.56-28.79,6.22-37.24,0.59-.64.55-1.85,0.8-2.8-3.65.39-8.29-.51-10.76,1.4a217.75,217.75,0,0,0-21.28,19.28c-14.51,14.63-21.24,33.41-27.16,52.54A14.65,14.65,0,0,0,39.39,264.13ZM192.23,154.65l-0.05-.41c-5.91.68-11.83,1.27-17.72,2.07-7,1-14.07,1.71-21,3.25a165,165,0,0,0-19,5.78c-9.74,3.45-19.36,7.2-29,10.88a6.82,6.82,0,0,0-1.71,1.47,5.42,5.42,0,0,0,2.06.78c3.43-.29,6.85-1.09,10.27-1.06,21.61,0.19,43.21.56,64.82,0.82,1.44,0,2.92-.79,4.32-0.66a51.85,51.85,0,0,1,6.41,1.36c-0.63,1.89-1,4-1.95,5.64-3.33,5.61-7.13,11-10.3,16.64-2.45,4.38-3.39,9.83-6.5,13.57-5.13,6.18-5.73,13.9-8.66,20.77-2.36,5.53-2.74,11.88-4.16,17.83C157.57,264,162,273.85,171.64,278c14.26,6.15,27.71,3,40.25-4.76,4.26-2.64,7.17-7.43,11.39-10.17,8.52-5.56,10.16-14.65,11.69-23.13,1.37-7.57-.53-15.68-0.05-23.49a29,29,0,0,0-4.49-17.83c-2.19-3.5-4.86-6.69-7.23-10.08-1.12-1.61-2-3.38-3-5.08-1.26,1.55-2.49,3.12-3.77,4.65-4.15,5-8.15,4.68-11.37-.67-1.1-1.82-2.18-3.65-3.4-5.4-4.75-6.86-7.38-14.11-3.91-22.09,2.34-5.4,2.49-5.33-3.49-5.31h-2Zm25.56-1.17-0.07-.46c-3.75.44-7.51,0.81-11.24,1.39a2.49,2.49,0,0,0-1.67,1.68c0.45,4.51.46,9.22,1.91,13.42,1.25,3.64,4.12,6.76,6.47,10,0.63,0.86,2.31,1.91,2.9,1.63,1.33-.65,3-1.93,3.27-3.22,0.94-4.33,1.25-8.79,2-13.17A13,13,0,0,1,223,159.6a4.25,4.25,0,0,1,3.61-1.62c1,0.3,2.59,2.39,2.33,3.18-1.16,3.53,1.58,5.07,3.05,7.29a60.22,60.22,0,0,1,4.89,7.81c3,6.48,15.91,12.64,21.8,10.39,9.15-3.49,14.44-11.79,22-17.26a6.92,6.92,0,0,0,2.39-3.13c0.26-.77-0.34-2.62-0.87-2.75-10.67-2.75-21.27-6-32.12-7.71C239.43,154.15,228.55,154.18,217.79,153.48ZM296.18,194c0.33-6.9-1.65-14.56-4.6-17.8-1.83-2-3.46-3.71-5.36.26-2,4.15-4.68,8-6.93,12a3,3,0,0,0-.06,2.62c2.21,3.34,2.28,6.62,1.65,10.64-1.24,7.92-11.46,15.49-19.24,13.29-3.11-.88-4.34-3.09-3.4-6.1a44.39,44.39,0,0,1,2.89-6c-2.42.17-4.85,0.35-7.27,0.49-0.83,0-1.66-.07-2.49-0.07-8,0-8,0-7,7.75,0.08,0.65-.06,1.34,0,2,1.4,10.45,9.65,19.58,20.89,18.45a48.92,48.92,0,0,0,17-4.66c2.44-1.19,5.22-2.51,6.75-4.58,5.27-7.12,10-14.58,7.22-24.24A14.73,14.73,0,0,1,296.18,194ZM262.86,305.87c-0.77-1.25-1.53-4.18-3.12-4.73-4.16-1.44-8.68-1.83-13.06-2.63-3.56-.65-5.65,1-6.82,4.26-1.85,5.13-3.47,10.37-5.67,15.34-3.71,8.37-1.67,16.59.59,24.61,1.95,6.91,9,9.38,14,13.6,2.71,2.28,4,1.39,4.64-1.66,1.35-6.14,2.88-12.24,4.06-18.41C259.3,326.54,260.92,316.79,262.86,305.87Zm-0.78,46.74c-0.12,8.65,1,9,8,6.14,0.53-.22,1-0.47,1.54-0.74,4.63-2.42,10.4-4,13.11-7.84,3.76-5.28,5.74-12.29,6.85-18.84,1-6.18-1.17-11.91-6.15-16.86-3.64-3.62-7.19-6.62-12-8.38-2.14-.79-2.67-0.49-3.06,1.89-1,6-2.56,11.86-3.66,17.83C265,335.24,263.44,344.69,262.08,352.61Zm-41.17-58.28-0.27-.94c-2,1.18-4.86,1.87-6,3.64-3.87,6.26-7.24,12.83-10.53,19.42a4.16,4.16,0,0,0,.88,3.9c5.23,3.8,10.65,7.35,16.12,10.81,0.59,0.37,2.57-.13,2.76-0.65,3.25-8.84,6.34-17.74,9.42-26.64a22.34,22.34,0,0,0,1.36-5.25,2.89,2.89,0,0,0-1.64-2.29C229,295.51,225,295,220.91,294.34Zm-30.61-4c-9.31-.57-11.86,2-11.43,11.31,0,0.82-.37,1.85,0,2.44,1,1.59,1.91,3.73,3.41,4.36a125.29,125.29,0,0,0,13.6,4.47c0.79,0.23,2.41-.12,2.63-0.63,1.06-2.56,2.27-5.21,2.54-7.92C202.23,292.18,205.4,291.3,190.3,290.33Zm-36.1,15.61c5,0,9,.11,12.9-0.08,1-.05,2.64-0.85,2.9-1.66a32.4,32.4,0,0,0,.85-6.14c-2.24-.21-4.59-0.94-6.71-0.54-5.53,1.06-11,2.54-16.43,4a18.53,18.53,0,0,0-5.35,2.28c-0.88.58-1.17,2-1.73,3.12,1.4,0.46,2.89,1.48,4.19,1.28C148.3,307.65,151.7,306.57,154.2,305.94Z" transform="translate(-20.55 -27.11)"/><path class="b" d="M95,36.43c9.9,2.54,20.6.29,30.12,5.39C130,44.46,131,46.46,127.74,51c-4.47,6.36-8.78,12.86-16.2,16.38-0.55.26-.72,3.16,0,3.88,3.89,4.2,8.07,8.14,12.21,12.1,0.83,0.79,2,1.25,2.86,2,5.44,4.38,5.25,7.06-.68,10.9-2.25,1.46-4.09,1.93-5.83-.87-0.82-1.32-2.49-2.09-3.7-3.19-3.76-3.44-7.51-6.89-11.2-10.39-1.55-1.47-2.81-3.28-4.47-4.59-2.1-1.65-3.89-1.87-4.3,1.71a113,113,0,0,1-2.21,14.17,14.59,14.59,0,0,1-3.88,6.47c-1.07,1.07-3.33.93-5.06,1.34a28.84,28.84,0,0,1-.39-5C86,83.48,89,71.13,85,58.67c-0.74-2.3-.51-4.91-0.67-7.38a23.67,23.67,0,0,0,0-3.48c-1.38-6.23.26-8.7,6.91-10.24C92.5,37.26,93.75,36.8,95,36.43Zm1.8,24.31a18.47,18.47,0,0,0,0,3c0.33,2,.14,5,3.5,2,0.68-.61,1.9-0.59,2.73-1.09,5.38-3.19,12.14-4.31,15.14-11.05,1.15-2.59,1.34-3.45-1.66-3.77-6-.64-12.05-1.2-18-2.22-3.39-.58-4.35.55-3.67,3.56C95.56,54.32,97,60.69,96.79,60.74Z" transform="translate(-20.55 -27.11)"/><path class="c" d="M196.72,78.94c-1-8.91,2.19-15.14,7.58-20.52,6.68-6.66,13-13.79,20.18-19.82a35.16,35.16,0,0,1,14.14-6.7c8.75-2.07,16.13,6.35,13.41,14.88a9.75,9.75,0,0,1-4.9,5.06c-1.06.5-3.72-1-4.84-2.28-4.16-4.78-8.09-5.46-14.34-3-7,2.78-12.58,7.6-17.28,13-2.38,2.74-2.47,7.58-3.25,11.54-0.87,4.42.15,8.15,4.84,10.09q9.75,4,19.42,8.22c4.46,1.92,5.3-1.3,5.72-4.29,0.63-4.51.78-9.08,1.11-13.63,0.24-3.3-1.22-4.44-4.52-4-1.73.21-3.56-.47-5.35-0.75,0.93-1.46,1.53-3.49,2.87-4.27,2.93-1.72,6.13-3.56,9.39-4,5.09-.67,7.61,2.21,7.39,7.28-0.25,5.91-.39,11.84-1.07,17.7-0.26,2.2-1.65,4.44-3,6.29-1.26,1.69-3.35,2.73-4.82,4.3-5.4,5.76-12.16,5.62-18.77,3.68a85.69,85.69,0,0,1-16.34-7.06C199.41,88.06,194.08,85.17,196.72,78.94Z" transform="translate(-20.55 -27.11)"/><path class="d" d="M151.67,55c-0.76,7.71-1.56,15.42-2.25,23.14a18.78,18.78,0,0,0,.14,5.46c1.17,5.57-.83,11.73-5.43,14.69-1.35.87-3.37,0.69-5.08,1a28.2,28.2,0,0,1-.28-4.53c0.74-7.86,1.82-15.69,2.35-23.56,0.41-6,.93-12.21-0.06-18.07-0.63-3.76-2.1-7.3,1.12-9.94a32.16,32.16,0,0,1,9.35-4.77c4-1.45,8.39-1.82,12.18-3.58,4.7-2.18,17.6,2.46,19.14,7.26,0.92,2.87,1.4,7,0,9.28a64.5,64.5,0,0,1-11.26,12.88c-2.24,2.06-3.11,3.43-.78,5.52,5.79,5.19,11.75,10.18,17.48,15.43,1.24,1.14,2.94,3.74,2.5,4.42a30.42,30.42,0,0,1-6.51,6.91c-0.4.32-2.63-1.49-3.92-2.46-2.92-2.19-5.91-4.31-8.61-6.75-3.53-3.19-6.86-6.61-10.18-10-1.5-1.54-2.65-3.45-4.23-4.89-4.32-3.94-4.55-4.63.29-8a65.68,65.68,0,0,1,10.92-5.66c3.16-1.43,6.07-2.72,5.84-7-0.21-4-2.68-5.53-6-7-5.5-2.38-10.33-.56-15.15,1.66-0.9.42-1.61,2-1.79,3.08a33.85,33.85,0,0,0-.08,5.48Z" transform="translate(-20.55 -27.11)"/><path class="b" d="M273.33,51.09c0.26,3.42.73,7.72,0.84,12,0.06,2.36.88,3.09,3.2,3.26,3.94,0.29,7.84,1.31,11.79,1.5a30.35,30.35,0,0,0,8.72-1c2.68-.68,3.9-2.74,3.65-5.71-0.43-5.28-.39-10.61-1-15.87a12.21,12.21,0,0,1,4.81-11.82c1-.75,2.61-1.39,3.59-1.06,0.75,0.26,1.27,2.12,1.33,3.29,0.45,8.12-.54,16.59,1.49,24.28,1.69,6.42-.57,12.47,1.17,18.86a18,18,0,0,1-4.82,17.64c-1.12,1.08-3.48.86-5.27,1.24-0.26-1.66-1.13-3.5-.69-4.94,1.65-5.31.53-10.34-.52-15.53-0.63-3.11-2.51-3.64-4.65-2.59-6.54,3.19-13.05,2.82-19.8.88-3-.87-4.83.64-4.73,3.93,0.16,5.13.67,10.28,0.4,15.39a9,9,0,0,1-3,6A6.17,6.17,0,0,1,264,101c-1.14-.8-1.13-3.64-1.16-5.58,0-3.41.52-6.83,0.39-10.23C263,80,262.9,74.94,264,69.61S263.63,58.5,262.82,53c-0.78-5.26.47-9.53,4.72-12.67a5.12,5.12,0,0,1,4-.8c0.85,0.27,1.59,2,1.71,3.2C273.51,45.18,273.33,47.7,273.33,51.09Z" transform="translate(-20.55 -27.11)"/><path class="e" d="M351.9,62.25c3.72-.3,8.68.71,10.78-1.28,1.83-1.74.32-6.88,0.52-10.51s0.14-7.45,1.25-10.83a15.34,15.34,0,0,1,5.23-6.79c2-1.52,2.89.53,2.8,2.41-0.4,8.43-.35,16.93-1.49,25.26-1.33,9.77-1.61,19.25,1.74,28.69,0.6,1.71.85,4.43-.09,5.59a14,14,0,0,1-6.45,4.05c-0.51.17-2.41-3-3.24-4.84-2.73-6.07-2.87-12.48-2.37-19,0.09-1.12-1.35-3.35-2.17-3.4-5.46-.31-11-0.3-16.42-0.11-2.81.1-3.22,1.6-3.19,4.66,0.07,6.91.73,14.46-5.93,19.39-1.31,1-3.27,1.07-4.92,1.58-0.1-1.65-.77-3.53-0.21-4.92,2.59-6.4,1.18-12.76.2-19.1-1.15-7.41-2.38-14.65,1-21.93,1-2,.37-4.93.15-7.39-0.31-3.53,1.17-6,3.79-8.16,3.28-2.67,5.54-2.16,6.25,2,0.89,5.23,2.27,10.38-1.57,15.56-3.19,4.3-.66,8.39,4.82,8.84,3.14,0.25,6.31,0,9.47,0v0.2Z" transform="translate(-20.55 -27.11)"/><path class="d" d="M42.51,49.16a12.66,12.66,0,0,0-.12-1.49c-1.44-7.06,3.17-13.08,10.11-13a2.16,2.16,0,0,1,1.29,1.5c-2.5,6.28,2.49,10.52,4.18,15.63,1.84,5.58,3.55,11.22,5.62,16.71A187.88,187.88,0,0,0,71.7,87.92c2.12,4.13-.35,12.37-5,13.17-0.76.13-2.19-1.32-2.68-2.35C60.85,92.2,57.75,85.62,54.86,79c-1.24-2.87-3-3-5.6-2.25a35.2,35.2,0,0,1-7.75,1.35c-7.22.29-9.45,2.11-12.11,8.81-1.21,3.05-3.57,5.68-5.62,8.35-0.47.61-1.8,0.55-2.73,0.81-0.15-1.08-.76-2.37-0.38-3.21q3.51-7.63,7.42-15.07c4.69-8.9,9.52-17.71,14.25-26.59A5.16,5.16,0,0,0,42.51,49.16ZM39.94,70.11L50.7,67.63q-1.74-4.75-3.49-9.5a0.68,0.68,0,0,0-.27-0.4c-1,0-2.51-.41-2.77,0a82.69,82.69,0,0,0-4.95,9.14C38.89,67.61,39.63,68.85,39.94,70.11Z" transform="translate(-20.55 -27.11)"/><path class="f" d="M414.19,37.4q0,13.76,0,27.53c0,3.6-4.59,8.36-8.15,7.94-4-.47-4.61-3.53-4.71-7-0.09-2.78-.93-5.55-0.94-8.32q-0.05-9.3.43-18.59c0.29-5.46,4.69-8,8.43-10.94,1.95-1.51,3.8-1.3,4.35,1.55,0.5,2.57.84,5.17,1.25,7.75Z" transform="translate(-20.55 -27.11)"/><path class="c" d="M412.59,89.71c-0.34,5.7-3.45,9.67-8.64,10.66-1.12.21-3.32-.14-3.45-0.65-1-3.58-2.8-7.67-1.81-10.8s4.61-5.81,7.69-7.68C408.71,79.83,412.83,85.58,412.59,89.71Z" transform="translate(-20.55 -27.11)"/><path class="g" d="M155.29,280.06c3,2.38,6.11,4.74,9.14,7.14a21.54,21.54,0,0,1,1.92,2c-0.72.53-1.39,1.46-2.15,1.53-7,.64-12.84,4.06-19.06,6.83-6,2.67-12.94,3.34-18.7,6.36-7.78,4.09-14.92,9.45-22.14,14.54A55,55,0,0,0,96.1,326a4.43,4.43,0,0,0-.5,3.64c0.13,0.48,2.2.93,3.08,0.6,2.54-1,4.87-2.47,7.36-3.57,3.51-1.54,7.05-3,10.67-4.3,4.39-1.53,8.82-3,13.34-4.12,12.48-3,25-4.06,37.72-.94,4.31,1.06,8.87,1.1,13.23,2,3,0.63,6.29,1.41,8.81,3.08,8.18,5.4,16.28,11,24,17a94.55,94.55,0,0,1,13.46,13.18c7,8.29,16.18,13.64,25.22,19.18a5.6,5.6,0,0,0,4.29.05c7-2.66,14.62-4.43,20.5-8.65,6.15-4.41,10.61-11.19,15.71-17,7.15-8.17,7.32-18.44,7.9-28.41,0.13-2.23-1.91-4.84-3.47-6.89-9.62-12.69-23.5-17.65-38.33-20.85-5.64-1.22-11.18-3.12-16.88-3.85-7.84-1-15.79-1.2-23.69-1.73a14.89,14.89,0,0,1-3-.1,21.19,21.19,0,0,1-3.34-1.58,26.75,26.75,0,0,1,2.09-2.45c1.93-1.8,3.93-3.51,5.91-5.26a13.19,13.19,0,0,0,2.63,1.13c13.67,2.65,27.33,5.15,40.4,10.32,7.22,2.85,15.45,3.49,22.25,7,10.34,5.35,21,6.76,32.24,6.58,8.47-.14,16.94-0.4,25.4-0.86,12.39-.68,22.44-6,30.64-15.37,4.39-5,9.71-9.27,14.6-13.86,3.77,14.22,2.11,27.94-2.09,42a101.49,101.49,0,0,1-18,34.1,113.87,113.87,0,0,1-20.9,19.78c-15.12,11.39-31.17,21.14-49,28.14A203,203,0,0,1,240,407.64c-25.25,2-50.5,1.71-75.58-2.39-16.06-2.62-32-5.69-46.77-13-2.63-1.3-5.66-1.79-8.34-3A116.78,116.78,0,0,1,76.6,367c-4.18-4-8.79-7.61-13.28-11.29-11.22-9.2-16-22-20.1-35.28A137.29,137.29,0,0,1,37,282.74c-0.15-6.18,1.54-12.41,2.4-18.61,2.35,1.68,5.62,2.85,6.87,5.14,3,5.48,7.14,8.51,13.25,9.06-4.81,2.14-2.79,6-2.13,9.3,0.3,1.52,1.38,2.89,2.1,4.33,1.23-1.34,3.16-2.52,3.53-4.06,0.66-2.79.39-5.8,0.51-8.71,13.21,3.75,26.59,6.47,40.42,6.2-0.14,1.46-.62,3-0.31,4.37s1.4,2.37,2.16,3.55c0.92-.79,2.22-1.4,2.7-2.4,1.15-2.42,1.93-5,2.85-7.56Zm6.85,102.38a81.29,81.29,0,0,0,2.79,8.56c1,2.25,2,6.14,5.28,4.32,2-1.13,2.82-4.71,3.79-7.32,0.33-.88-0.48-2.21-0.84-3.31-1.29-3.93-2.57-7.85-3.94-11.75a3.5,3.5,0,0,0-1.34-1.71,2.2,2.2,0,0,0-1.46,1.05C164.9,375.69,163.5,379.16,162.14,382.44Zm33.43-17.61c3.4-.41,5.91-1.16,8.32-0.91,5,0.51,5-3.25,5.16-6.06,0.13-3.27-3-3.42-5.49-3.61a34,34,0,0,0-4.47.08c-2.94.17-6.68,6.44-5.28,9.06A4.46,4.46,0,0,0,195.57,364.82ZM163.21,354.4c6.23-.23,9.92-3.11,11-9.23,0.2-1.09-2.15-3.72-2.33-3.63-4.3,2.14-10.06,2-11.9,8.09C158.91,353.24,159.41,354.54,163.21,354.4Zm-51.56-2.29c0.77,2.47,1.15,3.83,1.7,5.13a3.21,3.21,0,0,0,2-.6c2.71-5.3,5.41-10.62,7.75-16.09,0.34-.8-1.07-2.51-1.95-3.57a2.91,2.91,0,0,0-2.34.82C116.24,342.7,113.84,347.69,111.65,352.11Zm31.84,5.1c-0.89-1.2-1.41-2.4-1.81-2.36a7.79,7.79,0,0,0-4,1.19c-3.4,2.74-5.12,10.85-3.35,15.46,0.19,0.49,2.31.84,2.38,0.7C139.09,367.2,141.31,362.14,143.49,357.21Zm-60,5.73,1.44,2.53c0.93-.79,2.26-1.4,2.73-2.4a75.07,75.07,0,0,0,4.07-10.43c0.4-1.39-.46-3.14-0.75-4.72-1.3.87-3.3,1.47-3.77,2.67C85.68,354.41,84.75,358.47,83.46,362.94Zm201.15,13.49,2.74,4.36a48.91,48.91,0,0,0,3.36-3.86c0.73-1,1.67-2.34,1.54-3.42a33.81,33.81,0,0,0-1.78-6.09c-1.36,1.07-3.08,1.91-4,3.28S285.34,374.06,284.61,376.43ZM84.37,299.8c-2-.68-3.62-1.84-4.86-1.53-3.75.94-4.61,4.32-5.19,7.62a14.25,14.25,0,0,0,.17,3.28c1.23-.11,3,0.26,3.6-0.42C80.17,306.32,81.82,303.54,84.37,299.8Zm126.48,74.66c-3.7.19-9.84,10.31-8.26,12.82,0.43,0.68,3.16.95,3.38,0.57a118.94,118.94,0,0,0,5.45-11C211.71,376.24,211,375.18,210.86,374.46Zm29.49,22.12c1.1,1.82,1.66,3.44,2.15,3.42,1.37-.05,3.16-0.39,4-1.33a25.17,25.17,0,0,0,3.75-6.32,3.56,3.56,0,0,0-.6-3.15,2.94,2.94,0,0,0-2.91-.18C244.45,391.36,242.48,394,240.34,396.58Zm70.06-56.84c1,1.82,1.54,3.49,2,3.46,1.39-.11,3.17-0.45,4-1.39a25.4,25.4,0,0,0,3.79-6.31,3.54,3.54,0,0,0-.6-3.13,2.92,2.92,0,0,0-2.87-.21C314.43,334.53,312.48,337.17,310.41,339.75Zm51.17-37.62c-1.73-.54-3.13-1.31-3.42-1a73,73,0,0,0-6.1,7.33c-0.06.09,1.91,1.66,2.93,2.55Z" transform="translate(-20.55 -27.11)"/><path class="h" d="M388.36,270c-4.9,4.59-10.21,8.83-14.6,13.86-8.21,9.41-18.25,14.69-30.64,15.37-8.46.46-16.93,0.73-25.4,0.86-11.2.18-21.9-1.24-32.24-6.58-6.8-3.52-15-4.16-22.25-7-13.07-5.16-26.73-7.67-40.4-10.32a13.19,13.19,0,0,1-2.63-1.13c4.43-4.92,9.33-9.52,13.14-14.89,2.66-3.75,3.94-8.51,5.65-12.89,0.78-2,1-4.18,1.65-6.24,1.61-5.31,1.61-5.26,6.13-1.92a7.79,7.79,0,0,0,3.15,1.42c11.76,2.07,23.41,2.77,33.33-5.56,2.86-2.4,5-5.73,7.25-8.76,3.7-4.88,7.08-10,11-14.75s3.77-10.43,3.77-15.92c0-6.66.58-13.46-1.91-19.9-0.69-1.77-1.65-3.44-2.48-5.15a41.86,41.86,0,0,1,6,2.56c12.53,7.74,25.49,14.92,37.32,23.62a111.62,111.62,0,0,1,22.55,22.1C378,233.39,382.51,250.32,388.17,267A11.45,11.45,0,0,1,388.36,270Zm-64.86,26.74c1.68-1.84,2.9-2.77,3.56-4,2-3.7,3.82-7.51,5.67-11.31a19.4,19.4,0,0,0,.83-2.47c-1,.22-2.57.08-3.07,0.73a150.16,150.16,0,0,0-8.85,12.41C321.21,292.81,322.62,294.65,323.51,296.74Zm-27.7-6a5.38,5.38,0,0,0,1.69-.4c3.13-3.54,6.26-7.07,9.27-10.72a2.18,2.18,0,0,0-.4-2.11,3,3,0,0,0-2.22.08c-4.89,1.57-7.09,5.65-8.86,10C294.94,288.37,295.6,289.62,295.81,290.72Zm53.31-42.58c-1.7,2.35-3.68,4.88-5.37,7.58-0.5.79-.62,2.72-0.16,3,0.89,0.61,2.77,1,3.42.51a38.07,38.07,0,0,0,5.37-5.6,23.88,23.88,0,0,0,2.1-3.64Z" transform="translate(-20.55 -27.11)"/><path class="i" d="M192.23,154.65h2c6,0,5.84-.09,3.49,5.31-3.23,7.44-1.17,14.25,3,20.7,1.34,2.08,2.81,4.09,4,6.26,3.26,5.86,7.39,6.33,11.68,1.21,1.28-1.53,2.52-3.1,3.77-4.65,1,1.7,1.9,3.47,3,5.08,2.36,3.4,5,6.59,7.23,10.08a29,29,0,0,1,4.49,17.83c-0.48,7.81,1.42,15.92.05,23.49-1.53,8.48-3.17,17.57-11.69,23.13-4.22,2.75-7.13,7.53-11.39,10.17-12.54,7.78-26,10.91-40.25,4.76-9.68-4.17-14.07-14-11.52-24.64,1.43-5.95,1.81-12.3,4.16-17.83,2.93-6.87,3.53-14.59,8.66-20.77,3.1-3.74,4.05-9.19,6.5-13.57,3.18-5.69,7-11,10.3-16.64,1-1.68,1.32-3.75,1.95-5.64a51.85,51.85,0,0,0-6.41-1.36c-1.41-.13-2.88.68-4.32,0.66-21.61-.25-43.21-0.63-64.82-0.82-3.42,0-6.84.78-10.27,1.06a5.42,5.42,0,0,1-2.06-.78,6.82,6.82,0,0,1,1.71-1.47c9.65-3.68,19.28-7.43,29-10.88a165,165,0,0,1,19-5.78c6.88-1.54,13.95-2.3,21-3.25,5.89-.8,11.81-1.39,17.72-2.07Z" transform="translate(-20.55 -27.11)"/><path class="i" d="M103.93,285.38c-13.83.27-27.2-2.45-40.42-6.2-0.65-3.52-2.38-1.92-4-.85-6.11-.56-10.24-3.59-13.25-9.06-1.25-2.28-4.52-3.46-6.87-5.14a14.65,14.65,0,0,1,.11-3.93c5.92-19.13,12.65-37.92,27.16-52.54a217.75,217.75,0,0,1,21.28-19.28c2.48-1.91,7.11-1,10.76-1.4-0.25.95-.21,2.16-0.8,2.8-7.77,8.44-11.1,26.93-6.22,37.24,3.6,7.59,9.55,12.73,17.28,16.39,11.29,5.35,22.69,5.53,34.25,2.12,4.16-1.23,7.86-4,11.77-6.11,0.68-.36,1.38-0.67,2.07-1a5.83,5.83,0,0,1,.16,2.39c-0.83,2.06-2.33,3.93-2.79,6-1.21,5.47-2.58,11-2.77,16.57-0.13,3.78,1.65,7.62,2.55,11.44,0.4,1.72.72,3.47,1.08,5.2l-44,3.27-3.38-3.64c-1.08,1.31-2.2,2.6-3.22,4A8.41,8.41,0,0,0,103.93,285.38Z" transform="translate(-20.55 -27.11)"/><path class="j" d="M217.79,153.48c10.76,0.7,21.63.67,32.25,2.31,10.85,1.68,21.45,5,32.12,7.71,0.53,0.14,1.13,2,.87,2.75a6.92,6.92,0,0,1-2.39,3.13c-7.55,5.47-12.85,13.77-22,17.26-5.89,2.25-18.81-3.91-21.8-10.39a60.22,60.22,0,0,0-4.89-7.81c-1.48-2.22-4.22-3.76-3.05-7.29,0.26-.79-1.28-2.88-2.33-3.18A4.25,4.25,0,0,0,223,159.6a13,13,0,0,0-1.63,5.13c-0.71,4.38-1,8.84-2,13.17-0.28,1.29-1.94,2.57-3.27,3.22-0.59.29-2.27-.77-2.9-1.63-2.35-3.21-5.21-6.33-6.47-10-1.45-4.2-1.46-8.91-1.91-13.42a2.49,2.49,0,0,1,1.67-1.68c3.73-.58,7.49-1,11.24-1.39Z" transform="translate(-20.55 -27.11)"/><path class="k" d="M296.18,194a14.73,14.73,0,0,0,0,4c2.82,9.66-1.95,17.12-7.22,24.24-1.53,2.07-4.31,3.4-6.75,4.58a48.92,48.92,0,0,1-17,4.66c-11.24,1.13-19.49-8-20.89-18.45-0.09-.65.06-1.34,0-2-1-7.75-1-7.76,7-7.75,0.83,0,1.67.12,2.49,0.07,2.43-.13,4.85-0.32,7.27-0.49a44.39,44.39,0,0,0-2.89,6c-0.94,3,.3,5.22,3.4,6.1,7.79,2.2,18-5.37,19.24-13.29,0.63-4,.56-7.29-1.65-10.64a3,3,0,0,1,.06-2.62c2.25-4,4.93-7.84,6.93-12,1.9-4,3.53-2.27,5.36-.26C294.53,179.42,296.5,187.08,296.18,194Z" transform="translate(-20.55 -27.11)"/><path class="k" d="M262.86,305.87c-1.93,10.92-3.56,20.67-5.41,30.37-1.18,6.17-2.71,12.27-4.06,18.41-0.67,3.05-1.93,3.94-4.64,1.66-5-4.22-12-6.69-14-13.6-2.26-8-4.3-16.24-.59-24.61,2.21-5,3.82-10.21,5.67-15.34,1.16-3.22,3.26-4.91,6.82-4.26,4.38,0.8,8.9,1.2,13.06,2.63C261.32,301.69,262.09,304.62,262.86,305.87Z" transform="translate(-20.55 -27.11)"/><path class="k" d="M262.08,352.61c1.36-7.92,2.9-17.37,4.63-26.79,1.1-6,2.69-11.85,3.66-17.83,0.39-2.39.93-2.68,3.06-1.89,4.76,1.76,8.32,4.76,12,8.38,5,5,7.2,10.68,6.15,16.86-1.11,6.55-3.1,13.56-6.85,18.84-2.84,4-9.05,5.57-13.78,8.2a15.61,15.61,0,0,1-1.84.77C263,361.57,262,360.85,262.08,352.61Z" transform="translate(-20.55 -27.11)"/><path class="k" d="M220.91,294.34c4.05,0.63,8.13,1.17,12.14,2a2.89,2.89,0,0,1,1.64,2.29,22.34,22.34,0,0,1-1.36,5.25c-3.08,8.9-6.17,17.8-9.42,26.64-0.19.52-2.17,1-2.76,0.65-5.47-3.46-10.89-7-16.12-10.81a4.16,4.16,0,0,1-.88-3.9c3.29-6.59,6.66-13.16,10.53-19.42,1.09-1.76,3.92-2.45,6-3.64Z" transform="translate(-20.55 -27.11)"/><path class="k" d="M190.3,290.33c15.1,1,11.93,1.85,10.72,14-0.27,2.71-1.48,5.36-2.54,7.92-0.21.51-1.84,0.86-2.63,0.63a125.29,125.29,0,0,1-13.6-4.47c-1.5-.63-2.45-2.76-3.41-4.36-0.36-.6.06-1.62,0-2.44C178.44,292.29,181,289.76,190.3,290.33Z" transform="translate(-20.55 -27.11)"/><path class="k" d="M154.2,305.94c-2.51.63-5.91,1.71-9.39,2.26-1.3.21-2.79-.81-4.19-1.28,0.56-1.07.85-2.54,1.73-3.12a18.53,18.53,0,0,1,5.35-2.28c5.44-1.46,10.9-2.95,16.43-4,2.13-.41,4.47.32,6.71,0.54a32.4,32.4,0,0,1-.85,6.14c-0.26.81-1.87,1.61-2.9,1.66C163.17,306.05,159.22,305.94,154.2,305.94Z" transform="translate(-20.55 -27.11)"/><path class="l" d="M162.14,382.44c1.36-3.28,2.76-6.75,4.28-10.16a2.2,2.2,0,0,1,1.46-1.05,3.5,3.5,0,0,1,1.34,1.71c1.37,3.9,2.65,7.82,3.94,11.75,0.36,1.1,1.17,2.43.84,3.31-1,2.62-1.77,6.2-3.79,7.32-3.26,1.82-4.27-2.07-5.28-4.32A81.29,81.29,0,0,1,162.14,382.44Z" transform="translate(-20.55 -27.11)"/><path class="m" d="M195.57,364.82a4.46,4.46,0,0,1-1.77-1.44c-1.4-2.61,2.34-8.89,5.28-9.06a34,34,0,0,1,4.47-.08c2.49,0.19,5.63.34,5.49,3.61-0.11,2.81-.2,6.57-5.16,6.06C201.48,363.67,199,364.41,195.57,364.82Z" transform="translate(-20.55 -27.11)"/><path class="n" d="M163.21,354.4c-3.81.14-4.31-1.16-3.21-4.77,1.84-6.08,7.6-6,11.9-8.09,0.18-.09,2.53,2.54,2.33,3.63C173.13,351.3,169.44,354.17,163.21,354.4Z" transform="translate(-20.55 -27.11)"/><path class="m" d="M111.65,352.11c2.19-4.42,4.59-9.41,7.17-14.31a2.91,2.91,0,0,1,2.34-.82c0.88,1.06,2.29,2.77,1.95,3.57-2.34,5.47-5,10.79-7.75,16.09a3.21,3.21,0,0,1-2,.6C112.8,355.95,112.42,354.58,111.65,352.11Z" transform="translate(-20.55 -27.11)"/><path class="n" d="M143.49,357.21c-2.18,4.93-4.39,10-6.74,15-0.06.13-2.19-.21-2.38-0.7-1.77-4.6,0-12.72,3.35-15.46a7.79,7.79,0,0,1,4-1.19C142.07,354.81,142.6,356,143.49,357.21Z" transform="translate(-20.55 -27.11)"/><path class="o" d="M83.46,362.94c1.29-4.47,2.22-8.53,3.72-12.37,0.47-1.2,2.47-1.79,3.77-2.67,0.29,1.59,1.15,3.34.75,4.72a75.07,75.07,0,0,1-4.07,10.43c-0.46,1-1.79,1.61-2.73,2.4Z" transform="translate(-20.55 -27.11)"/><path class="o" d="M59.51,278.33c1.62-1.07,3.36-2.67,4,.85-0.12,2.92.16,5.93-.51,8.71-0.37,1.55-2.3,2.72-3.53,4.06-0.72-1.44-1.8-2.81-2.1-4.33C56.72,284.29,54.7,280.47,59.51,278.33Z" transform="translate(-20.55 -27.11)"/><path class="p" d="M103.93,285.38a8.41,8.41,0,0,1,.79-1.73c1-1.36,2.14-2.64,3.22-4l3.38,3.64c-0.93,2.53-1.7,5.14-2.85,7.56-0.48,1-1.77,1.61-2.7,2.4-0.75-1.18-1.87-2.27-2.16-3.55S103.8,286.84,103.93,285.38Z" transform="translate(-20.55 -27.11)"/><path class="l" d="M284.61,376.43c0.72-2.38.91-4.32,1.86-5.74s2.63-2.21,4-3.28a33.81,33.81,0,0,1,1.78,6.09c0.12,1.08-.82,2.4-1.54,3.42a48.91,48.91,0,0,1-3.36,3.86Z" transform="translate(-20.55 -27.11)"/><path class="n" d="M84.37,299.8c-2.55,3.74-4.21,6.52-6.27,9-0.57.67-2.37,0.31-3.6,0.42a14.25,14.25,0,0,1-.17-3.28c0.58-3.3,1.44-6.68,5.19-7.62C80.75,298,82.36,299.12,84.37,299.8Z" transform="translate(-20.55 -27.11)"/><path class="m" d="M210.86,374.46c0.19,0.72.85,1.78,0.57,2.42a118.94,118.94,0,0,1-5.45,11c-0.21.38-2.95,0.11-3.38-.57C201,384.77,207.16,374.65,210.86,374.46Z" transform="translate(-20.55 -27.11)"/><path class="q" d="M240.34,396.58c2.14-2.61,4.1-5.22,6.35-7.56a2.94,2.94,0,0,1,2.91.18,3.56,3.56,0,0,1,.6,3.15,25.17,25.17,0,0,1-3.75,6.32c-0.8.93-2.6,1.28-4,1.33C242,400,241.45,398.4,240.34,396.58Z" transform="translate(-20.55 -27.11)"/><path class="q" d="M310.41,339.75c2.08-2.58,4-5.21,6.25-7.58a2.92,2.92,0,0,1,2.87.21,3.54,3.54,0,0,1,.6,3.13,25.4,25.4,0,0,1-3.79,6.31c-0.82.95-2.6,1.28-4,1.39C311.95,343.24,311.4,341.57,310.41,339.75Z" transform="translate(-20.55 -27.11)"/><path class="o" d="M361.58,302.13L355,311c-1-.88-3-2.46-2.93-2.55a73,73,0,0,1,6.1-7.33C358.44,300.82,359.84,301.59,361.58,302.13Z" transform="translate(-20.55 -27.11)"/><path class="r" d="M323.51,296.74c-0.89-2.09-2.3-3.93-1.86-4.62a150.16,150.16,0,0,1,8.85-12.41c0.5-.65,2-0.51,3.07-0.73a19.4,19.4,0,0,1-.83,2.47c-1.84,3.79-3.66,7.6-5.67,11.31C326.4,294,325.18,294.9,323.51,296.74Z" transform="translate(-20.55 -27.11)"/><path class="r" d="M295.81,290.72c-0.21-1.1-.87-2.35-0.53-3.19,1.77-4.32,4-8.39,8.86-10a3,3,0,0,1,2.22-.08,2.18,2.18,0,0,1,.4,2.11c-3,3.64-6.14,7.18-9.27,10.72A5.38,5.38,0,0,1,295.81,290.72Z" transform="translate(-20.55 -27.11)"/><path class="s" d="M349.12,248.13l5.37,1.88a23.88,23.88,0,0,1-2.1,3.64,38.07,38.07,0,0,1-5.37,5.6c-0.66.52-2.53,0.11-3.42-.51-0.46-.31-0.34-2.24.16-3C345.44,253,347.42,250.49,349.12,248.13Z" transform="translate(-20.55 -27.11)"/></svg>