<svg xmlns="http://www.w3.org/2000/svg" viewBox="0 0 177.04 150.95"><defs><style>.a{fill:#9e9b9a;}.b{fill:#d2cfcf;}.c{fill:#e5e0e0;}.d{fill:#100c0d;}</style></defs><title>back_arrow</title><path class="a" d="M171.21,108.72l-0.07-1.66-0.22.12v-5.91c0.08-.25.14-0.5,0.23-0.74l-0.23-.2V98c0.14-.25.26-0.52,0.41-0.77L171,96.92l-0.09,0V94.27a4.91,4.91,0,0,0,0-1.78V90.37a1.08,1.08,0,0,0,0-1.47l0,0V86.69l0.22-.47L170.91,86V58.72h-1.55l1.14-1.24L170,56.05l-0.92.77h0l-0.28.48a15.07,15.07,0,0,1-1.2,1.43h-1.87a6.32,6.32,0,0,0,1.84-2,1.21,1.21,0,0,0-.6-0.2c-0.82.46-1.61,1-2.41,1.48l-1,.68-0.12,1.2,0.12-.05v4.87c0,0.11-.06.23-0.08,0.35h-1.93v39.43h0v1.16h0l-0.14,1.18a0.18,0.18,0,0,1,.06.07,1,1,0,0,1,0,.18l0,2.84,0.13,0.09v0.26l-0.13.29,0.13,1.54v9.67l0.55,2,1.28-.68,1.53-1.34h1.94v-1.62l2-1.57h2.1V117l0.28-.22v-2.49l-0.28.19v-1.64l0.26-.19v-3l-0.26.29v-1.09Z" transform="translate(-13.76 -32.29)"/><path class="a" d="M166.88,51.52l0.48-.1Z" transform="translate(-13.76 -32.29)"/><path class="a" d="M125.08,128.7c0.4,1.25,1.53,1.45,2.57,1.72a5.55,5.55,0,0,0,1.29,0c0.74-.67,1,0.26,1.47.45l2.13,0.27,0.05-1c1.18,0.35,1.49,1.29,1.85,2.2,0.75-.9,1.33,0,2,0.19l-0.22-2.06c0.92-.17,1.66.46,2,1.84,0.15,0.61.29,1,1.13,0.52l-0.58-.92c-0.52-1.76-2-2.22-3.52-2.54-0.5-.1-1-0.27-1.48-0.41l-0.47-.08-0.5-.14h-0.94l-0.5.14-0.47.08c-1.23,1-2.22.13-3.25-.43l-0.34-.16-1.21-.14Z" transform="translate(-13.76 -32.29)"/><path class="a" d="M128.94,132.11l-0.69.21C128.62,132.72,128.89,132.78,128.94,132.11Z" transform="translate(-13.76 -32.29)"/><path class="b" d="M151.76,51.93H151L150.1,52l-0.51.09h-0.7L146.95,52l-1.19.13h-0.47l-0.72,0-1.21.08-3.11-.67-0.54-.26a0.2,0.2,0,0,1-.19-0.12c-1.94-.32-3.87-0.82-5.87-0.3a6.14,6.14,0,0,1-1.64-.19c-1.05,0-2.11-.05-3.17-0.06l-3.51,0-0.46,0-0.47,0-0.72-.24c-4-.52-8.09-1.19-12.15-1.53-4.66-.38-9.33-0.48-14-0.67-4.28-.17-8.55-0.31-12.83-0.43a20,20,0,0,0-3.32.09,3.3,3.3,0,0,0-1.32.9c-0.45.37-.85,0.79-1.27,1.18l-0.22.06-2.12,2.7L75,53.92a0.16,0.16,0,0,1,0,.14l0.68,0.15c0.43,0,.87-0.05,1.3-0.05h9.76l1,0,1.24,0.1a0.16,0.16,0,0,1,.21,0l1.45,0,0.48,0,0.47,0,0.47,0,1,0.18,0.66,0,0.53-.05,1.17,0,1-.06L98,54.47l1,0,3.38-.15h0.48l9.85,1.08,0.7-.08,1.22,0.08,1.19,0.22,0.51,0.06,3.11,0.05,0.49,0.09,1.88,0h0.52l1.65-.06,0.49-.15,0.73-.12,0.75,0.14,1.15-.06,0.76,0,0.7-.19c0.31-.62.63-0.61,1,0l4.07,0.38,3.86,0.5h1.18l0.24-.18,0.73-.09,1.9-.15,0.49,0.1,6.23,0.5,0.48,0.07c1.9,0.63,3.7,0,5.51-.43l0.72-.13,1.2-.09,0.94,0,1,0.17,1.21,0.11,0.49,0.08,2.39,0.14,1.11-.19,0.36-.54,0.44-.35,2.35-1.06,0.29-.41,0-.53-2-.14h0l-1.33.12L161,53.23l-4.87-.49-0.94-.41-1.71-.22-1.21-.16Z" transform="translate(-13.76 -32.29)"/><path class="a" d="M78.41,46.43l-0.55-.88L73,50.35l-0.29-.24c0.16-2.42,2-3.67,3.75-5l0.59-.43h0l0.5-.45h0l-0.38-.55c-1,.84-1.91,1.76-3,2.5-1.39,1-2.4,2.08-2.06,3.94v0l0.09,0.29L72.57,52c0.48,0.8.84,0.57,1.28-.08a18.1,18.1,0,0,1,1.33-1.6l1.69-1.68,1.51-1.66Z" transform="translate(-13.76 -32.29)"/><path class="a" d="M71.87,42.9l0.41,0.59,4.62-3.76,0.23-.78-1,.15-1,.78L72.4,41.93l-0.53.91V42.9Z" transform="translate(-13.76 -32.29)"/><path class="a" d="M73.71,44.76l-0.45-.35L71.9,46l0.22,0.64,1.12-1.18,0.25-.27Z" transform="translate(-13.76 -32.29)"/><path class="a" d="M168.77,167.25c0.41,1,.79,2,1.23,3,0.88,2,2,2.46-1.11,3.55l0.77,3.45,0.09,0.47c0.23,1.13,1.17.32,1.71,0.63l0.24-.15a2,2,0,0,0,.61-2.37c-0.12-.5-0.23-1-0.35-1.5-0.28-1.14-.56-2.27-0.84-3.41l0.34-.1a11.61,11.61,0,0,1,2,5.41l0.66,2.15a1.1,1.1,0,0,1,.22-0.52,2.58,2.58,0,0,0,1.23-2.82l-2-4.76C172.68,168.16,170.73,167.7,168.77,167.25Z" transform="translate(-13.76 -32.29)"/><path class="a" d="M168.81,177.24a3,3,0,0,0-.42-1.07,2.47,2.47,0,0,0-1-.35,14.57,14.57,0,0,0-.1,2,2.3,2.3,0,0,0,.55.85l0.5-.11,0.45-.37,0.13-.48Z" transform="translate(-13.76 -32.29)"/><path class="a" d="M165.94,176l-0.07-1.7c-1.62.54-1.7,0.73-1.08,2.32a4.26,4.26,0,0,1,.15.78l0.78,0,0.19-1Z" transform="translate(-13.76 -32.29)"/><path class="a" d="M163,178.48l-1.65-.34-1.15-.08c-0.44.56-.5,0.92,0.41,0.86s1.56,0,2.33,0Z" transform="translate(-13.76 -32.29)"/><path class="a" d="M175.93,178.18l-0.42.23,0.42,0A0.6,0.6,0,0,0,175.93,178.18Z" transform="translate(-13.76 -32.29)"/><path class="a" d="M70.63,130.16l-3.35,2.7-0.79.64-0.27-.23,0.53-.95c0.77-.81,1.49-1.66,2.31-2.42,1.07-1,2.22-1.87,3.3-2.84a2.88,2.88,0,0,0,.45-0.95l-0.24-.18c-1.71,1.27-3.41,2.55-5.14,3.81a3.65,3.65,0,0,1-.92.34,2.09,2.09,0,0,1,.09-1.05,18.68,18.68,0,0,1,2.22-2.08c1-.76,2-1.36,3-2.15a6.09,6.09,0,0,0,1-1.52l-0.32-.3-6.64,2.67c-0.2,1.82-.72,3.67.67,5.29l-0.51.73c0,0.67,0,1.34.14,2s0,1.24.92,1.2l0.86-.4c1.31-1,2.66-2,3.91-3.13a5.1,5.1,0,0,0,.82-1.61l-0.55-.47a0.13,0.13,0,0,1-.16.07h0l-0.22.23v0l-0.24.74Z" transform="translate(-13.76 -32.29)"/><path class="a" d="M58.39,173.86c0.77,0,1.54.07,2.32,0.13,1,0.08,2,.18,3,0.28,0.57-.86,1.12-1.71,0-2.56l-0.24.85-2.89-3.49c-0.72.52-1.44,1-2.15,1.55a1.54,1.54,0,0,0-.42,2.27A6.8,6.8,0,0,1,58.39,173.86Z" transform="translate(-13.76 -32.29)"/><path class="a" d="M50.47,167.44H50a4.24,4.24,0,0,0,.6,4,1.36,1.36,0,0,1,.1.57,10.57,10.57,0,0,1,1.43.72,3.75,3.75,0,0,1,.69.86c1.43,0,1.73-.89,1.52-2.11l-0.16-.35Z" transform="translate(-13.76 -32.29)"/><path class="a" d="M52.26,173.53l-0.44,0Z" transform="translate(-13.76 -32.29)"/><path class="a" d="M72.11,40a0.28,0.28,0,0,1,.15.16l3.13-1.65,0,0c0.59-.59,1.21-1.15,1.75-1.78a6.73,6.73,0,0,0,.67-1.18l-2.38-.2-0.69.12-0.51.15-0.42.36-0.52.22-1.18,0V36.6l0.19,1.91-0.14.5Z" transform="translate(-13.76 -32.29)"/><path class="a" d="M110.73,162.11c0.52,0.76.68,1.88,1.92,1.92a1.27,1.27,0,0,1,.13-0.41c1.39,0,1.91-1.2,2.71-2a8.72,8.72,0,0,0,.35-3.8c-0.32-2.24-.3-4.52-0.53-6.77-0.35-3.48-1-6.95-1.1-10.44a3.6,3.6,0,0,0-2.05-3.49l-1.68,0-0.54-.07-0.52-.1-0.35.13-0.24,1a10.11,10.11,0,0,1,.15,1.13c0,1.14-.05,2.29,0,3.42,0.28,3.3.63,6.59,0.95,9.89l0.42,2.14a5.9,5.9,0,0,1,.19.91c0.1,1.94-.36,3.92.47,5.82A1.5,1.5,0,0,1,110.73,162.11Z" transform="translate(-13.76 -32.29)"/><path class="a" d="M168.79,173.41l0.07,0.28Z" transform="translate(-13.76 -32.29)"/><path class="a" d="M69.94,121.8c-0.34-.06-0.68-0.11-1-0.19a0.89,0.89,0,0,0-1.25.78l0.21,0.52Z" transform="translate(-13.76 -32.29)"/><path class="c" d="M154.12,95.4a4.13,4.13,0,0,0-.17-0.69h0v0c0-2.29,0-4.58,0-6.88a4.38,4.38,0,0,1,.45-1.28l0.12-.34a2.44,2.44,0,0,0,.35-0.81Q155,79,155.1,72.56a6.56,6.56,0,0,0-.18-1.15l0.35-6.26,0.1-1.91-0.79-1.32L152,61.84l-0.72.1-0.49.12-1.19.06-1,.2-1.67,0-5-.47a20.29,20.29,0,0,0-2.34-.15,35.78,35.78,0,0,1-9.15-.6,22.13,22.13,0,0,0-3.81-.14l-4.15-.16-0.69,0-1.61.21h-0.3l-1.24.24-1.18.08-1.43.23-0.46,0q0-.11,0-0.21l-1.19-.08-0.74-.14-1.66-.15-0.74-.09-0.71-.08c-2.65-.12-5.3-0.32-7.94-0.32-1.93,0-3.86.29-5.79,0.42-0.87.06-1.74,0.06-2.62,0.09l-3.58.1c-2.16-.17-4.32-0.27-6.47-0.51-4-.46-8-0.2-11.84-1.65l-0.26,0-0.32.07a4.37,4.37,0,0,1-3.89-.27h0l-0.2-.35V58L67.07,57,66.58,54.8l-0.05-.06,0.05,0-0.26-1.07L66,49.09l-0.11-1.56-0.31.09-0.19.18L65.14,48a6.08,6.08,0,0,0-2.59,3.37h0c-0.79,1-1.55,2.1-2.37,3.12q-2,2.43-4,4.82a5.6,5.6,0,0,1-1.56,1.61c-2.45,1.15-4.75,2.46-6.33,4.75-2.75,2.05-5.92,3.53-8,6.43-1.2,1.65-2.86,3-4.21,4.5-1.93,2.2-3.81,4.45-5.65,6.72-1.29,1.59-2.45,3.28-3.73,4.88a24,24,0,0,1-1.89,1.9l0.12,1.37c1.83,2.16,3.61,4.37,5.52,6.46s4,4.13,6,6.19c0.33,0.33.69,0.64,1,1h0L39,106.68c0.9,2.26,3,3.54,4.4,5.41a40.21,40.21,0,0,0,3.36,3.7c0.71,0.74,1.58,1.34,2.26,2.11,1.86,2.12,3.65,4.3,5.48,6.44,0.51,0.6,1.05,1.17,1.58,1.76a7.15,7.15,0,0,1,3.33,3l0-2.28,0-.24L59,125.81v-2c0.48-1.74,0-3.4-.36-5.08a22.78,22.78,0,0,1-.24-2.41l0.91-.46-0.63-1.46v-0.46l0.13-1,0.53-.16,1.44,0.06c1.39,0.21,2.77.48,4.17,0.63q6.22,0.7,12.45,1.34c5.11,0.52,10.21,1,15.32,1.5s10.13,1.05,15.21,1.43c3.35,0.25,6.72.18,10.07,0.32,2.81,0.12,5.61.39,8.42,0.52,2.61,0.12,5.22.15,7.83,0.21,1.62,0,3.38-.31,4.83.21a17.29,17.29,0,0,0,5.23.94h0.49l2.15,0.23c2,0.66,4.11.25,6.16,0.13a3.11,3.11,0,0,1,.57.07l0.76-.09,0.66-.37h0L154.61,118v0l-0.63-.81v-0.41l0.18-.46H155v-0.1h0.1l0.24-2.56c-0.08-1.37-.14-2.75-0.24-4.12Q154.63,102.46,154.12,95.4Z" transform="translate(-13.76 -32.29)"/><path class="b" d="M61,175.11c-2.74,0-3.72-.24-4.59-1.25h2a6.8,6.8,0,0,0-.39-1,1.54,1.54,0,0,1,.42-2.27c0.71-.53,1.44-1,2.15-1.55l-1.47-1-1,.2-0.66.56-0.21.29c-1.17,2.63-1.17,2.63-2.89,2.39,0.2,1.22-.1,2.07-1.52,2.11l-0.54-.05-0.44,0-1.17.06-5.22.36a4.28,4.28,0,0,0,6.36,1.15,2.61,2.61,0,0,1,3.15-.52c0.91,0.47,1.86.85,2.79,1.28,1.5,0.7,3.21.59,4-.25a0.18,0.18,0,0,0,0-.22Z" transform="translate(-13.76 -32.29)"/><path class="b" d="M46.47,168c-0.24.3-.47,0.62-0.71,0.93-0.28.68-.52,1.38-0.84,2a13.85,13.85,0,0,1-.91,1.41l-1.4-1.2,0,1.75,1.64-.15,4.33-.45L46.9,171.1l0.24-.46L50.68,172a1.36,1.36,0,0,0-.1-0.57,4.24,4.24,0,0,1-.6-4C48.5,166.59,47.49,166.76,46.47,168Z" transform="translate(-13.76 -32.29)"/><path class="b" d="M60.88,167.57l-0.4-.31,0.1,0.36,0.2,0,2.93,4c1.13,0.85.58,1.71,0,2.56l0,0.09,0.66,0.26c1.13-.27,1.17-1.16.93-2A7.86,7.86,0,0,0,60.88,167.57Z" transform="translate(-13.76 -32.29)"/><path class="b" d="M53.69,169.19c0.71,0.61,1.31.55,1.37-.58-0.73-.36-1.46-0.74-2.2-1.08-0.42-.2-0.87-0.34-1.31-0.51C52.26,167.75,52.92,168.53,53.69,169.19Z" transform="translate(-13.76 -32.29)"/><path class="b" d="M41.31,174.63l0.77-.41-0.84-.08Z" transform="translate(-13.76 -32.29)"/><path class="b" d="M159.62,125.32l0.53-.41h0l-0.42-2.15-0.09-.92-0.19-.28-0.2-.8a0.11,0.11,0,0,0,0-.16l0-.72v-0.24l-0.06-.75,0.51,0.25h0l0.48,0c0.06-1.42.18-2.84,0.18-4.26,0-2.67-.11-5.34-0.16-8l0-2.41,0-.71,0.35-10.09,0-.7,0.09-.5,0-1.59,0-1.78c-0.07-1.33-.11-2.65-0.22-4a7.75,7.75,0,0,0-.37-0.91c-0.21-.92-0.37-1.85-0.55-2.78l0.09-.74,0.07-.23c0.2-3.22.39-6.43,0.62-9.65a8.28,8.28,0,0,1,.32-1.36h0L161,67.77l0.46-6.91L157.61,63l-0.08,1.47a6.27,6.27,0,0,0-.52,1.49c-0.2,2.44-.36,4.88-0.49,7.32-0.07,1.3,0,2.61-.09,3.91-0.16,3.52-.35,7-0.54,10.55l-0.39,1.21-0.23,3.85,0.07,1-0.14.23-0.05.5v0.46l0,0.73,0,0.68,0.21,2.18v0.09l0.27,5,0.9,12,0.3,1.73V118a0.19,0.19,0,0,1-.07.19v0.24l0.07,0.23,0.69,1.48,0.29,0.94-0.28,0v0.28l-0.48,0-0.48,0-5.32.74a0.51,0.51,0,0,1-.12,0c-2.09-.24-4.19-0.45-6.27-0.72-1.21-.16-2.41-0.45-3.61-0.64a26.61,26.61,0,0,0-3.74-.53c-2.3,0-4.61.24-6.9,0.1-3.17-.2-6.32-0.66-9.48-1a3.73,3.73,0,0,0-.6,0l-6.83.36a3.51,3.51,0,0,1-.6,0l-11.94-1.44c-3.64-.4-7.28-0.82-10.92-1.19-4.82-.5-9.65-0.91-14.47-1.45-4.23-.47-8.44-1.05-12.67-1.58-0.35,0-.71,0-1.07,0l-0.74-.2v0.73l0,0.48,0.06,0.48,0.18,0.49,0.13,0.69a1.85,1.85,0,0,1-.84.13,12.23,12.23,0,0,1-1.5-.82l-0.91.46a1.89,1.89,0,0,1,2,1.79c0.2,1.26.45,2.51,0.63,3.77a17.29,17.29,0,0,1,.13,2.23c0,1-.11,2.07,0,3.09s0.35,1.87.47,2.81c0.07,0.57,0,1.17-.78,1.2l-0.32-.37h0l-0.07,0-0.33-.08-0.74.08-0.21-.12-0.47-.47-0.25-.24-0.24-.23-0.69-.52h0L57.22,129l0,0L56,127.5l-0.3-.61-2.32-2.24-0.25-.27h0l-0.25-.25v0l-0.27-.26-0.29-.43-0.21-.22L50.36,121,50,120.57h0l-0.24-.36-0.48-.6-0.95-1.1h0l-1.1-.86-1.08-1h0L46,116.46l0,0-0.24-.29h0l-0.81-1h0l-1.59-1.62-0.31-.28-0.9-.91L41.85,112h0l-0.23-.24-0.22-.36-0.91-.85-0.32-.41-1.5-1.72-0.42-.46-0.6-.77-0.33-.36a0.11,0.11,0,0,0-.13-0.14l-0.82-1h0l-0.4-.37-0.33-.36-2-2.08-0.42-.35a0.13,0.13,0,0,0-.16-0.09l-1-.84h0l-1-1.06-0.25-.29-0.69-.9L28.24,97h0l-1-1.12L27,95.62l-0.28-.49-0.18-.24-1.28-1.37h0l0,0L25.06,93,23.6,91.85l-0.37-.33-0.36-.25,0,0,0.34-1.83h0l0.2-1,0.08-.3,0.19-.41,0.26-.42h0l0.26-.06c0.91-1,1.86-1.89,2.71-2.9,0.5-.6.76-1.39,1.25-2q2.28-2.74,4.67-5.38c1.75-1.94,3.55-3.83,5.32-5.75,0.35-.38.68-0.76,1-1.14a26.7,26.7,0,0,1,2.57-2.75c1.47-1.21,3.11-2.2,4.62-3.37,0.81-.62,1.41-1.54,2.26-2.09,1.58-1,3.27-1.83,4.91-2.76A1.76,1.76,0,0,0,54,58.6c0.83-1.19,1.58-2.43,2.46-3.57a65.21,65.21,0,0,0,4.3-5.36,12,12,0,0,1,3.28-3.78h0l0.56-.36,0.7-.41,0.49,0.13,0.71,0c0.53-.58.76-0.06,0.86,0.32a7,7,0,0,1,.12,1.39l0,0.73v5l0,0.48,0.22,1,0.54,3L67.07,57,67.59,58c1.32-.93,2.66-0.5,4-0.08,2.56,0.3,5.11.72,7.67,0.87,5.07,0.3,10.16.51,15.24,0.62,2.57,0.05,5.14-.24,7.72-0.32a45.65,45.65,0,0,1,4.87,0,26.76,26.76,0,0,1,3.39.68,6.57,6.57,0,0,1,1,0,16.57,16.57,0,0,0,7.82-.42,3.27,3.27,0,0,1,1.06,0c1.57,0,3.14,0,4.71,0,1.35,0,2.7,0,4,.16,2.09,0.19,4.18.78,6.25,0.67,4.24-.23,8.41.32,12.6,0.57l1.44-.26,1-.05c1.57-1.17,3-.49,4.33.41l0.94,0.16,0.22-.07c1.83-.32,2.72-1.81,3.94-2.88l-0.12-.37-2.13-.33H156.8l-0.55.13-0.9.27-0.71.09-0.48.15-3.81.15-1.21-.05h-0.49l-0.47,0-1.2-.1-1.19-.16-0.49,0-1-.16-0.72-.12-0.49-.09h-0.48l-0.5.05-1.2.15-7.43-.47-0.94-.09-5.56.05-0.71,0-2.18.11-0.91.07-0.52,0-2.12,0-2.17-.17-1.18-.16-1-.11h-1l-2.19-.23-0.44-.1-0.74-.1-0.73-.22-3.83-.35-0.74-.11-6.24,0H98.48l-1.2,0-0.48,0H96.33l-1,0-6-.15-0.71,0c-3.54.1-7.09,0.3-10.63,0.26A34.66,34.66,0,0,1,73,55l-0.69-.36c-1.29-.08-0.77-1.23-1.11-1.88l0,0a13.2,13.2,0,0,1-1.35-2.58,11.16,11.16,0,0,1-.14-2.84c0-2.79,0-5.57,0-8.36l-1,0-0.62.33-0.69.55h0l-2.24,1.58L63,43.12l-3.63,3.2c-1.58,1.26-3.26,2.41-4.72,3.8-2.9,2.76-5.69,5.63-8.52,8.47-0.42.42-.78,0.9-1.16,1.35L42.07,63l-1.9,2-0.19.2-0.5.55-0.53.63-2.64,3.08L35.74,70l-0.59.72-0.37.48-0.31.26v0l-6,7.42h0l-0.16.22v0c-1.37,2-2.75,3.92-4.11,5.9-0.24.35-.42,0.75-0.63,1.13l-3.47,4.7h0l-0.81,1.58,0.29,0.63c2.19,2.06,4.42,4.07,6.55,6.18,2.62,2.59,5.16,5.25,7.73,7.89,0.27,0.28.5,0.61,0.75,0.91l0.28,0.26,0.48,0.45,0.21,0.36,4.67,5.23c1.45,1.63,2.84,3.32,4.38,4.86,2.1,2.09,4.36,4,6.47,6.1,1.83,1.79,3.56,3.69,5.33,5.54L59.85,135l0.28,0.23,3.11,3.83,0.4-.2,0.05-1.21a0.12,0.12,0,0,0,.06-0.17l-0.11-4.39-0.23-3.83-0.23-2.9-0.2-1a24.28,24.28,0,0,1-.27-3.22,2.8,2.8,0,0,1,1-1.08l0.28-.19,0.92-.55a0.08,0.08,0,0,1,.11-0.07,4.82,4.82,0,0,1,1.41-.46c1.37,0,2.74.08,4.11,0.18,0.62,0,1.23.2,1.85,0.31l0.94-.37L73.91,120l0.79,0.44c3,0.35,5.92.74,8.89,1,1.5,0.14,3,.07,4.54.13a7,7,0,0,1,1.23.27l0.59,0L91,122l0.7,0,0.47,0.09c4.13,0.32,8.25.63,12.38,1,0.91,0.08,1.81.29,2.72,0.42,2.56,0.35,5.11.77,7.68,1,3.61,0.36,7.22.61,10.84,0.91l0.71,0,4.29,0.37h0a2.38,2.38,0,0,1,.87-0.71,9,9,0,0,1,5.48.66h0l0.86,0.38,1.2,0.1,1.66-.19a0.24,0.24,0,0,1,.09-0.18c0.67-.74.71-0.73,1.38,0.29l0.46,0.09,3.35-.09h6.05l6-.47ZM36.35,105.74v0Zm123.36,12.85a1,1,0,0,0-.15-0.43A1,1,0,0,1,159.71,118.59Z" transform="translate(-13.76 -32.29)"/><path class="b" d="M159.62,125.32h0Z" transform="translate(-13.76 -32.29)"/><path class="b" d="M129.71,134.75l-0.26-.26-2.89-.69-0.91,1.41-1.71-1.57-0.53.05H123l-1.25.22-1.19-.17-0.72.15-1.18.12-4.34-.29h-0.44l-3.61-.17-1.43,0a1.86,1.86,0,0,1-.35.06c-3.89-.06-7.79-0.11-11.68-0.2a1,1,0,0,0-1.22,1c-0.13,1.5-.44,3-0.68,4.48v0.24l-0.22,1,0,0.48-0.07,1.38v0.6l0.07,8.08-0.19.09,0,0.66h0l-0.09,0,0,0.43h0l-0.2.55-0.23,3.36,0,0.7-0.59,4.8q0,0.54,0,1.07,0,0.93,0,1.85v3.74l1.11-.07,2.19,0.46c0.93-.16,1.86-0.37,2.8-0.47a18.44,18.44,0,0,1,6.59.36l0.24,0.08,0.72,0.21,1.92-.09h0.48l1.2,0.1,1.44-.5,0.23,0c1.72-.72,3.42,0,5.12.1l1.36,0.34,5.59,0.62,0.42,0.22c1.14,0.29,2.27.68,3.44,0.86,2.48,0.38,5,.66,7.46,1l-0.13-.45,1.15-1.29V168.7l-0.36-2.47,0-.54-0.06-2.6-0.09-.34-0.15-.85,0-1-0.19-2.12,0-.74,0-.71h0l-0.29-3.73-0.15-.84a0.22,0.22,0,0,1-.06-0.22c-0.34-2-.82-4-1-6.09-0.24-2.76-.26-5.55-0.37-8.32l-0.07-2.86h0c-1.17-.05-2.3-1-3.51-0.12A2,2,0,0,1,129.71,134.75Zm-24.48,27.14h0c-0.77,1.27-1.75,1.8-2.75,1.48l-1.52-1-0.82-.91h0a3.86,3.86,0,0,1-1-2.92,19,19,0,0,0-.08-5.11c-0.81-4.05-.77-8.14-1-12.23a11.69,11.69,0,0,1,.09-1.41c0-1,.06-2,0.17-3.05A1.35,1.35,0,0,1,99,136a10.86,10.86,0,0,1,1.37-.66c2-.33,4.21,1.89,4.25,4.18q0.11,6,.33,12c0.12,3.16.31,6.32,0.47,9.48Zm11.5-1.45-0.07.48-0.19.43-0.15.55-2.52,3.55L112.65,164c-1.24,0-1.4-1.16-1.92-1.92a2.18,2.18,0,0,1-.72-0.7c-0.54-2.12-1.27-4.24-.72-6.49l-0.13-.44c-0.29-2.17-.61-4.34-0.85-6.51-0.12-1.13,0-2.29-.13-3.43-0.16-2-.37-3.94-0.57-5.92,0-.8-0.06-1.59,0-2.39a1.28,1.28,0,0,1,2-.91,8.65,8.65,0,0,0,1.17.51c2.22-.2,5.22,2.41,5.17,4.45,0,1.31,0,2.62,0,3.92,0.31,5.26.65,10.51,1,15.77Zm11.21,0.92c-0.27,1-1.08,1.75-1.33,2.71a1.27,1.27,0,0,1-1.56,1,3.61,3.61,0,0,1-3.25-2,4.79,4.79,0,0,1-.79-1.45,5.53,5.53,0,0,1,.31-1.73L121,158.07a10.07,10.07,0,0,1-.62-2c-0.23-2.47-.36-4.94-0.52-7.42s-0.42-4.68-.4-7a5.32,5.32,0,0,1,1.3-4c0.62-.93,1.26-2,2.58-1.51a11.55,11.55,0,0,1,2.31,1.56l0.81-1.61c1.17,1.19,1.17,2.6,1,4.1a29.28,29.28,0,0,0-.19,4.25c0.1,2.57.34,5.14,0.52,7.7l0.39,1.61V154l0.06,3.54,0,0.71A15.85,15.85,0,0,1,127.94,161.37Z" transform="translate(-13.76 -32.29)"/><path class="b" d="M127.65,130.42c-1-.26-2.17-0.47-2.57-1.72l-0.2-.19c-1.37-.16-2.83.17-4-0.84l-0.53-.19c-2.15.1-4.34-1.13-6.47,0.16h-0.27l-0.48-.31h0l-0.95-.49-1-.48a2.16,2.16,0,0,1-.36,0c-1.79-.45-3.57-1.18-5.44-0.34a1.06,1.06,0,0,1-.33-0.29,0.08,0.08,0,0,1-.11-0.06c-2.53-.42-5-0.9-7.59-1.24a34.74,34.74,0,0,0-3.63-.1,3.12,3.12,0,0,1-.94-0.13c-0.76-.27-1.51-0.59-2.26-0.89H90.12l-1,.17a3.8,3.8,0,0,1,.41,3.62c-0.5,1.4.91,1.79,1.4,2.66,1.15,1.36,2.19,1.66,3.48,1l1.89,0.6,0.53-.06h0.91l2.93,0,1.15-.06h4.28l0.53,0.05,0.72,0.09,1.42,0.11,0.53,0,0.42,0,0.54-.08,0.43,0,0.53,0c1.46,0.09,2.92.15,4.37,0.27a1,1,0,0,0,1.26-.9,1.78,1.78,0,0,1,.62-0.61l0.42,0.35,0.48,0.48,0.22,0.49,0,0,1,0a2.52,2.52,0,0,0,.6-0.62c0.48-1.1.7-1.22,1.34-.29s1.52,0.81,2.41.73a0.78,0.78,0,0,0,.58-0.3c0.39-1.2.75-.63,1.38-0.12a12.22,12.22,0,0,0,2.34,1.2l0.69-.21v-1.67A5.55,5.55,0,0,1,127.65,130.42Z" transform="translate(-13.76 -32.29)"/><path class="b" d="M131.68,133a2.07,2.07,0,0,0,.94-1,1.54,1.54,0,0,0-.07-0.77l-2.13-.27a2.74,2.74,0,0,1,.33,1.08A0.79,0.79,0,0,0,131.68,133Z" transform="translate(-13.76 -32.29)"/><path class="b" d="M136.43,132.58c-0.65-.18-1.23-1.09-2-0.19a2.5,2.5,0,0,0,.79.84C135.73,133.37,136.38,133.41,136.43,132.58Z" transform="translate(-13.76 -32.29)"/><path class="b" d="M157,55.9l-0.94,0,0.6,0.09Z" transform="translate(-13.76 -32.29)"/><path class="b" d="M166.84,53.86l-0.19-.54,0,0.53h0.21Z" transform="translate(-13.76 -32.29)"/><path class="b" d="M168.77,167.25l-0.91-.44-0.64-.27a0.09,0.09,0,0,1-.12-0.07l-1.66-.53-1-.08-2.66.15-2.06,1.41-0.51.58-1.13,2c-1.12,2.33-.46,4.8-0.54,7.22a2.68,2.68,0,0,0,.32,0l1.29-.27,0.48,0,1.2,0.21,4.07,0.18a4.26,4.26,0,0,0-.15-0.78c-0.63-1.59-.54-1.79,1.08-2.32,0.3-.85.79-1.18,1.61-0.58l0.27-.24-0.22-1.78,0.33-.12,0.92,1.79,0.07,0.28a0.14,0.14,0,0,0,0,.12c3.1-1.09,2-1.54,1.11-3.55C169.56,169.27,169.18,168.26,168.77,167.25Z" transform="translate(-13.76 -32.29)"/><path class="b" d="M175.54,175a2.58,2.58,0,0,1-1.23,2.82,1.1,1.1,0,0,0-.22.52l1.42,0,0.42-.23A3.17,3.17,0,0,0,175.54,175Z" transform="translate(-13.76 -32.29)"/><path class="b" d="M164.6,53l0,0.17h0V53Z" transform="translate(-13.76 -32.29)"/><path class="b" d="M145,173.26c-0.89-.3-1.75-0.69-2.62-1l-0.47-.12-0.49.09-3.12,0-1,.09-0.73-.09-0.71,0c-1.54-.07-3.09-0.11-4.63-0.21a11.3,11.3,0,0,1-1.72-.31c-2.66-.6-5.31-1.23-8-1.8-1-.21-2.06-0.21-3.06-0.42a9.77,9.77,0,0,0-5.52.07,10,10,0,0,1-3.25,0l-0.5,0c-1-.07-1.93-0.17-2.9-0.21-2.16-.11-4.31-0.19-6.47-0.27a3,3,0,0,0-.44.17,19.51,19.51,0,0,1-2.08.29c-0.77,0-1.54,0-2.31,0-0.1.61-.42,0.69-0.9,0.37l-0.51,0a2.86,2.86,0,0,1-2.4-.23l-0.75,0-0.7.15-0.73.22-0.7.1c-1.28.69-2.61,1.3-3.82,2.1-0.76.5-1.26,1.28-.17,2.09a1.83,1.83,0,0,1,.58.89A2.65,2.65,0,0,0,87.55,177c3.72,0.44,7.44.87,11.16,1.24,2.88,0.28,5.79.32,8.65,0.71a17.12,17.12,0,0,0,5.66-.3,7.34,7.34,0,0,1,1.77.09h2.87l0.49,0,0.46,0.08,0.5-.05,0.48,0,0.7,0,1,0,1.89-.29,0.39-.37,0.55-.84a7.78,7.78,0,0,0,2.33,1.33c1.14,0.17,1.54-.69,1.13-2.17a4.2,4.2,0,0,1,1.12.91c0.61,1.56,1.91.9,3,1a0.94,0.94,0,0,0,.37-0.69,5.92,5.92,0,0,0-.45-1.36c1.74,1,2.83,3.18,5,1.64l-0.21-1.12,0.27-.2,2.12,2.18,2.08-.08,0.06-.3-1.44-3.76c1.1-.05,1.59.8,2.06,1.58a3.84,3.84,0,0,1,.5,1.57,1.1,1.1,0,0,0,1.31,1.13,3.85,3.85,0,0,0,.5-1.39,6,6,0,0,0-.58-1.64l-1.83-3c1.22-.35,1.17.85,1.67,1.37l0,0,0.22,0.22,2.57,4.21,0.22-.15,0.28-2.72h0.49l0.33,1.06,0.2,0.73,0,0a0.34,0.34,0,0,1,.19,0l0.27-.7C148.12,175.06,147.3,174,145,173.26Z" transform="translate(-13.76 -32.29)"/><path class="b" d="M128.48,55.48l1,0C129.11,54.87,128.78,54.86,128.48,55.48Z" transform="translate(-13.76 -32.29)"/><path class="b" d="M92,54.55a0.36,0.36,0,0,1,0-.21l-0.47,0a0.38,0.38,0,0,1,0,.2H92Z" transform="translate(-13.76 -32.29)"/><path class="b" d="M153.94,94.68c0.08-.86.19-1.72,0.23-2.58,0.09-1.86.15-3.72,0.22-5.59a4.38,4.38,0,0,0-.45,1.28C153.9,90.1,153.93,92.39,153.94,94.68Z" transform="translate(-13.76 -32.29)"/><path class="b" d="M147,62.28l1.67,0-0.13-.22-0.83,0Z" transform="translate(-13.76 -32.29)"/><path class="a" d="M100.37,136.92l-0.75,2.86c0.08,2.07.13,4.14,0.24,6.21,0.14,2.53.39,5.05,0.51,7.58,0.12,2.37.15,4.74,0.21,7.11,1.69,1.12,2.93,1.18,3.53-.2a8,8,0,0,0,.16-3.47c-0.07-1.06-.42-2.1-0.5-3.16-0.28-3.74-.51-7.48-0.75-11.22-0.08-1.31-.19-2.62-0.19-3.93a1.09,1.09,0,0,0-.88-1.31,6,6,0,0,1-1.19-.74A1,1,0,0,0,100.37,136.92Z" transform="translate(-13.76 -32.29)"/><path class="a" d="M121.53,156.84l0.94,4.08c0,2,.42,2.59,2,2.64a1.09,1.09,0,0,0,.87-0.37c0.64-1.6,1.2-3.23,1.79-4.86l-0.25-2.22,0.17-2.38c-0.3-1.94-.71-3.88-0.88-5.84-0.24-2.77-.3-5.56-0.44-8.34l-0.13-.26-0.49-.69c-0.82-.31-1.63-1.39-2.47,0a0.23,0.23,0,0,1,0,.12c-1.86,1.74-1.8,3.91-1.53,6.22,0.32,2.76.49,5.53,0.63,8.3A32.84,32.84,0,0,1,121.53,156.84Z" transform="translate(-13.76 -32.29)"/><path class="d" d="M13.76,183.24l1.18-.4-1.18-1v1.44Z" transform="translate(-13.76 -32.29)"/><path class="d" d="M190,179.36c-2.7-.87-5.43-1.67-8.17-2.41a2.49,2.49,0,0,0-1.07.59c-0.26.14-.54,0.26-0.81,0.39l-2.2-.21c-0.59-1.51-1.22-3.24-2-4.92-0.46-1-1.09-2-1.65-3l-0.53.53,2,4.76a3.17,3.17,0,0,1,.39,3.13,0.6,0.6,0,0,1,0,.2l0.83-1.68-0.83,1.68-0.42,0-1.42,0-0.66-2.15a11.62,11.62,0,0,0-2-5.41l-0.34.1c0.28,1.14.56,2.27,0.84,3.41,0.12,0.5.23,1,.35,1.5a2,2,0,0,1-.61,2.37h0l-0.24.15c-0.41-.24-1.06.18-1.44-0.13l0.43,0.83-0.43-.83h0l-0.26-.5h0l-0.09-.47-0.77-3.45a0.14,0.14,0,0,1,0-.12l-0.07-.28-0.92-1.79-0.33.12,0.22,1.78-0.27.24c-0.82-.6-1.31-0.27-1.61.58l0.07,1.7,0,0.47-0.19,1-0.78,0-4.07-.18,0.49,0.88,1.65,0.34-0.06.4h0c-0.78,0-1.56,0-2.33,0s-0.85-.3-0.41-0.86l1.15,0.08-0.49-.88-1.2-.21-0.48,0-1.29.27L158.2,178h0l-0.29-.66a2.7,2.7,0,0,1-.32,0c0.08-2.41-.58-4.88.54-7.22l1.13-2,0.51-.58,2.06-1.41,2.66-.15,1,0.08h1.69l0,0.54a0.09,0.09,0,0,0,.12.07l0.64,0.27,0.91,0.44c2,0.44,3.91.9,4.81,3l0.53-.53a5.76,5.76,0,0,0-5.3-4.52l-1-.32-0.45-.13-0.31-.11-0.9-.35-0.74-.22-0.71-.16-2.87-.15-0.48,0-0.48.1-1.09.54h-0.08l0,0.07a7.82,7.82,0,0,0-3.58,6.26,37.26,37.26,0,0,0,.28,5.36c0.13,1.28.31,1.38,1.22,1.72l0.61,1.57c0.28,0.33.56,0.66,0.82,1s0.56,0.76.8,1.09a35.18,35.18,0,0,1,10.72.23c1-1.65,2.63-1,4.24-.51l0.21,0.12,1,0.13,0.79-.4h0l0.39-.46,2.2-.64c0.59,0,1.19.06,1.78,0.07a1.08,1.08,0,0,0,.65-0.1c0.46-1.17,1.34-.61,2-0.41,1.2,0.36,2.42.48,3.42,1.64,0.54,0.63,2.22.38,3.37,0.32C191.07,181.51,190.68,179.58,190,179.36Zm-21.58-3.18a3,3,0,0,1,.42,1.07l0.1,0.47-0.13.48h0l-0.45.37-0.5.11a2.3,2.3,0,0,1-.55-0.85,14.56,14.56,0,0,1,.1-2h0A2.47,2.47,0,0,1,168.39,176.17ZM159,178.06h0l0.05,0.1Z" transform="translate(-13.76 -32.29)"/><path class="d" d="M57.22,169.09l0.21-.29,0.66-.56,1-.2,1.47,1,2.89,3.49,0.24-.85-2.93-4-0.2,0-1.46-.22,1.46,0.22-0.1-.36,0,0-0.2-.25a0.22,0.22,0,0,1-.14-0.15l-0.34-.33a2.76,2.76,0,0,0-3.56.36l-0.81,1.28-0.34.48c-0.06,1.13-.65,1.19-1.37.58s-1.43-1.44-2.14-2.17l-1.38-1.15A3.65,3.65,0,0,0,44.55,167c-0.17.3-.31,0.63-0.46,0.94a0.21,0.21,0,0,0-.13.18l-0.26.3-1.1,2.81,1.4,1.2a13.85,13.85,0,0,0,.91-1.41c0.33-.66.57-1.36,0.84-2,0.24-.31.46-0.63,0.71-0.93,1-1.25,2-1.42,3.51-.57h0.48l3.69,3.69,0.16,0.35c1.73,0.24,1.73.24,2.89-2.39h0ZM57.74,167l0.05,0-0.05,0h0Z" transform="translate(-13.76 -32.29)"/><path class="d" d="M19.28,92.52l0.81-1.58h0l3.47-4.7c0.21-.38.39-0.78,0.63-1.13,1.36-2,2.74-3.93,4.11-5.9-0.23.06-.52,0.07-0.73,0.15,0.21-.08.5-0.09,0.73-0.15v0l0.16-.22h0l6-7.42a3.15,3.15,0,0,0-2.33.63,3.15,3.15,0,0,1,2.33-.63v0l0.31-.26,0.37-.48L35.74,70l0.57-.58,2.64-3.08h0l0.53-.63,0.5-.55,0.19-.2,1.9-2L45,59.93h0c0.39-.45.74-0.93,1.16-1.35,2.83-2.84,5.61-5.72,8.52-8.47,1.46-1.38,3.14-2.54,4.72-3.8L63,43.12h0l2.09-1.7,2.24-1.58h0l0.69-.55L68.7,39l1,0c0,2.79,0,5.57,0,8.36a11.16,11.16,0,0,0,.14,2.84,13.19,13.19,0,0,0,1.35,2.58h0l0,0c0.34,0.65-.19,1.8,1.11,1.88h0L73,55a34.66,34.66,0,0,0,5,.74c3.54,0,7.09-.16,10.63-0.26l0.71,0,6,0.15,1,0h0.46l0.48,0,1.2,0h1.92l6.24,0,0.74,0.11,3.83,0.35,0.73,0.22,0.74,0.1,0.44,0.1,2.19,0.23h1l1,0.11,1.18,0.16,2.17,0.17,2.12,0,0.52,0,0.91-.07,2.18-.11,0.71,0,5.56-.05,0.94,0.09L141,57.69,140,57.25h0L141,57.69l1.2-.15,0.5-.05h0.48l0.49,0.09,0.72,0.12,1,0.16,0.49,0L147,58.07l1.2,0.1,0.47,0h0.49l1.21,0.05,3.81-.15,0.48-.15,0.71-.09,0.9-.27-0.41-.11h0l0.41,0.11,0.55-.13h0.72l2.13,0.33,0.12,0.37c-1.22,1.07-2.11,2.56-3.94,2.88l-0.22.07L154.66,61c-1.37-.9-2.76-1.58-4.33-0.41l-1,.05-1.44.26c-4.2-.26-8.37-0.8-12.6-0.57-2.06.11-4.16-.47-6.25-0.67-1.34-.12-2.69-0.14-4-0.16-1.57,0-3.14,0-4.71,0a3.27,3.27,0,0,0-1.06,0,16.57,16.57,0,0,1-7.82.42,6.57,6.57,0,0,0-1,0,26.76,26.76,0,0,0-3.39-.68,45.65,45.65,0,0,0-4.87,0c-2.57.08-5.15,0.37-7.72,0.32-5.08-.1-10.16-0.32-15.24-0.62-2.57-.15-5.12-0.57-7.67-0.87-1.35-.42-2.69-0.84-4,0.08q0,0.13,0,.25l0.2,0.35h0a4.37,4.37,0,0,0,3.89.27L72,58.84l0.26,0h0c3.82,1.45,7.88,1.19,11.84,1.65,2.15,0.25,4.31.35,6.47,0.51l3.58-.1c0.87,0,1.75,0,2.62-.09,1.93-.13,3.86-0.42,5.79-0.42,2.65,0,5.3.2,7.94,0.32l0.71,0.08,0.74,0.09,1.66,0.15,0.74,0.14,1.19,0.08q0,0.11,0,.21l0.46,0,1.43-.23,1.18-.08,1.24-.24h0.3l1.61-.21,0.69,0,4.15,0.16a22.13,22.13,0,0,1,3.81.14,35.78,35.78,0,0,0,9.15.6,20.29,20.29,0,0,1,2.34.15l5,0.47,0.71-.2,0.83,0,0.13,0.22,1-.2,1.19-.06,0.49-.12,0.72-.1,2.57,0.09,0.79,1.32-0.1,1.91-0.35,6.26a6.56,6.56,0,0,1,.18,1.15Q155,79,154.85,85.38a2.45,2.45,0,0,1-.35.81l-0.12.34c-0.07,1.86-.13,3.72-0.22,5.59,0,0.86-.15,1.72-0.23,2.58v0a4.13,4.13,0,0,1,.17.69q0.51,7.06,1,14.12c0.1,1.37.16,2.75,0.24,4.12l-0.24,2.56a0.08,0.08,0,0,1-.1.09h0a0.08,0.08,0,0,0,.1-0.09H155v0.1h-0.86l-0.18.46v0.41L154.6,118v0l0.49,1.86h0l-0.65.36-0.76.09a3.11,3.11,0,0,0-.57-0.07c-2.06.12-4.12,0.54-6.17-.13l-2.15-.23h-0.49a17.29,17.29,0,0,1-5.23-.94c-1.45-.52-3.21-0.17-4.83-0.21-2.61-.07-5.22-0.09-7.83-0.21-2.81-.13-5.61-0.4-8.42-0.52-3.36-.14-6.73-0.08-10.07-0.32-5.08-.37-10.14-0.94-15.21-1.43s-10.22-1-15.32-1.5q-6.23-.63-12.45-1.34c-1.4-.16-2.78-0.42-4.17-0.63l-1.44-.06-0.53.16-0.13,1v0.46l0.63,1.46a12.23,12.23,0,0,0,1.5.82,1.85,1.85,0,0,0,.84-0.13l-0.13-.69-0.18-.49-0.06-.48,0-.48v-0.73l0.74,0.2c0.36,0,.72,0,1.07,0,4.22,0.53,8.44,1.11,12.67,1.58,4.82,0.53,9.65,1,14.47,1.45,3.64,0.37,7.28.79,10.92,1.19l11.94,1.44a3.51,3.51,0,0,0,.6,0l6.83-.36a3.73,3.73,0,0,1,.6,0c3.16,0.35,6.31.82,9.48,1,2.29,0.14,4.6-.14,6.9-0.1a26.61,26.61,0,0,1,3.74.53c1.21,0.2,2.4.48,3.61,0.64,2.09,0.28,4.18.48,6.27,0.72a0.51,0.51,0,0,0,.12,0l5.32-.74,0.48,0,0.48,0V121l-0.33-.28,0.33,0.28,0.28,0-0.29-.94-0.69-1.48-0.07-.23V118.2a0.19,0.19,0,0,0,.07-0.19q0-.38,0-0.76l-0.3-1.73c-0.06-.24-0.16-0.49-0.2-0.73,0,0.24.14,0.49,0.2,0.73l-0.9-12-0.27-5V98.5l-0.21-2.18,0-.68,0-.73V94.45l0.05-.5,0.14-.23-0.07-1,0.23-3.85,0.39-1.21c0.18-3.52.37-7,.54-10.55,0.06-1.3,0-2.61.09-3.91,0.13-2.44.29-4.88,0.49-7.32a6.27,6.27,0,0,1,.52-1.49L157.61,63l3.82-2.12L161,67.77l-0.42,1.71h0a8.28,8.28,0,0,0-.32,1.36c-0.22,3.21-.41,6.43-0.62,9.65l-0.07.23-0.09.74c0.18,0.93.34,1.86,0.55,2.78a7.75,7.75,0,0,1,.37.91c0.1,1.32.15,2.65,0.22,4l0,1.78,0,1.59-0.09.5,0,0.7-0.35,10.09,0,0.71,0,2.41c0.06,2.67.15,5.34,0.16,8,0,1.42-.11,2.84-0.18,4.26l-0.48,0-0.51-.25,0.06,0.75a0.21,0.21,0,0,1,.13,0,0.21,0.21,0,0,0-.13,0v0.24l0,0.72a0.11,0.11,0,0,1,0,.16l0.2,0.8,0.19,0.28,0.09,0.92,0.42,2.15,1.94-1.08-0.55-2,0.1-5.71c3.45-1.69,6.93-3.32,9.54-6.48q0,1.51,0,3c-1.71,1.28-3.45,2.51-5.12,3.84-1.12.89-2.14,1.91-3.21,2.88l-0.83.72,0.39,0.43,1.36-1.09,7.42-5.14v2.49c-1.59,1.25-3.2,2.49-4.77,3.76-1,.85-2,1.75-3.05,2.63l0.9,1.55c0.76-.59,1.53-1.16,2.28-1.77-0.74.61-1.52,1.18-2.28,1.77l0,0.44a6.37,6.37,0,0,0,1.33-.63c1.59-1.26,3.15-2.57,4.72-3.86l-0.11-.11h0l0.11,0.11c0.77-.68,1.56-1.33,2.29-2a1.41,1.41,0,0,0,.37-0.95c-0.14-4.4-.32-8.79-0.46-13.19,0-.67.14-1.34,0.15-2,0-2.42,0-4.83.07-7.25,0-1.67.2-3.33,0.21-5a18.06,18.06,0,0,0-.31-2.47h0l0-.48-0.47-2.66L172,83.9l-0.35,0c0-.38,0-0.76,0-1.13,0,0.38,0,.76,0,1.13l0.35,0c-0.11-1.5-.27-3-0.32-4.5,0-1,.13-2.05.15-3.08,0.09-3.89.17-7.77,0.25-11.66q0-1.92,0-3.84V60.12a1.15,1.15,0,0,0-.09.17,1.15,1.15,0,0,1,.09-0.17l0-.26,0.29-.71,0-1.42-0.3-1.47h0l-0.33-1.92-0.18-1.14,0-.29a9.2,9.2,0,0,0-1.1-2,1.33,1.33,0,0,0-2,0,4.36,4.36,0,0,1-1.17.52l-0.48.1-2.63.17h-1.93l-0.25.24-0.48.05,0.21,0.36L161.59,52a0.15,0.15,0,0,1,0-.19l-0.46.08-1,.06-0.63-.16-0.56-.17-1.53-.27-0.59.07-2.8-.21h-0.73a1,1,0,0,1,0-.22l-1.14-.3-0.53.06-0.25-.17-1.44.05-1.2,0H145.7l-1.62.19h-0.72l-3.68-.31a13.87,13.87,0,0,0-6.12-1.3c-1.46,0-2.92-.13-4.37-0.2l-0.49,0a24.6,24.6,0,0,1-4.35.26c-4.66-.53-9.29-1.4-14-1.81s-9.28-1.05-14-.64a81.71,81.71,0,0,1-10-.26c-1.55-.06-3.1-0.14-4.65-0.21A1.3,1.3,0,0,1,80.34,45c-0.21-1.37-.4-2.74-0.6-4.11l0-.72c0.22-2.17.46-4.33,0.63-6.5a1.29,1.29,0,0,0-.49-1.07,2.52,2.52,0,0,0-1.86-.23,4.33,4.33,0,0,1-2.82.82,11.65,11.65,0,0,0-3.23.9l0,0,0,0-0.22.29a0.07,0.07,0,0,0-.06.09l-1.16.84-0.67.7-0.44.29-0.54.23-3.56,2.05L64.88,39h0l-0.53.45-6,4.81c-2.31,1.84-4.72,3.58-6.9,5.57s-3.83,4-5.74,6l-0.42.5,0,0,0,0.26-0.9.76L44,57.55l-1.16,1.39,0,0-2.17,2.35h0l-1.21,1.18h0L38.05,64l-2.92,3.16-1,1.15-0.28.39-0.47.61-0.18.19-0.58.67-0.53.56-0.6.7-0.71.73h0l-0.21.24,0,0-0.42.71H30.09v0.06l-1.27,1.56-0.45.7-0.13.27-4.42,5.52a0.85,0.85,0,0,0-.3.18q-2.32,3.6-4.63,7.22l-1.55,2.24-0.09.19-0.17.22v0l-0.36,1,0.4,0.44,0.08,0.07h0.11l0.8,0.61-0.27-.64,0.27,0.64,0,0.06L18.56,94l0.59,0.48,0.42-1.28ZM155.87,119.3a1.32,1.32,0,0,0-.13-0.55A1.32,1.32,0,0,1,155.87,119.3Zm-1.21-2.13a1,1,0,0,1,0,.19,1,1,0,0,0,0-.19,0.42,0.42,0,0,0-.17-0.3A0.42,0.42,0,0,1,154.65,117.17Zm0.95,1.37a1.35,1.35,0,0,0-.41-0.33A1.35,1.35,0,0,1,155.6,118.54Zm0.27,0.78a2.05,2.05,0,0,1,0,.32l0.32,0.14-0.32-.14A2.05,2.05,0,0,0,155.86,119.32ZM70.59,40.69A1.35,1.35,0,0,0,70.2,42,1.35,1.35,0,0,1,70.59,40.69Zm1.49-4.09V36.16h0l1.18,0,0.52-.22,0.42-.36,0.51-.15,0.69-.12,2.38,0.2h0a6.72,6.72,0,0,1-.67,1.18c-0.54.63-1.16,1.19-1.75,1.78l0,0-3.13,1.65h0A0.28,0.28,0,0,0,72.11,40l0-.94,0.14-.5Zm0.2,6.89-0.41-.59V42.84l0.53-.91,2.79-2.05,1-.78h0l1-.15h0l-0.23.78h0Zm4.86-4.59a3.83,3.83,0,0,1,.14-0.47A3.83,3.83,0,0,0,77.15,38.89Zm-3.88,5.52,3.87-3.28-3.87,3.28h0Zm4.29-.16h0ZM71.9,46l1.37-1.56,0.45,0.35-0.24.41-0.25.27-1.12,1.18L71.9,46l-1.5.2Zm0.67,6-0.31-1.5h0l-0.09-.29v0h0c-0.35-1.85.67-3,2.06-3.94,1-.74,2-1.66,3-2.5l0.37,0.55-0.49.44h0l-0.59.43c-1.74,1.32-3.59,2.57-3.75,5L73,50.35l4.84-4.81h0l0.55,0.88,0.19,0h0l-0.21.49L76.88,48.6l-1.69,1.68h0a18.1,18.1,0,0,0-1.33,1.6C73.42,52.53,73.05,52.75,72.57,52Zm6-2.85h0a0.65,0.65,0,0,1,0,.17A0.65,0.65,0,0,0,78.57,49.11Zm-0.25-.93a0.29,0.29,0,0,1,.25-0.23A0.29,0.29,0,0,0,78.32,48.17ZM93,55.08h0c0.64,0.09,1.28.17,1.91,0.3C94.24,55.25,93.6,55.18,93,55.08ZM162.84,80.3c1.57-.78,3-1.93,4.46-2.84,0.86-.52,1.82-0.9,2.73-1.34l-0.57,2.4a0.21,0.21,0,0,0-.18.08l-0.32.23c-2,1.14-4,2.27-6,3.43a5.61,5.61,0,0,0-.86.78,2.91,2.91,0,0,0,1.37.26,39.94,39.94,0,0,0,3.58-1.8,14.22,14.22,0,0,0,1.28-.87l0.44-.31,0.47-.28,0.83,0-0.06.71L170,81l-3,2h0L162,86l-0.36-.26h0l0-3h0C162,81.88,161.69,80.87,162.84,80.3ZM164.59,58h0c0.8-.5,1.59-1,2.41-1.48a1.21,1.21,0,0,1,.6.2,7.66,7.66,0,0,1-4.17,3.16l0.12-1.2Zm0.58-1.64a1.27,1.27,0,0,0,1-.64,2,2,0,0,0,.17-0.68,2,2,0,0,1-.17.68A1.27,1.27,0,0,1,165.17,56.4Zm6.16,21.28a1.48,1.48,0,0,1,0,.35A1.47,1.47,0,0,0,171.33,77.68Zm-1.11,1.65h0a1.48,1.48,0,0,0-.68.06A1.48,1.48,0,0,1,170.22,79.33Zm0-9.31v0a7.43,7.43,0,0,0,.86-0.24A7.53,7.53,0,0,1,170.25,70Zm-1.45-1L169,69.23h0L168.8,69h0Zm1.38-5.32-0.18.52-0.7.73c-1.91,1.29-3.51,3.08-5.9,3.77V66.88a19.66,19.66,0,0,0,3.09-1.51,38.41,38.41,0,0,0,3.26-2.91l0.31-.06-0.31.06C170.66,62.59,170.1,63.25,170.18,63.68Zm0-2.86c-2.05,1.85-4.09,3.71-6.81,4.74,0.07-.59.24-1.41,0.56-1.47,1.63-.33,2.6-1.56,3.8-2.48l2.41-1.78,0,1h0ZM163.91,70a3.12,3.12,0,0,0,1.77-.63c1.26-.9,2.45-1.91,3.66-2.88h0.6l-1.19,1.79-0.21.24L163.29,72h0l-0.74-.57C162.53,70.48,162.76,69.9,163.91,70Zm-1.08,2.86a1.06,1.06,0,0,1,.46-0.27c1.34,0.41,2.24-.36,3.11-1.19l0.23-.19,1-.7,0.72-.49h0l0.84-.6h0l0.88-.15v0.48c-0.15.76,0,1.87-.51,2.22-1.91,1.44-4,2.66-6,4l-0.24-.22,0.08,1.39c1.06-.48,2-0.84,2.81-1.29,1.29-.68,2.54-1.43,3.81-2.15l0.27-3.24h0L170,73.62l0,0.81a12,12,0,0,0-1.45.76q-2.55,1.79-5,3.64c-0.55.41-1.13,0.39-1.11-.28C162.38,76.63,162.63,74.72,162.83,72.81ZM162.1,93.53a13,13,0,0,0,2.42-.8c2.18-1.22,4.3-2.55,6.44-3.83a1.16,1.16,0,0,1-.43,1.8l-7.07,4.84-1.45.64-0.2-.77Zm9.92,17c0,0.81.08,1.62,0.12,2.43h0C172.11,112.12,172.08,111.31,172,110.5Zm0-2c0,0.21-.11.41-0.15,0.62h0C172,108.87,172,108.66,172.06,108.45Zm-1.52-10c-1.53,1.29-3.12,2.52-4.68,3.77l-0.44.34v0l-3.78,2.66h0l-0.09-.69,0-.73,0-2.19,0.44-4.74,1.93-.81h0l2.91-1.37,1.83-1.25-0.61.08,0.61-.08,0,0,1.21-.89a1.82,1.82,0,0,0-.51-0.06,0.76,0.76,0,0,0-.38.11,0.76,0.76,0,0,1,.38-0.11,1.83,1.83,0,0,1,.51.06l0.87-.46c0.37,1.88.23,3.38-1.72,4.24a22,22,0,0,0-3,1.92c-1.29.91-2.92,1.3-4,2.48a4.85,4.85,0,0,0,4.06-1.21L171,96.92l0.32,0.31A4.81,4.81,0,0,1,170.55,98.48Zm-10.82,23.26h0l-0.08.1Zm1.68-11.14,0.21-.46v0L161.4,110h0l0-2.84a1,1,0,0,0,0-.18,0.18,0.18,0,0,0-.06-0.07h0l0.14-1.18,3.43-1.64,2.15-1.7-0.2,0,0.2,0,3.75-2.06,0.28,0.24a4.84,4.84,0,0,1-.58,1.43,38.59,38.59,0,0,1-3.77,4,13.89,13.89,0,0,1-3.9,2.44,1.67,1.67,0,0,0-1.28,1.66v0l3.82-1.83,0.53-.4,1.91-1.66,0.95-1h0l1-.82,0.07-.09,0.35-.51h0.64a2.84,2.84,0,0,1-.18,1.43c-1.61,1.57-3.25,3.11-5,4.51-1.21,1-2.61,1.72-4.17,2.73Zm8.71-1.47a45.26,45.26,0,0,1-8.48,6.12c0.07-.77-0.42-1.7.66-2.17a25.93,25.93,0,0,0,8.13-5.6,3.94,3.94,0,0,1,.71-0.42l0.07,1.66A3.16,3.16,0,0,0,170.12,109.13Zm0.68-23.19,0.33,0.28-0.68,1.45-7.71,4.82a3,3,0,0,1-.65.22h0a29.58,29.58,0,0,0-.15-3.63c-0.18-1.11,0-1.91,1.09-2.34l1.22-.66h0l1.2-.75,1-.67h0l3.76-2.12,0.51,1.33a1.16,1.16,0,0,1-.24.5q-2.41,1.41-4.86,2.77c-1,.54-1.95,1.05-2.92,1.57C165.94,89.2,168.21,87.11,170.8,85.94Zm-2.45-26.11c-0.4.43-.83,0.82-1.25,1.23h0L163.94,63l-0.28-.21a2.62,2.62,0,0,1,.43-1.29,15,15,0,0,0,4.74-4.22l0.27-.47h0l0.92-.77,0.48,1.43C169.78,58.27,169.07,59.06,168.35,59.83ZM168.27,55a2.84,2.84,0,0,1-1.05-.19A2.84,2.84,0,0,0,168.27,55Zm-20.33-3.39-0.24,0Zm-63.23-4c4.28,0.13,8.55.26,12.83,0.43,4.67,0.19,9.35.29,14,.67,4.06,0.33,8.1,1,12.15,1.53l0.72,0.24,0.47,0,0.46,0,0.49-.28,0,0h0l0,0-0.49.28,3.51,0c1.06,0,2.11,0,3.17.06a6.14,6.14,0,0,0,1.64.19c2-.53,3.93,0,5.87.3h0a0.2,0.2,0,0,0,.19.12l0.54,0.26,3.11,0.67,1.21-.08,0.72,0h0.47l1.19-.13,1.94,0.09h0.7L150.1,52l0.94-.09h0.73l0.48,0,1.21,0.16,1.71,0.22,0.94,0.41L161,53.23l2.28,0.07,1.33-.12,0-.17v0.17l2,0.14,0.19,0.54h-0.21l-0.29.41L164,55.32l-0.44.35-0.36.54-1.11.19-2.39-.14-0.49-.08L158,56.07l-1-.17-0.34.13h0l-0.6-.09-1.2.09-0.72.13c-1.81.48-3.62,1.06-5.51,0.43l-0.48-.07-6.23-.5-0.49-.1-1.9.15-0.73.09-0.24.18h-1.18l-3.86-.5-4.07-.38-1,0-0.7.19-0.76,0-1.15.06-0.75-.14-0.73.12-0.49.15-1.65.06h-0.52l-1.88,0-0.49-.09-3.11-.05-0.51-.06-1.19-.22-1.22-.08-0.7.08-9.85-1.08h-0.48l-3.38.15-1,0-1.66-.1-1,.06-1.17,0-0.53.05-0.66,0,0,0.55h0l-1-.52H91.53a0.38,0.38,0,0,0,0-.2l-0.47,0-0.48,0-1.45,0a0.16,0.16,0,0,0-.21,0l-1.24-.1-1,0H77c-0.43,0-.87,0-1.3.05L75,54.06a0.16,0.16,0,0,0,0-.14l1.44-1.37,2.12-2.7h0l0.22-.06c0.42-.4.82-0.81,1.27-1.18a3.3,3.3,0,0,1,1.32-.9A20,20,0,0,1,84.71,47.61Zm-3.84-.91-1.57-.77L79,43.79l-0.42.62L79,43.79,79,43.58,79,43.79l0.27,2.14ZM69.68,38h0l-0.45-1.39Zm-11.95,8-0.2.09h0ZM44.91,59.8h0L45,59.91Zm0-.81c0-.27,0-0.54,0-0.81C44.95,58.45,44.95,58.72,44.94,59Zm-0.46-.31,0.44,1.13h0l-0.44-1.13h0ZM19,91.42a1.24,1.24,0,0,0,0,.28A1.24,1.24,0,0,1,19,91.42Z" transform="translate(-13.76 -32.29)"/><path class="d" d="M81.28,175.72c-0.49-1.18-1.05-2.33-1.58-3.5-0.42-1.49-.75-3-1.3-4.44a2.21,2.21,0,0,0-1.45-1.1c-0.76-.16-0.92.61-0.77,1.15,0.46,1.58,1,3.14,1.55,4.69,0.37,1,.78,2.08,1.17,3.13l-0.78.52a1,1,0,0,0,.24.33c1,0.34,1.92,1.09,3,.24A3.25,3.25,0,0,0,81.28,175.72Z" transform="translate(-13.76 -32.29)"/><path class="d" d="M76.13,172.92l-1.86-1.38-0.38.22,0.55,1.72,0.25,1.23-0.86.18-0.06.36c1,0.21,2,.44,2.94.57a1.49,1.49,0,0,0,.32-1A13.32,13.32,0,0,0,76.13,172.92Z" transform="translate(-13.76 -32.29)"/><path class="d" d="M63.72,174.27c-1-.09-2-0.2-3-0.28-0.77-.06-1.54-0.09-2.32-0.13h-2c0.88,1,1.85,1.25,4.59,1.25l0.76,0.24a0.18,0.18,0,0,1,0,.22l0.47-.18c0.64,0,1.29,0,1.93-.12a1.7,1.7,0,0,0,.18-0.65l-0.66-.26Z" transform="translate(-13.76 -32.29)"/><path class="d" d="M22.87,91.27l0.36,0.25,0.37,0.33L25.06,93,24.9,91.44l-0.12-1.37a24,24,0,0,0,1.89-1.9c1.28-1.6,2.44-3.29,3.73-4.88,1.84-2.27,3.72-4.52,5.65-6.72,1.36-1.54,3-2.85,4.21-4.5,2.12-2.9,5.3-4.37,8-6.43,1.58-2.29,3.88-3.6,6.33-4.75a5.6,5.6,0,0,0,1.56-1.61q2-2.39,4-4.82c0.82-1,1.58-2.08,2.37-3.12A6.08,6.08,0,0,1,65.14,48l0.22-.17,0.19-.18,0.31-.09L66,47.47l-0.12.06L66,49.09l0.36,4.55,0.26,1.07-0.05,0,0.05,0.06L67.07,57l1.22,0.12-0.54-3-0.22-1,0-.48v-5l0-.73a7,7,0,0,0-.12-1.39c-0.11-.38-0.33-0.89-0.86-0.32l-0.71,0-0.49-.13-0.7.41-0.56.36h0a12,12,0,0,0-3.28,3.78A65.21,65.21,0,0,1,56.48,55C55.6,56.17,54.85,57.41,54,58.6a1.76,1.76,0,0,1-.53.54c-1.63.92-3.33,1.75-4.91,2.76-0.85.54-1.45,1.46-2.26,2.09-1.51,1.16-3.15,2.16-4.62,3.37a26.7,26.7,0,0,0-2.57,2.75c-0.35.38-.68,0.77-1,1.14C36.32,73.15,34.52,75,32.77,77q-2.39,2.65-4.67,5.38c-0.5.6-.76,1.39-1.25,2-0.85,1-1.8,1.94-2.71,2.9l-0.26.06-0.26.42-0.19.41-0.08.3-0.2,1h0l-0.34,1.83Z" transform="translate(-13.76 -32.29)"/><path class="d" d="M104.6,139.48c0-2.3-2.24-4.52-4.25-4.18q0,0.82,0,1.63a1,1,0,0,1,.4-0.26,6,6,0,0,0,1.19.74,1.09,1.09,0,0,1,.88,1.31c0,1.31.11,2.62,0.19,3.93,0.24,3.74.47,7.48,0.75,11.22,0.08,1.06.43,2.1,0.5,3.16a8,8,0,0,1-.16,3.47c-0.6,1.38-1.83,1.32-3.53.2h0c-0.07-2.37-.09-4.74-0.21-7.11-0.13-2.53-.37-5.05-0.51-7.58-0.12-2.07-.17-4.14-0.24-6.21l0.75-2.86q0-.82,0-1.63A10.7,10.7,0,0,0,99,136a1.35,1.35,0,0,0-.62.77c-0.12,1-.13,2-0.17,3.05a11.69,11.69,0,0,0-.09,1.41c0.22,4.08.18,8.18,1,12.23a19,19,0,0,1,.08,5.11,3.86,3.86,0,0,0,1,2.92h0l0.82,0.91,1.52,1c1,0.32,2-.2,2.75-1.48h0l0.18-1c-0.16-3.16-.36-6.32-0.47-9.48Q104.71,145.46,104.6,139.48Z" transform="translate(-13.76 -32.29)"/><path class="d" d="M115.88,140.28c0.06-2-3-4.65-5.17-4.45a8.65,8.65,0,0,1-1.17-.51,1.28,1.28,0,0,0-2,.91c0,0.79,0,1.59,0,2.39,0.19,2,.41,3.94.57,5.92,0.09,1.14,0,2.29.13,3.43,0.24,2.18.56,4.34,0.85,6.51l0.82-1.94c-0.32-3.29-.66-6.59-0.95-9.89-0.1-1.13,0-2.28,0-3.42a10.09,10.09,0,0,0-.15-1.13l0.24-1,0.35-.13,0.52,0.1h0l0.54,0.07,1.68,0a3.6,3.6,0,0,1,2.05,3.49c0.13,3.49.75,7,1.1,10.44,0.23,2.25.21,4.53,0.53,6.77a8.72,8.72,0,0,1-.35,3.8c-0.8.8-1.32,2-2.71,2a1.27,1.27,0,0,0-.13.41l1.14,1.42,2.52-3.55,0.15-.55,0.19-.43,0.07-.48,0.18-.48c-0.33-5.26-.67-10.51-1-15.77C115.84,142.89,115.84,141.58,115.88,140.28Z" transform="translate(-13.76 -32.29)"/><path class="d" d="M161.43,127.12l2.8-2,0-.44-0.9-1.55-1.28.68-1.94,1.08h0l-0.53.41-1.37.38-6,.47h-6.05l-3.35.09-0.46-.09c-0.66-1-.71-1-1.38-0.29a0.24,0.24,0,0,0-.09.18,1.81,1.81,0,0,0,.06,1.16,2.67,2.67,0,0,0,.39.74,2.67,2.67,0,0,1-.39-0.74,1.81,1.81,0,0,1-.06-1.16l-1.66.19-1.2-.1-0.86-.38h0a9,9,0,0,0-5.48-.66,2.32,2.32,0,0,0-.86.7h0l-4.29-.37-0.71,0c-3.61-.3-7.23-0.54-10.84-0.91-2.57-.26-5.12-0.67-7.68-1-0.91-.13-1.81-0.34-2.72-0.42-4.12-.34-8.25-0.65-12.38-1L91.75,122,91,122l-1.1-.18-0.59,0-0.28.1,0.28-.1a7,7,0,0,0-1.23-.27c-1.51-.06-3,0-4.54-0.13-3-.28-5.93-0.68-8.89-1L73.91,120l-0.63-.12-0.94.37c-0.62-.11-1.23-0.26-1.85-0.31-1.37-.1-2.74-0.19-4.11-0.18a4.82,4.82,0,0,0-1.41.46,0.08,0.08,0,0,0-.11.07l-0.92.55-0.28.19a2.8,2.8,0,0,0-1,1.08,24.28,24.28,0,0,0,.27,3.22l0.2,1,0.23,2.9,0.23,3.83,0.11,4.39a0.12,0.12,0,0,1-.06.17l-0.05,1.21-0.4.2-3.11-3.83L59.85,135l-3.43-4.06c-1.77-1.85-3.5-3.74-5.33-5.54-2.12-2.07-4.37-4-6.47-6.1-1.54-1.54-2.93-3.24-4.38-4.86l-4.67-5.23-0.21-.36-0.48-.45-0.28-.26c-0.25-.3-0.48-0.63-0.75-0.91-2.57-2.64-5.11-5.3-7.73-7.89-2.14-2.11-4.37-4.13-6.55-6.18l-0.42,1.28c1.22,1.17,2.4,2.39,3.68,3.49a93.17,93.17,0,0,1,10.91,11.24c2.46,3,5.12,5.77,7.82,8.52s5.47,5.18,8.15,7.82c1.69,1.67,3.26,3.46,4.9,5.18,0.29,0.31.62,0.59,0.92,0.89l0.21,0.3L56,132.2l1,1.12,0.19,0.2L57.67,134l0.75,0.85,0.2,0.42,0,0v0l1.56,1.89,0.16,0.26,0.16,0.2,0.17,0.23c1.16,1.75,2,3.78,4.61,4.61L64.8,141c0.06-.92,1.82.31,1.51-1.16l0.22-.65,1-1.45h0l0.24-.26,0.64-.73,0-.28,0.06-.06-0.06.06,0,0.28,0.52-.26,0.22-.13,1.52-1a0.13,0.13,0,0,0,.17-0.11l0.87-.67,0.8-.76a3.23,3.23,0,0,0,2.37-3.46c0-.82,0-1.65,0-2.48l-0.71.24c0-.09,0-0.19,0-0.29,0,0.09,0,.2,0,0.29l0.71-.24v-5.74l4.5,0.45,7.89,0.79a2.6,2.6,0,0,1,.56.19c-0.07.81-.18,1.62-0.18,2.43a6.45,6.45,0,0,0,.32,1.4l0.18,0.33v0.08l0.07,0,1.83,2.62,0.82-.65c-0.49-.88-1.9-1.27-1.4-2.66a3.8,3.8,0,0,0-.41-3.62l1-.17-0.59-.51,0.59,0.51h0.42c0.75,0.3,1.5.62,2.26,0.89a3.12,3.12,0,0,0,.94.13,34.74,34.74,0,0,1,3.63.1c2.54,0.34,5.06.82,7.59,1.24a0.08,0.08,0,0,0,.11.06,1.06,1.06,0,0,0,.33.29c1.88-.84,3.65-0.11,5.44.34a2.16,2.16,0,0,0,.36,0l1,0.48,0.95,0.49h0l0.48,0.31h0.27c2.13-1.29,4.31-.06,6.47-0.16l0.53,0.19c1.19,1,2.65.69,4,.84l0.2,0.19,1-.42,1.21,0.14,0.34,0.17c1,0.56,2,1.4,3.25.43l0.47-.08,0.5-.14h0.94l0.5,0.14,0.47,0.08c0.49,0,1,0,1.49,0-0.5,0-1,0-1.49,0,0.49,0.14,1,.3,1.48.41,1.56,0.33,3,.79,3.52,2.54h0l0.58,0.92c-0.84.47-1,.08-1.13-0.52-0.33-1.38-1.07-2-2-1.84l0.22,2.06c-0.05.83-.7,0.79-1.19,0.65a2.5,2.5,0,0,1-.79-0.84c-0.36-.91-0.67-1.85-1.85-2.2l-0.05,1a1.54,1.54,0,0,1,.07.77,2.07,2.07,0,0,1-.94,1,0.79,0.79,0,0,1-.93-1,2.74,2.74,0,0,0-.33-1.08c-0.48-.19-0.73-1.12-1.47-0.45v1.67c0,0.67-.32.61-0.69,0.21a12.22,12.22,0,0,1-2.34-1.2c-0.62-.5-1-1.07-1.38.12a0.78,0.78,0,0,1-.58.3c-0.89.08-1.74,0.25-2.41-.73s-0.87-.81-1.34.29a2.52,2.52,0,0,1-.6.62l-1,0,0,0-0.22-.49-0.48-.48-0.42-.35a1.78,1.78,0,0,0-.62.61,1,1,0,0,1-1.26.9c-1.46-.12-2.92-0.18-4.37-0.27l-0.53,0-0.43,0-0.54.08-0.42,0-0.53,0-1.42-.11-0.72-.09-0.53-.05h-4.28l-1.15.06-2.93,0L99,132.6h0l-1.22-1.31H96.82l-0.53.06-1.89-.6c-1.29.65-2.33,0.34-3.48-1l-0.82.65,0.73,0.78,0.2,0.22c0.64,0.71,1.05,1.7,2.21,1.83a1.24,1.24,0,0,1,.27.87A49.74,49.74,0,0,0,93,141c0.36,5.12-.77,10.09-1.08,15.13-0.21,3.42-.27,6.86-0.41,10.28-0.07,1.66-.07,1.65-1.71,1.67a2.36,2.36,0,0,0-.45.09l-0.95.19-0.49.08-0.48.12c-1.74.81-3.53,1.53-5.18,2.49a4.08,4.08,0,0,0-1,1.94,0.9,0.9,0,0,0,.1.78c1.48,1.63,2.83,3.51,5,4.25a18.05,18.05,0,0,0,4,.44c0.94,0.1,1.87.2,2.8,0.31,2.2,0.27,4.39.62,6.59,0.82,3,0.28,5.93.46,8.9,0.67,2,0.14,4,.68,5.95-0.35l2.87,0.13,2.4-.39h0l-2.4.39,7,0c0.31,0,.62.12,0.92,0.11,1.36-.06,2.71-0.15,4.07-0.23l0.18-.2,2.93,0.29,0.55,0.22,0.68-.06,0.21-.23c1.11-.8,2.23.07,3.34,0l0.46,0,0.52,0,0.44,0.06,0.5,0,0.46-.07,7.45,0.11-2.6-.26c0-.8-0.52-0.42-0.87-0.39,0.35,0,.84-0.41.87,0.39l2.6,0.26,1,0c1.33,0.58,1.67.4,1.88-1q0.07-.47.13-0.94c0.11-.81.59-1.87,0.24-2.36a7.7,7.7,0,0,0-2.84-2.58c-2-1-4.25-1.6-6.4-2.37l-0.48-.07c-2.31-.44-2.31-0.44-2.59-3a0.63,0.63,0,0,0,0-.11l0-1.25-0.4-4.12-0.15-3.09-0.11-.46,0-1,0.08-.46-0.39-1.7-0.18-1.06h0.05l-0.06,0,0-.08L136.39,152l-0.07-.49-0.17-.44-0.06-.25v-0.49l-0.16-.83,0-1.09c-0.16-1.95-.42-3.89-0.45-5.84,0-2.3.13-4.61,0.21-6.91l0.49-.47h0.49l0.06,0.07h0.09a4.92,4.92,0,0,0,1,.24,8.25,8.25,0,0,0,1.18-.11c3.64-.36,4-0.73,4-4.34,0-1,.11-2,0.17-2.9,2.73,0,5.34.05,7.95,0,1.54,0,3.07-.32,4.61-0.44s2.92-.13,4.37-0.24A8.6,8.6,0,0,0,161.43,127.12Zm-92.52-5.51c0.34,0.08.68,0.13,1,.19l-2.06,1.11-0.21-.52h0A0.89,0.89,0,0,1,68.92,121.61Zm-4.26,4.23a2.23,2.23,0,0,1,0,.25A2.23,2.23,0,0,0,64.66,125.84Zm0.57-3.91L66.31,122l0.25-.14-0.25.14Zm-0.58,3.24h0l-0.87,0ZM66.59,138a0.45,0.45,0,0,1,.19-0.28A0.45,0.45,0,0,0,66.59,138Zm3.13-2.47,0.2-.08,0-.21,0,0.21Zm2.1-4.22c-1.24,1.11-2.6,2.1-3.91,3.13l0.39,0-0.39,0-0.86.4c-0.87,0-.83-0.67-0.92-1.2s-0.1-1.33-.14-2l0.51-.73c-1.38-1.61-.87-3.47-0.67-5.29L72.48,123l0.32,0.3a6.09,6.09,0,0,1-1,1.52c-0.93.79-2,1.39-3,2.15A18.68,18.68,0,0,0,66.62,129a2.09,2.09,0,0,0-.09,1.05,3.65,3.65,0,0,0,.92-0.34c1.72-1.25,3.43-2.53,5.14-3.81l0.24,0.18a2.88,2.88,0,0,1-.45.95c-1.08,1-2.23,1.86-3.3,2.84-0.82.75-1.54,1.61-2.31,2.42l-0.53.95,0.27,0.23,0.79-.64h0l3.35-2.7,0.8,0.15,0.24-.74h0v0l0.22-.23h0a0.13,0.13,0,0,0,.16-0.07l0.55,0.47A5.1,5.1,0,0,1,71.82,131.32Zm50.63,2a0.43,0.43,0,0,0-.15,0A0.43,0.43,0,0,1,122.44,133.34Zm-21.22-.51c-0.75-.06-1.51-0.17-2.26-0.23h0C99.72,132.67,100.47,132.77,101.22,132.83Zm-2-1.05a0.57,0.57,0,0,0-.09.06A0.57,0.57,0,0,1,99.17,131.78Zm0.68-.16a1.35,1.35,0,0,0-.47,0A1.35,1.35,0,0,1,99.85,131.62Zm-0.89.53h0Zm22.32,47h0ZM147.93,177a2.11,2.11,0,0,1,.28,1,2.11,2.11,0,0,0-.28-1l-0.27.7a0.34,0.34,0,0,0-.19,0l0,0-0.2-.73-0.33-1.06h-0.49l-0.28,2.72-0.22.15-2.57-4.21-0.22-.22,0,0c-0.51-.52-0.45-1.72-1.67-1.37l1.83,3h0a6,6,0,0,1,.58,1.64,3.85,3.85,0,0,1-.5,1.39,1.1,1.1,0,0,1-1.31-1.13,3.84,3.84,0,0,0-.5-1.57c-0.47-.77-1-1.63-2.06-1.58l1.44,3.76-0.06.3,0.22-.18-0.22.18-2.08.08h0l-2.12-2.18-0.27.2,0.21,1.12c-2.19,1.54-3.27-.65-5-1.64a5.92,5.92,0,0,1,.45,1.36,0.94,0.94,0,0,1-.37.69c-1.06-.06-2.37.59-3-1a4.2,4.2,0,0,0-1.12-.91c0.42,1.48,0,2.34-1.13,2.17a7.78,7.78,0,0,1-2.33-1.33l-0.55.84-0.39.37-1.89.29-1,0-0.7,0-0.48,0-0.5.05-0.46-.08-0.49,0H114.8a7.34,7.34,0,0,0-1.77-.09,17.12,17.12,0,0,1-5.66.3c-2.86-.39-5.77-0.43-8.65-0.71-3.73-.36-7.45-0.79-11.16-1.24A2.65,2.65,0,0,1,85,175.16a1.83,1.83,0,0,0-.58-0.89c-1.09-.82-0.59-1.59.17-2.09,1.21-.8,2.54-1.41,3.82-2.1l0.7-.1,0.73-.22,0.7-.15,0.75,0a2.86,2.86,0,0,0,2.4.23l0.51,0c0.48,0.32.8,0.24,0.9-.37,0.77,0,1.54.08,2.31,0a19.51,19.51,0,0,0,2.08-.29,3,3,0,0,1,.44-0.17c2.16,0.08,4.31.17,6.47,0.27,1,0,1.93.14,2.9,0.21l0.5,0a10,10,0,0,0,3.25,0,9.77,9.77,0,0,1,5.52-.07c1,0.21,2.06.21,3.06,0.42,2.67,0.57,5.32,1.2,8,1.8a11.3,11.3,0,0,0,1.72.31c1.54,0.1,3.09.15,4.63,0.21l0.71,0,0.73,0.09h0l1-.09,3.12,0,0.49-.09,0.47,0.12c0.87,0.35,1.73.74,2.62,1C147.3,174,148.12,175.06,147.93,177Zm-11.38-12.94a2.12,2.12,0,0,1,0,1A2.13,2.13,0,0,0,136.54,164.05Zm0.05,2.87c0-.56.24-0.66,0.48-0.63-0.24,0-.43.08-0.48,0.63h0Zm0.38-1.51,0.2-.09-0.2.09h0Zm0.52,1-0.15-.05Zm-1.83-9.09h0l0,0.71h0l0,0.74,0.19,2.12,0,1,0.15,0.85,0.09,0.34,0.06,2.6h0l0,0.54,0.36,2.47h0v0.52l-1.15,1.29,0.13,0.45c-2.49-.32-5-0.6-7.46-1-1.16-.18-2.29-0.57-3.44-0.86l-0.42-.21-5.59-.62-1.36-.34c-1.71-.08-3.4-0.82-5.12-0.1l-0.23,0-1.44.5-1.2-.1H108.8l-1.92.09-0.72-.21-0.24-.08a18.44,18.44,0,0,0-6.59-.36c-0.94.1-1.87,0.31-2.8,0.47l-2.19-.46-1.11.07v-3.74l0-1.85v-1.07h0l0.59-4.8,0-.7,0.23-3.36,0.2-.55,0-.43,0.09,0,0-.66h0l0.19-.09-0.07-8.08c-0.06,1.12-.14,2.23-0.18,3.35,0-1.12.12-2.23,0.18-3.35v-0.6l0.07-1.38,0-.48,0.22-1v-0.24c0.24-1.49.55-3,.68-4.48a1,1,0,0,1,1.22-1c3.89,0.09,7.79.14,11.68,0.2a1.86,1.86,0,0,0,.35-0.06l1.43,0,3.61,0.17h0.44l4.34,0.29,1.18-.12,0.72-.15,1.19,0.17,1.25-.22h0.44l0.53-.05,1.71,1.58,0.91-1.41,2.89,0.69-1.18-.59,1.18,0.59,0.26,0.26a2,2,0,0,0,.52.38c1.21-.86,2.35.07,3.51,0.12h0l0.07,2.86h0c0.11,2.78.13,5.56,0.37,8.32,0.18,2,.65,4.06,1,6.09a0.22,0.22,0,0,0,.06.22h0l0.15,0.84Zm4.78-25.57a2.83,2.83,0,0,0,0,.47A2.83,2.83,0,0,1,140.45,131.75Zm2-1.09-0.07-1.58,0.07,1.58c0,0.36,0,.73,0,1.09C142.42,131.39,142.43,131,142.43,130.66Zm-1.37-1.54L141,129Zm-0.5-.35a2.84,2.84,0,0,1-.38-0.3A2.85,2.85,0,0,0,140.57,128.77Zm0.66,5.29-0.82-.11,0.82,0.11c0.81,0.15,1.14.17,1.24-.17C142.37,134.23,142,134.21,141.23,134.06Z" transform="translate(-13.76 -32.29)"/><path class="d" d="M52.11,172.72a10.57,10.57,0,0,0-1.43-.72l-3.54-1.37-0.24.46,1.63,1.24-4.33.45-1.64.15c-0.6,0-1.2.08-1.8,0.07s-1.16-.1-1.72-0.15a1.74,1.74,0,0,0,2,2.33,1.19,1.19,0,0,0,.25-0.55l-0.06-.49,0.84,0.08,1.79,0,0.35-.17,0.27-.18,0.95,0,5.22-.36,1.17-.05,0.44,0,0.54,0.05A3.75,3.75,0,0,0,52.11,172.72Z" transform="translate(-13.76 -32.29)"/><path class="d" d="M68.74,172.69v1.95l-1.31.82a7.56,7.56,0,0,0,2.22.55,5.33,5.33,0,0,0,1.7-.88A2.84,2.84,0,0,0,68.74,172.69Z" transform="translate(-13.76 -32.29)"/><path class="d" d="M171.67,53.2l0.18,1.14,0.05-.69Z" transform="translate(-13.76 -32.29)"/><path class="d" d="M45.22,56.33L45,56.54l-0.31.32L44.62,57l-0.34.36,0.9-.76Z" transform="translate(-13.76 -32.29)"/><path class="d" d="M167.14,165.94h-1.69l1.66,0.53Z" transform="translate(-13.76 -32.29)"/><path class="d" d="M90,121.84h0v-0.08l0,0.08h0Z" transform="translate(-13.76 -32.29)"/><polygon class="d" points="14.42 64.8 14.48 64.71 14.48 64.71 14.42 64.8"/><path class="d" d="M25.28,93.52l1.28,1.37,0.18,0.24L27,95.62l0.19,0.26,1,1.12h0l1.89,2.23,0.69,0.9,0.25,0.29,1,1.06,1,0.84a0.13,0.13,0,0,1,.16.09l0.42,0.35,2,2.08L36,105.21l0.4,0.37,0.82,1a0.11,0.11,0,0,1,.13.14l0.32,0.36,0.6,0.77,0.42,0.46,1.5,1.72,0.32,0.41,0.91,0.86,0.22,0.36,0.23,0.24h0l0.32,0.45,0.9,0.91,0.31,0.28L45,115.22l0.81,1h0L46,116.49l0,0,0.25,0.28v0l1.08,1,1.1,0.86,0.95,1.1,0.48,0.6L50,120.58h0L50.36,121l1.81,2.21,0.21,0.22,0.29,0.43,0.27,0.26v0l0.25,0.25h0l0.25,0.27,2.32,2.24,0.3,0.6L57.19,129l0,0,0.26,0.19h0l0.69,0.52,0.24,0.23,0.25,0.24,0.47,0.47,0.21,0.12,0.74-.08,0.33,0.08,0.07,0,0.32,0.37c0.82,0,.85-0.63.78-1.2-0.12-.94-0.4-1.87-0.47-2.81s0-2.06,0-3.09a17.29,17.29,0,0,0-.13-2.23c-0.17-1.26-.43-2.51-0.63-3.77a1.89,1.89,0,0,0-2-1.79,22.78,22.78,0,0,0,.24,2.41c0.34,1.68.84,3.34,0.36,5.08v2l0.35,0.78h0l0,0.24,0,2.28a1.85,1.85,0,0,0,.29-1.13,1.85,1.85,0,0,1-.29,1.13,7.15,7.15,0,0,0-3.33-3c-0.53-.58-1.07-1.16-1.58-1.76-1.83-2.15-3.62-4.32-5.48-6.44-0.68-.77-1.54-1.37-2.26-2.11a40.21,40.21,0,0,1-3.36-3.7c-1.4-1.86-3.5-3.15-4.4-5.41L37.5,105c-0.35-.32-0.71-0.62-1-1-2-2.05-4.1-4.06-6-6.19s-3.68-4.3-5.52-6.46L25.06,93l0.17,0.49Z" transform="translate(-13.76 -32.29)"/><polygon class="d" points="27.86 79.42 27.86 79.41 27.86 79.41 27.86 79.42"/><path class="d" d="M110,161.41a2.18,2.18,0,0,0,.72.7,1.5,1.5,0,0,0,.32-0.71c-0.83-1.89-.37-3.88-0.47-5.82a5.92,5.92,0,0,0-.19-0.91L110,152.54l-0.82,1.94,0.13,0.44C108.74,157.17,109.47,159.28,110,161.41Z" transform="translate(-13.76 -32.29)"/><path class="d" d="M128.15,154v-0.38L127.77,152c-0.18-2.57-.41-5.13-0.52-7.7a29.28,29.28,0,0,1,.19-4.25c0.16-1.5.16-2.91-1-4.1l-0.81,1.61a11.55,11.55,0,0,0-2.31-1.56c-1.32-.49-2,0.58-2.58,1.51l0.17,0.26-0.17-.26a5.32,5.32,0,0,0-1.3,4c0,2.34.24,4.68,0.4,7s0.3,4.95.52,7.42a10.07,10.07,0,0,0,.62,2l0.34,1.89a5.53,5.53,0,0,0-.31,1.73,4.79,4.79,0,0,0,.79,1.45,3.61,3.61,0,0,0,3.25,2,1.27,1.27,0,0,0,1.56-1c0.25-1,1.06-1.75,1.33-2.71a15.85,15.85,0,0,0,.28-3.09l0-.71Zm-2.82,9.15a1.09,1.09,0,0,1-.87.37c-1.56,0-2-.6-2-2.64l-0.94-4.08a32.84,32.84,0,0,0,.2-3.62c-0.14-2.77-.31-5.55-0.63-8.3-0.27-2.3-.34-4.47,1.53-6.22a0.23,0.23,0,0,0,0-.12,1.57,1.57,0,0,1-.89,0,1.57,1.57,0,0,0,.89,0c0.83-1.37,1.65-.29,2.47,0l0.49,0.68,0.13,0.26h0c0.14,2.78.2,5.57,0.44,8.34,0.17,2,.58,3.89.88,5.84l-0.17,2.38,0.25,2.22h0C126.53,159.95,126,161.58,125.33,163.18Z" transform="translate(-13.76 -32.29)"/><path class="d" d="M92,54.55l1,0.52,0-.55-1-.18A0.36,0.36,0,0,0,92,54.55Z" transform="translate(-13.76 -32.29)"/><path class="d" d="M78.6,46.45l-0.19,0,0,0.51Z" transform="translate(-13.76 -32.29)"/></svg>