<svg xmlns="http://www.w3.org/2000/svg" viewBox="0 0 263.33 142.67"><defs><style>.a{fill:#010101;}.b{fill:#d9d9d9;}.c{fill:#a2a2a2;}.d{fill:#e1e1e1;}.e{fill:#d8d8d8;}.f{fill:#e6e6e6;}</style></defs><title>frame</title><path class="a" d="M97.12,140.15l-5.72-.21c-4.7-.19-9.4-0.33-14.09-0.59-3.29-.19-6.58-0.87-9.85-0.75-4.44.16-8.87,0.88-13.3,1.36-1.55-.08-3.1-0.27-4.64-0.2s-3.36.4-5,.62c-3.53,0-7.12.46-10.58,0a34,34,0,0,0-7.33.07,5.47,5.47,0,0,1-2.36-.26c-1.74-.7-3.41-0.3-5.16-0.09a46.22,46.22,0,0,1-6.11.07c-1.59,0-3.19-.07-4.78-0.22a17.72,17.72,0,0,1-3.24-.65,1.45,1.45,0,0,1-1.19-1.62c0.21-4.59,0-9.23.59-13.75,0.74-5.37-.23-10.58-0.46-15.86-0.11-2.55.06-5.11,0.12-7.66C4.07,96.23,4.2,92.1,4.24,88c0.07-6.38.15-12.76,0.1-19.14,0-2.18-.48-4.35-0.62-6.54-0.25-4-.48-7.94-0.56-11.92,0-2,.28-4,0.43-6,0.25-3.49.49-7,.73-10.47,0.1-1.46.31-2.92,0.3-4.37,0-4.37-.22-8.75-0.16-13.12a54.64,54.64,0,0,1,.73-5.8c0.14-1.18.2-2.38,0.33-3.56A1.92,1.92,0,0,1,7.76,5.37c2.79,0.52,5.56,1.19,8.38,1.57A41.7,41.7,0,0,0,22,7.15c4.35,0,8.7-.14,13-0.14,2.22,0,4.44.21,6.66,0.21,1.1,0,2.2-.39,3.3-0.37a48.11,48.11,0,0,1,6.43.4C56.68,8,61.85,7.48,67,6.59a46.09,46.09,0,0,1,13.22-.08c3.18,0.36,6.43.08,9.65,0.2,3.9,0.14,7.79.47,11.69,0.6a131.3,131.3,0,0,0,17.53-.17c4.85-.49,9.76-0.4,14.64-0.66,3.57-.19,7.13-0.56,10.7-0.81,1.43-.1,2.87-0.1,4.31-0.11,4.1,0,8.19,0,12.29,0,5.86-.06,11.73-0.1,17.59-0.27,2.62-.08,5.23-0.52,7.85-0.66,1.9-.1,3.82.07,5.73,0,3.14-.05,6.28-0.19,9.43-0.26C207.75,4.24,213.86,4.17,220,4c6.5-.18,13-0.49,19.49-0.66,4.1-.11,8.21-0.11,12.31-0.08,1.43,0,2.86.3,4.29,0.36,0.7,0,1.42-.29,2.11-0.23a5.12,5.12,0,0,1,2,.64A2.92,2.92,0,0,1,260,5.24c-0.47,2.57-1.14,5.12-1.38,7.71-0.32,3.4-.35,6.84-0.42,10.26-0.06,2.79.1,5.59,0,8.38-0.08,2.34-.41,4.68-0.61,7a21.3,21.3,0,0,0-.07,2.15c0.05,3.21.14,6.43,0.19,9.64,0.06,4.63-.82,9.23.12,13.92,0.49,2.46-.28,5.16-0.28,7.75,0,2.39.39,4.77,0.37,7.16,0,3.67-.32,7.34-0.42,11-0.08,2.75.16,5.52-.1,8.24-0.37,3.92-1.1,7.8-1.6,11.71a7.17,7.17,0,0,0,.29,2.22,14.13,14.13,0,0,1,.56,2.29q0.1,4.35,0,8.7a10.39,10.39,0,0,1-.52,2.44,25.88,25.88,0,0,0-.35,10.69c0.28,1.94,0,2.19-2,2.08-6.48-.37-13-0.82-19.44-0.89-5.65-.06-11.3.45-17,0.54-3.43.05-6.86-.28-10.29-0.3-3.07,0-6.13.13-9.2,0.29-3.9.2-7.8,0.42-11.7,0.74-3.58.29-7.13,0.85-10.71,1-5,.25-9.94.51-14.9,0.31-5.61-.22-11.2-1.19-16.82-1.37-5.34-.17-10.7.29-16,0.44-3.46.1-6.93,0.16-10.4,0.24-1.49-.12-3-0.33-4.48-0.33-2.62,0-5.27.39-7.85,0.1A19.1,19.1,0,0,0,97.12,140.15ZM5.39,38.33c-0.27,4.09-.8,8.18-0.75,12.27,0.09,6.6.62,13.2,0.83,19.8,0.11,3.35-.07,6.7-0.12,10.06q-0.08,5.91-.14,11.81c0,3.59-.13,7.19-0.07,10.78s0.29,7.09.39,10.63c0.08,2.83.15,5.66,0.07,8.48-0.13,4.37-.4,8.74-0.58,13.11a1.59,1.59,0,0,0,.48.65c0.88-.86,2.06-1.58,2.57-2.62a8.56,8.56,0,0,0,.38-3.54c0-3.95-.06-7.9,0-11.84s0.38-7.73.32-11.59c-0.1-6.38-.49-12.75-0.61-19.12-0.11-5.87,0-11.73,0-17.6C8.07,61.42,8,53.24,8,45.06c0-5.31.3-10.61,0.51-15.92,0.06-1.51.37-3,.44-4.51,0.14-3.14.12-6.29,0.31-9.42C9.41,13,9.43,11,7.63,9.42a1.13,1.13,0,0,0-.92.18c-0.37,2.41-.79,4.82-1,7.25-0.17,2.25-.09,4.53-0.1,6.79,0,1.38,0,2.77,0,4.15s0.11,2.62.07,3.93c-0.05,2.07-.18,4.14-0.28,6.21Zm13.49,89.32c2,0.31,3.91.76,5.83-.16a3.65,3.65,0,0,0,.9.2c1.64-.05,3.3-0.3,4.93-0.19,5,0.32,10,.36,14.83,2.11a3.49,3.49,0,0,0,1.41.25c3.16-.25,6.32-0.58,9.48-0.81,2.45-.18,4.91-0.25,7.36-0.4,2.06-.12,4.12-0.25,6.17-0.43s3.81-.6,5.71-0.6c3.46,0,6.92.22,10.39,0.4,4.58,0.23,9.18.27,13.72,0.83a52.2,52.2,0,0,0,14.49-.55,69.59,69.59,0,0,1,12.12-1.22c6.2,0.15,12.38,1,18.59,1.44,4,0.25,7.93.18,11.9,0.24,2.23,0,4.45.08,6.68,0.07,3,0,6,0,9.07-.14,2.07-.08,4.13-0.41,6.2-0.49q7.2-.28,14.41-0.43c4.57-.08,9.14-0.19,13.7-0.07,4.9,0.13,9.78.72,14.68,0.73,5.26,0,10.52-.43,15.78-0.66,2.43-.11,4.86-0.16,7.29-0.28a1.34,1.34,0,0,0,1.4-1.74,29.66,29.66,0,0,1,0-3.44c0.09-5.87.15-11.74,0.29-17.6,0.08-3.39.5-6.79,0.37-10.17a110.81,110.81,0,0,1,.53-15.15,45,45,0,0,0-.24-8.54c-0.23-2.47-1-4.84-.66-7.42,0.41-3.66.43-7.38,0.47-11.07,0-2.87-.18-5.74-0.21-8.61,0-4.35,0-8.7,0-13,0-1.14-.42-2.29-0.35-3.42,0.25-3.84.64-7.68,1-11.52,0.07-.79,0-1.13-1-1a46.14,46.14,0,0,1-6.74.75c-4.41.08-8.83-.11-13.24-0.07-8.37.07-16.75,0.23-25.12,0.33-5.52.06-11,.12-16.57,0.09-4.7,0-9.42-.4-14.11-0.21s-9.52,1-14.28,1.35c-3.14.26-6.29,0.4-9.44,0.43-3.38,0-6.76-.16-10.14-0.19-3.18,0-6.36,0-9.54,0-8.12.18-16.26-.28-24.35,0.66l-5.94-.25c-3.25-.13-6.5-0.37-9.76-0.36s-6.55.26-9.83,0.4c-0.76,0-1.51.12-2.27,0.13-2.35,0-4.71.11-7.05,0-3.57-.13-7.13-0.61-10.69-0.53-4,.09-8.09.91-12.13,0.89s-8-1.51-12.1-1H32.58a43.59,43.59,0,0,0-7.1,0,25.24,25.24,0,0,1-7.58-.13c-1.25-.18-2.62.52-2.61,1.42,0,1.73.06,3.45,0,5.18q-0.23,8.56-.53,17.11-0.14,4-.35,8c-0.2,3.9-.65,7.79-0.61,11.68,0.05,5.57.49,11.14,0.69,16.72,0.2,5.42.36,10.85,0.43,16.28,0.08,6.34.06,12.68,0.06,19a9.49,9.49,0,0,1-.18,2.39c-1,3.87-.69,7.76-0.2,11.65a1.71,1.71,0,0,0,.87,1.26A23.21,23.21,0,0,0,18.88,127.65Zm221-113.09c3.7-.13,7.24-0.63,10-3.38a8.72,8.72,0,0,0,.72-0.92,6.06,6.06,0,0,0-1.09-.27c-2-.12-4-0.21-6-0.31s-4-.28-6-0.28c-2.79,0-5.58.14-8.37,0.18-4.83.08-9.66,0.15-14.49,0.19-4.63,0-9.26,0-13.89.05-3.39,0-6.78.13-10.17,0.19-1.47,0-2.95-.05-4.42,0-4.47.15-8.93,0.39-13.4,0.51-3.06.08-6.13,0-9.2,0.06-1.71,0-3.42.07-5.12,0.19-4.46.3-8.91,0.84-13.37,0.94-6.94.16-13.88,0-20.82,0-5.75.07-11.49,0.37-17.23,0.48-3.81.07-7.62-.05-11.43,0-1.27,0-2.55.33-3.82,0.3a99,99,0,0,0-18.85.85c-7,1.16-14,.4-21-0.13-4-.3-8-1.19-12.15-0.42a32.36,32.36,0,0,1-6.53.31c-1.9,0-3.79-.43-5.7-0.55-4.05-.27-8.11-0.46-12.17-0.7-0.71,0-1.41-.19-2.12-0.18a1.44,1.44,0,0,0-.39.72c1.85,1.29,2.86,4.17,5.94,3.21a3.26,3.26,0,0,1,1.07.07c1.49,0.09,3,.23,4.48.24,1.23,0,2.46-.2,3.69-0.19q4.09,0,8.18.13c1.7,0.05,3.4.2,5.1,0.33,2.94,0.22,5.88.67,8.81,0.62,4.81-.09,9.55-1.52,14.42-0.89a38.68,38.68,0,0,0,5.91.68c5-.13,10-0.71,14.94-0.72,5.58,0,11.16.4,16.73,0.6,1.23,0,2.47.06,3.7,0,3-.1,6-0.28,9-0.36,3.95-.11,7.9-0.21,11.85-0.24,2.23,0,4.46.14,6.7,0.15,4.58,0,9.16.07,13.74,0,4.94-.11,9.95,0,14.81-0.7a108.8,108.8,0,0,1,16.85-.85c6.3,0,12.6.35,18.9,0.37,7.46,0,14.92-.19,22.38-0.24C226.73,14.52,233.32,14.56,239.9,14.56ZM205.09,137.08H208c6.18-.05,12.37-0.08,18.55-0.18,3.91-.06,7.83-0.42,11.73-0.32,4.5,0.11,9,.57,13.5.87a3.06,3.06,0,0,0,.86-0.2,2.3,2.3,0,0,0-.32-0.86,13.72,13.72,0,0,1-2.18-2,2.47,2.47,0,0,0-2.65-1.12c-2,.18-4,0.32-5.93.59a40.6,40.6,0,0,1-9,0,51.15,51.15,0,0,0-9.92-.31c-5.13.56-10.18-.08-15.27-0.17-3.39-.06-6.78-0.11-10.16.11-4.41.28-8.8,1.07-13.21,1.19-5.5.15-11-.19-16.51-0.26-3.71,0-7.43,0-11.14.05-2.55.07-5.1,0.52-7.64,0.47-7.53-.16-15.06-0.54-22.59-0.73-3.42-.09-6.85.06-10.28,0.11-1.43,0-2.87.14-4.3,0.09-3.3-.12-6.59-0.4-9.89-0.45-2.78,0-5.57.12-8.36,0.27-3.18.16-6.36,0.58-9.54,0.58-7.22,0-14.43-.22-21.65-0.28-3.26,0-6.53,0-9.79.17-2.54.13-5.07,0.61-7.61,0.74q-6.27.31-12.55,0.32c-1.21,0-2.42-.72-3.63-0.72-6.38,0-12.76,0-19.13.24-0.91,0-1.81,1.1-2.65,1.77a1.15,1.15,0,0,0,.29.93,9.77,9.77,0,0,0,2.7.86c1.65,0.18,3.32.17,5,.23a16.14,16.14,0,0,0,1.66,0c2.54-.17,5.08-0.49,7.62-0.51,1.41,0,2.85.77,4.22,0.64A37.67,37.67,0,0,1,36,139.1c3.44,0.38,7-.16,10.48-0.31a26.88,26.88,0,0,1,3.94-.22c4.42,0.46,8.75-.38,13.12-0.71a87.49,87.49,0,0,1,10-.07c3.42,0.13,6.83.61,10.25,0.79s6.64,0,9.92.33a20.5,20.5,0,0,0,6.74-.53,5.72,5.72,0,0,1,1.18-.18q6.27,0,12.53.06c3.7,0,7.41.1,11.11,0.11q5,0,10,0c4.15-.05,8.31-0.38,12.44-0.17,5.16,0.27,10.28,1.11,15.44,1.41a71,71,0,0,0,9.43-.32c4.58-.34,9.13-0.94,13.71-1.24C192.4,137.61,198.51,137.4,205.09,137.08ZM22.58,129v0.13a52.24,52.24,0,0,1-6.51.44c-2.36-.12-3.57,1.19-4.6,2.91a1.37,1.37,0,0,0,.36,1.09c1.45,0,2.91,0,4.37-.09,1.91-.07,3.83-0.31,5.73-0.22,3.91,0.2,7.81.67,11.72,0.85a76,76,0,0,0,9.44-.06c5.18-.42,10.33-1.12,15.55-0.84,2.82,0.15,5.65,0,8.48,0L77.35,133c5.62-.07,11.24-0.16,16.85-0.18,5,0,9.92.07,14.87,0.07q8.67,0,17.34,0c2.47,0,4.94-.28,7.4-0.2,3.34,0.1,6.66.56,10,.63,4.33,0.09,8.67-.08,13-0.11,5.86,0,11.71-.11,17.57-0.08,4.62,0,9.24.35,13.85,0.2,6.12-.2,12.17-1.66,18.35-1.14,2.81,0.24,5.65.27,8.48,0.31,2.54,0,5.08-.08,7.62-0.09,3.38,0,6.76,0,10.14,0,2.42,0.05,4.85.4,7.26,0.33s4.92-.48,7.37-0.78a0.78,0.78,0,0,0,.54-0.5c-0.09-.67-2.8-2.78-3.48-2.75-4.49.22-9,.49-13.46,0.66-3.35.12-6.7,0.22-10,.14-5.1-.12-10.19-0.4-15.28-0.6-3.74-.14-7.48-0.39-11.21-0.35-2.45,0-4.9.6-7.36,0.71-4.7.2-9.41,0.19-14.12,0.37-2.06.08-4.12,0.59-6.18,0.56-4.9-.06-9.81-0.31-14.71-0.49-5.78-.21-11.56-0.38-17.33-0.68-3.77-.19-7.55-0.92-11.3-0.8a76.79,76.79,0,0,0-12.92,1.57,34.36,34.36,0,0,1-10.56.39c-2.66-.27-5.31-0.63-8-0.77-2.83-.15-5.66-0.07-8.5-0.1-0.83,0-1.66,0-2.5-.07-2.82-.11-5.65-0.38-8.47-0.28-2.62.08-5.23,0.63-7.85,0.83-3.41.27-6.83,0.36-10.23,0.6-2,.14-4,0.49-6,0.59a28.3,28.3,0,0,1-5.22-.16c-2.27-.32-4.49-1.17-6.77-1.33C31.86,129.14,27.21,129.12,22.58,129ZM249.23,8.62V8.54c0.88,0,1.75.13,2.63,0.13a1.74,1.74,0,0,0,1.08-.32,31.74,31.74,0,0,0,2.58-2.65,1.13,1.13,0,0,0-.3-0.92,52.17,52.17,0,0,0-6.17-.64c-3.27,0-6.54.17-9.81,0.24-4.78.11-9.55,0.13-14.33,0.29C220,4.85,215,5.25,210.1,5.36c-7.65.16-15.31,0.09-23,.25-4,.08-8.09.51-12.14,0.67-5,.19-10,0.22-14.94.38-2.51.08-5,.67-7.5,0.43a74.88,74.88,0,0,0-16.09.26c-2,.23-4,0.39-6,0.48-4.89.21-9.79,0.38-14.68,0.54-3.95.13-7.9,0.35-11.85,0.27-5.18-.11-10.36-0.53-15.54-0.7-3.34-.11-6.71.22-10-0.1a48.83,48.83,0,0,0-12.26-.17,62.39,62.39,0,0,1-8.39,1.18c-4,.06-8-0.44-12.05-0.57-1.53-.05-3.07.36-4.6,0.37-3,0-6-.13-9-0.14-3.79,0-7.58-.07-11.35.1a32,32,0,0,1-10.59-1,2,2,0,0,0-.65,0,1.47,1.47,0,0,0,.29.7,19.4,19.4,0,0,0,3.88,1.85,20.63,20.63,0,0,0,4.32.32c3.15,0.13,6.3.18,9.44,0.36,3.33,0.2,6.65.68,10,.74,2.13,0,4.27-.74,6.39-0.66,4.73,0.19,9.46.63,14.18,1.08a72,72,0,0,0,17-.22,108.33,108.33,0,0,1,10.83-.76c2.26-.09,4.54.17,6.8,0.13,3.77-.08,7.54-0.31,11.31-0.4,1.71,0,3.43.17,5.14,0.12,4.23-.11,8.45-0.36,12.67-0.46,5.94-.15,11.88-0.42,17.81-0.28A151.39,151.39,0,0,0,157,9.72c2.45-.23,4.91-0.54,7.37-0.58,5.72-.1,11.45,0,17.18-0.09,1.79,0,3.57-.25,5.36-0.25,3.63,0,7.26.15,10.89,0.08,4.06-.07,8.11-0.38,12.17-0.47s8.12-.05,12.19-0.07c1.44,0,2.87-.06,4.31,0,2.87,0.08,5.73.27,8.6,0.3C239.77,8.65,244.5,8.62,249.23,8.62Zm2.84,3c0.17,0-.18-0.13-0.32,0-1.8,1.33-3.36,2.79-3.37,5.31,0,1.59-.21,3.18-0.33,4.76-0.13,1.74-.4,3.48-0.37,5.22,0.07,4.45.31,8.9,0.39,13.35,0,2.34-.18,4.69-0.18,7,0,2.78.24,5.55,0.14,8.32-0.11,3-.5,5.94-0.75,8.91a2.88,2.88,0,0,0,.09,1.06c1.52,4.93,1.14,9.94.72,15q-0.36,4.29-.46,8.6c-0.08,3.7,0,7.41-.05,11.12,0,3.5.05,7,0,10.5-0.08,3.67-.37,7.34-0.41,11a34.31,34.31,0,0,0,.51,6.27,7.11,7.11,0,0,0,1.58,2.45,5.62,5.62,0,0,0,.86.79,4.92,4.92,0,0,0,.35-1.15c0.14-2.63.26-5.26,0.35-7.89,0.21-6.41.47-12.83,0.56-19.25,0.1-7.05,0-14.11,0-21.16,0-4.39.12-8.78-.07-13.16a139.18,139.18,0,0,1,0-17.8c0.47-5.43.81-10.87,1.12-16.31,0.18-3.14.28-6.3,0.22-9.44C252.57,20.69,252.29,16.34,252.07,11.57ZM13.76,90.26H14c-0.13-2.47-.24-4.94-0.39-7.41C13.29,78,13,73.23,12.68,68.42c-0.08-1.39,0-2.8,0-4.19,0-3.38-.15-6.76,0-10.13,0.19-4.78.62-9.56,0.86-14.34,0.18-3.5.24-7,.29-10.52,0-2.22-.06-4.45-0.1-6.68,0-1.14-.12-2.28-0.06-3.42,0.08-1.47.7-3-1.16-4a7.77,7.77,0,0,1-1.61-1.51,11.54,11.54,0,0,0-.53,2.24c-0.11,2.95-.07,5.9-0.19,8.85-0.28,6.85-.75,13.7-0.88,20.55-0.13,6.67.12,13.34,0.11,20C9.4,69,9,72.74,9.11,76.44,9.2,82,9.59,87.6,9.71,93.18c0.12,5.27.05,10.54,0.05,15.81,0,5,0,10.06,0,15.09,0,2.43-.12,4.86-0.18,7.3a3.5,3.5,0,0,0,.1.64,0.69,0.69,0,0,0,.29-0.16c1.11-2.15,3.4-3.53,3.23-6.55-0.2-3.63.49-7.31,0.54-11C13.83,106.32,13.76,98.29,13.76,90.26ZM257.55,7.44l-0.25-.65a2.87,2.87,0,0,0-.94.41,4.59,4.59,0,0,0-1.07,1.42c-1,2.43-2.27,4.78-1.6,7.6a15.15,15.15,0,0,1,.16,3.57q0,4.84-.17,9.69c-0.13,5.14,0,10.32-.52,15.42a125.7,125.7,0,0,0-.78,18c0.23,6,.3,12,0.33,18,0,7.11-.08,14.22-0.1,21.32,0,3.5.15,7,0,10.51-0.13,3.79-.54,7.56-0.74,11.34-0.13,2.46-.14,4.93-0.17,7.39a5.7,5.7,0,0,0,.22,2.22,5.88,5.88,0,0,0,1.42,1.58,6.53,6.53,0,0,0,.78.58c0-.31.09-0.61,0.11-0.92,0.18-2.66.33-5.32,0.54-8,0.14-1.77.41-3.53,0.53-5.31a36.51,36.51,0,0,0,0-4.29c-0.05-1,0-2.17-.55-2.83a3.33,3.33,0,0,1-.56-3.11c0.62-3.24,1.28-6.48,1.76-9.74a40.56,40.56,0,0,0,.32-5.73c0-2.47-.2-4.95-0.16-7.42,0-2.31.38-4.63,0.39-6.94,0-4.71,0-9.42-.12-14.12-0.08-2.74-.56-5.47-0.66-8.21-0.06-1.53.32-3.08,0.41-4.63s0.14-3.34.13-5c0-2.15-.11-4.29-0.14-6.43,0-1.19,0-2.38.07-3.56,0.14-2,.47-4,0.49-6,0-3.62-.3-7.26-0.17-10.87C256.74,17.78,257.19,12.78,257.55,7.44Z"/><path class="b" d="M44.47,140.37c1.68-.22,3.36-0.54,5-0.62s3.09,0.12,4.64.2Z"/><path class="c" d="M239.9,14.56c-6.59,0-13.17,0-19.76,0-7.46.05-14.92,0.26-22.38,0.24-6.3,0-12.6-.33-18.9-0.37a108.8,108.8,0,0,0-16.85.85c-4.86.73-9.86,0.59-14.81,0.7-4.58.1-9.16,0.05-13.74,0-2.23,0-4.46-.17-6.7-0.15-3.95,0-7.9.12-11.85,0.24-3,.09-6,0.26-9,0.36-1.23,0-2.47,0-3.7,0-5.58-.21-11.16-0.62-16.73-0.6-5,0-10,.59-14.94.72a38.68,38.68,0,0,1-5.91-.68c-4.87-.63-9.61.8-14.42,0.89-2.93.05-5.87-.4-8.81-0.62-1.7-.13-3.4-0.28-5.1-0.33q-4.09-.13-8.18-0.13c-1.23,0-2.46.2-3.69,0.19-1.49,0-3-.15-4.48-0.24a3.26,3.26,0,0,0-1.07-.07c-3.08,1-4.08-1.92-5.94-3.21a1.44,1.44,0,0,1,.39-0.72c0.71,0,1.41.14,2.12,0.18,4.06,0.24,8.11.43,12.17,0.7,1.9,0.13,3.8.51,5.7,0.55a32.36,32.36,0,0,0,6.53-.31C44,12,48,12.91,52.06,13.21c7,0.53,14,1.29,21,.13a99,99,0,0,1,18.85-.85c1.27,0,2.54-.29,3.82-0.3,3.81,0,7.62.09,11.43,0,5.75-.11,11.49-0.41,17.23-0.48,6.94-.08,13.88.11,20.82,0,4.46-.1,8.91-0.63,13.37-0.94,1.7-.12,3.41-0.17,5.12-0.19,3.07,0,6.13,0,9.2-.06,4.47-.12,8.93-0.36,13.4-0.51,1.47-.05,2.95,0,4.42,0,3.39-.05,6.78-0.16,10.17-0.19,4.63,0,9.26,0,13.89-.05,4.83,0,9.66-.11,14.49-0.19,2.79,0,5.58-.19,8.37-0.18,2,0,4,.18,6,0.28s4,0.19,6,.31a6.06,6.06,0,0,1,1.09.27,8.72,8.72,0,0,1-.72.92C247.14,13.93,243.6,14.43,239.9,14.56Z"/><path class="c" d="M205.09,137.08c-6.58.32-12.69,0.53-18.79,0.93-4.58.3-9.14,0.9-13.71,1.24a71,71,0,0,1-9.43.32c-5.16-.3-10.28-1.15-15.44-1.41-4.13-.21-8.29.11-12.44,0.17q-5,.07-10,0c-3.7,0-7.41-.08-11.11-0.11q-6.27,0-12.53-.06a5.72,5.72,0,0,0-1.18.18,20.5,20.5,0,0,1-6.74.53c-3.27-.37-6.61-0.15-9.92-0.33s-6.83-.66-10.25-0.79a87.49,87.49,0,0,0-10,.07c-4.37.33-8.7,1.18-13.12,0.71a26.88,26.88,0,0,0-3.94.22c-3.5.16-7,.69-10.48,0.31a37.67,37.67,0,0,0-7.82.06c-1.37.13-2.81-.65-4.22-0.64-2.54,0-5.08.33-7.62,0.51a16.14,16.14,0,0,1-1.66,0c-1.66-.06-3.33,0-5-0.23a9.77,9.77,0,0,1-2.7-.86A1.15,1.15,0,0,1,6.67,137c0.84-.66,1.74-1.74,2.65-1.77C15.69,135,22.07,135,28.45,135c1.21,0,2.42.72,3.63,0.72q6.28,0,12.55-.32c2.54-.13,5.07-0.61,7.61-0.74,3.26-.16,6.53-0.2,9.79-0.17,7.22,0.07,14.43.28,21.65,0.28,3.18,0,6.36-.42,9.54-0.58,2.78-.14,5.57-0.3,8.36-0.27,3.3,0,6.59.33,9.89,0.45,1.43,0.05,2.87-.06,4.3-0.09,3.43-.05,6.85-0.2,10.28-0.11,7.53,0.19,15.06.57,22.59,0.73,2.54,0.05,5.09-.4,7.64-0.47,3.71-.1,7.42-0.1,11.14-0.05,5.5,0.07,11,.41,16.51.26,4.41-.12,8.8-0.91,13.21-1.19,3.38-.21,6.77-0.17,10.16-0.11,5.09,0.1,10.14.74,15.27,0.17a51.15,51.15,0,0,1,9.92.31,40.6,40.6,0,0,0,9,0c2-.27,4-0.41,5.93-0.59a2.47,2.47,0,0,1,2.65,1.12,13.72,13.72,0,0,0,2.18,2,2.3,2.3,0,0,1,.32.86,3.06,3.06,0,0,1-.86.2c-4.5-.29-9-0.76-13.5-0.87-3.91-.1-7.82.26-11.73,0.32-6.18.1-12.37,0.13-18.55,0.18h-2.87Z"/><path class="d" d="M22.58,129c4.64,0.15,9.29.18,13.91,0.51,2.28,0.16,4.49,1,6.77,1.33a28.3,28.3,0,0,0,5.22.16c2-.09,4-0.45,6-0.59,3.41-.23,6.83-0.33,10.23-0.6,2.62-.2,5.23-0.75,7.85-0.83,2.82-.09,5.65.18,8.47,0.28,0.83,0,1.66.06,2.5,0.07,2.83,0,5.67,0,8.5.1,2.67,0.14,5.32.5,8,.77a34.36,34.36,0,0,0,10.56-.39,76.79,76.79,0,0,1,12.92-1.57c3.75-.12,7.53.6,11.3,0.8,5.77,0.3,11.55.46,17.33,0.68,4.9,0.18,9.8.43,14.71,0.49,2.06,0,4.11-.48,6.18-0.56,4.7-.18,9.42-0.17,14.12-0.37,2.46-.1,4.9-0.68,7.36-0.71,3.74,0,7.47.21,11.21,0.35,5.09,0.2,10.19.48,15.28,0.6,3.35,0.08,6.7,0,10-.14,4.49-.17,9-0.44,13.46-0.66,0.68,0,3.39,2.08,3.48,2.75a0.78,0.78,0,0,1-.54.5c-2.45.3-4.91,0.71-7.37,0.78s-4.84-.27-7.26-0.33c-3.38-.07-6.76-0.05-10.14,0-2.54,0-5.08.12-7.62,0.09-2.83,0-5.66-.07-8.48-0.31-6.18-.53-12.23.93-18.35,1.14-4.61.15-9.23-.18-13.85-0.2-5.85,0-11.71,0-17.57.08-4.33,0-8.67.2-13,.11-3.34-.07-6.66-0.52-10-0.63-2.46-.08-4.93.18-7.4,0.2q-8.67.07-17.34,0c-5,0-9.92-.09-14.87-0.07-5.62,0-11.24.11-16.85,0.18l-10.25.15c-2.83,0-5.66.18-8.48,0-5.22-.28-10.37.42-15.55,0.84a76,76,0,0,1-9.44.06c-3.91-.17-7.81-0.65-11.72-0.85-1.9-.1-3.82.14-5.73,0.22-1.46.06-2.91,0.12-4.37,0.09a1.37,1.37,0,0,1-.36-1.09c1-1.71,2.24-3,4.6-2.91a52.24,52.24,0,0,0,6.51-.44V129Z"/><path class="d" d="M249.23,8.62c-4.73,0-9.46,0-14.18,0-2.87,0-5.73-.22-8.6-0.3-1.43,0-2.87,0-4.31,0-4.06,0-8.13,0-12.19.07s-8.11.4-12.17,0.47c-3.63.07-7.26-.09-10.89-0.08-1.79,0-3.57.24-5.36,0.25-5.73.05-11.45,0-17.18,0.09-2.46,0-4.91.35-7.37,0.58a151.39,151.39,0,0,1-17.43.44c-5.93-.14-11.87.13-17.81,0.28-4.23.11-8.45,0.35-12.67,0.46-1.71,0-3.43-.16-5.14-0.12-3.77.09-7.54,0.33-11.31,0.4-2.27,0-4.54-.22-6.8-0.13A108.33,108.33,0,0,0,75,11.82a72,72,0,0,1-17,.22c-4.72-.45-9.44-0.89-14.18-1.08-2.12-.08-4.26.7-6.39,0.66-3.33-.06-6.65-0.54-10-0.74-3.14-.19-6.29-0.23-9.44-0.36a20.63,20.63,0,0,1-4.32-.32A19.4,19.4,0,0,1,9.75,8.35a1.47,1.47,0,0,1-.29-0.7,2,2,0,0,1,.65,0,32,32,0,0,0,10.59,1c3.78-.17,7.57-0.12,11.35-0.1,3,0,6,.16,9,0.14,1.54,0,3.08-.42,4.6-0.37,4,0.13,8,.63,12.05.57a62.39,62.39,0,0,0,8.39-1.18,48.83,48.83,0,0,1,12.26.17c3.31,0.33,6.69,0,10,.1,5.18,0.18,10.36.6,15.54,0.7,3.95,0.08,7.9-.14,11.85-0.27,4.89-.16,9.79-0.33,14.68-0.54,2-.09,4-0.24,6-0.48a74.88,74.88,0,0,1,16.09-.26c2.46,0.24,5-.34,7.5-0.43,5-.17,10-0.19,14.94-0.38,4-.15,8.09-0.58,12.14-0.67,7.65-.16,15.31-0.09,23-0.25C215,5.25,220,4.85,224.92,4.68c4.77-.16,9.55-0.19,14.33-0.29,3.27-.07,6.54-0.28,9.81-0.24a52.17,52.17,0,0,1,6.17.64,1.13,1.13,0,0,1,.3.92,31.74,31.74,0,0,1-2.58,2.65,1.74,1.74,0,0,1-1.08.32c-0.88,0-1.75-.08-2.63-0.13V8.62Z"/><path class="d" d="M252.07,11.57c0.22,4.77.5,9.11,0.59,13.46,0.07,3.14,0,6.3-.22,9.44-0.31,5.44-.65,10.88-1.12,16.31a139.18,139.18,0,0,0,0,17.8c0.18,4.38.07,8.77,0.07,13.16,0,7.06.06,14.11,0,21.16-0.09,6.42-.36,12.83-0.56,19.25-0.09,2.63-.21,5.26-0.35,7.89a4.92,4.92,0,0,1-.35,1.15,5.62,5.62,0,0,1-.86-0.79,7.11,7.11,0,0,1-1.58-2.45,34.31,34.31,0,0,1-.51-6.27c0-3.67.33-7.34,0.41-11,0.08-3.5,0-7,0-10.5,0-3.71,0-7.41.05-11.12q0.1-4.3.46-8.6c0.42-5,.8-10-0.72-15a2.88,2.88,0,0,1-.09-1.06c0.25-3,.64-5.93.75-8.91,0.1-2.77-.14-5.55-0.14-8.32,0-2.34.22-4.69,0.18-7-0.08-4.45-.32-8.9-0.39-13.35,0-1.74.24-3.48,0.37-5.22,0.12-1.59.32-3.18,0.33-4.76,0-2.52,1.57-4,3.37-5.31C251.89,11.44,252.23,11.59,252.07,11.57Z"/><path class="c" d="M13.76,90.26c0,8,.07,16.06,0,24.08,0,3.66-.74,7.33-0.54,11,0.17,3-2.12,4.4-3.23,6.55a0.69,0.69,0,0,1-.29.16,3.5,3.5,0,0,1-.1-0.64c0.06-2.43.16-4.86,0.18-7.3,0-5,0-10.06,0-15.09,0-5.27.06-10.54-.05-15.81C9.59,87.6,9.2,82,9.11,76.44,9,72.74,9.4,69,9.41,65.32c0-6.67-.23-13.34-0.11-20,0.13-6.85.61-13.7,0.88-20.55,0.12-2.95.08-5.9,0.19-8.85a11.54,11.54,0,0,1,.53-2.24,7.77,7.77,0,0,0,1.61,1.51c1.87,0.95,1.24,2.49,1.16,4-0.06,1.14,0,2.28.06,3.42,0,2.23.13,4.45,0.1,6.68,0,3.51-.11,7-0.29,10.52-0.24,4.78-.67,9.56-0.86,14.34-0.13,3.37,0,6.75,0,10.13,0,1.4-.09,2.8,0,4.19,0.27,4.81.61,9.62,0.91,14.42,0.15,2.47.26,4.94,0.39,7.41H13.76Z"/><path class="c" d="M257.55,7.44c-0.36,5.34-.81,10.34-1,15.36-0.13,3.62.19,7.25,0.17,10.87,0,2-.35,4-0.49,6-0.08,1.18-.09,2.38-0.07,3.56,0,2.15.13,4.29,0.14,6.43,0,1.67,0,3.35-.13,5s-0.47,3.09-.41,4.63c0.11,2.74.58,5.47,0.66,8.21,0.14,4.7.15,9.41,0.12,14.12,0,2.31-.36,4.62-0.39,6.94,0,2.47.17,4.95,0.16,7.42a40.56,40.56,0,0,1-.32,5.73c-0.48,3.26-1.14,6.5-1.76,9.74a3.33,3.33,0,0,0,.56,3.11c0.54,0.66.5,1.86,0.55,2.83a36.51,36.51,0,0,1,0,4.29c-0.11,1.77-.39,3.53-0.53,5.31-0.21,2.66-.36,5.32-0.54,8,0,0.31-.07.61-0.11,0.92a6.53,6.53,0,0,1-.78-0.58,5.88,5.88,0,0,1-1.42-1.58,5.7,5.7,0,0,1-.22-2.22c0-2.47,0-4.93.17-7.39,0.21-3.78.61-7.56,0.74-11.34,0.12-3.5,0-7,0-10.51,0-7.11.13-14.22,0.1-21.32,0-6-.1-12-0.33-18a125.7,125.7,0,0,1,.78-18c0.54-5.1.39-10.27,0.52-15.42q0.12-4.84.17-9.69a15.15,15.15,0,0,0-.16-3.57c-0.66-2.82.63-5.17,1.6-7.6a4.59,4.59,0,0,1,1.07-1.42,2.87,2.87,0,0,1,.94-0.41Z"/><path class="d" d="M5.47,37.93c0.1-2.07.22-4.14,0.28-6.21,0-1.31-.05-2.62-0.07-3.93s0-2.77,0-4.15c0-2.27-.07-4.54.1-6.79,0.18-2.43.6-4.84,1-7.25a1.13,1.13,0,0,1,.92-0.18C9.43,11,9.41,13,9.28,15.21,9.09,18.35,9.11,21.49,9,24.63c-0.07,1.51-.38,3-0.44,4.51C8.33,34.45,8.07,39.75,8,45.06,8,53.24,8.07,61.42,8.1,69.6c0,5.87-.07,11.74,0,17.6,0.12,6.38.51,12.75,0.61,19.12,0.06,3.86-.27,7.73-0.32,11.59s0,7.9,0,11.84a8.56,8.56,0,0,1-.38,3.54c-0.51,1-1.68,1.76-2.57,2.62A1.59,1.59,0,0,1,5,135.27c0.18-4.37.45-8.74,0.58-13.11,0.08-2.83,0-5.66-.07-8.48-0.1-3.54-.34-7.09-0.39-10.63s0-7.18.07-10.78q0.06-5.91.14-11.81c0-3.35.23-6.71,0.12-10.06-0.21-6.6-.75-13.2-0.83-19.8-0.05-4.09.48-8.18,0.75-12.27a1.12,1.12,0,0,0,.4-0.12C5.92,37,6,35.73,6.11,34.49a0.59,0.59,0,0,0-.21-0.23,1.88,1.88,0,0,0-.2.5C5.61,35.82,5.54,36.87,5.47,37.93Z"/><path class="e" d="M102.47,18l-17-.16-8.48-.06c3.28-.14,6.55-0.39,9.83-0.4s6.5,0.23,9.76.36Z"/><path class="f" d="M5.47,37.93c0.08-1.06.14-2.11,0.23-3.16a1.88,1.88,0,0,1,.2-0.5,0.59,0.59,0,0,1,.21.23C6,35.73,5.92,37,5.79,38.21a1.12,1.12,0,0,1-.4.12Z"/></svg>