<svg xmlns="http://www.w3.org/2000/svg" viewBox="0 0 104.89 152.49"><defs><style>.a{fill:#b33f32;}.b{fill:#110708;}.c{fill:#0b0709;}.d{fill:#19defb;}.e{fill:#faaca0;}.f{fill:#fbfafb;}.g{fill:#f60f00;}.h{fill:#0f13df;}.i{fill:#fd12fe;}.j{fill:#fed605;}.k{fill:#059f03;}</style></defs><title>painter</title><polygon points="25.76 145.85 25.76 145.85 25.75 145.84 25.76 145.85"/><polygon points="38.74 129 38.74 129 38.75 129 38.74 129"/><path d="M104.31,81.1l-4.57-5.53-0.37-.3h0L99.11,75a0.15,0.15,0,0,0-.1-0.18l-0.8.58L96,73.71l0.24-1.08-0.5-.16-0.12.82H95.36l-0.12-.82L92.1,70c-1,.34-1.07-0.44-1.34-1l0,0c-1.72.14-3.15-.59-3.56-1.83L86.87,67l-0.21-.09-0.55-.13c-0.51.45-.79,0.36-1.38-0.4l-0.57-.06-0.65-.13a4.92,4.92,0,0,0-.77-0.28c-1.57-.3-3.16-0.51-4.71-0.87-2.15-.5-4.28-1.11-6.42-1.67a1.32,1.32,0,0,1,0-.69c1.23-1.44,2.5-2.86,3.75-4.28l0,0,0.23-.43c0.18-.31.37-0.6,0.53-0.92,0.29-.59.4-1.13,1.39-1.08a15.52,15.52,0,0,0,3.76-.55,1.11,1.11,0,0,0,1-1.24H81.61l-0.54-.07c-0.15,0-.29-0.08-0.43-0.14-2-.88-2.19-1.25-1.25-3.42l2.73,1.75c2.08,0,3.34-.78,3.37-1.85L82.92,50c-0.85-.53-1.67-1.1-2.55-1.57-1.19-.65-0.92-1.63-0.8-2.68a14.54,14.54,0,0,0-.15-2.59l0.27-.41,0.19,0.38h0l0.62-.75c0.59-.45.44,1,1.08,0.23a42.69,42.69,0,0,1-1.49-4.37,36.32,36.32,0,0,0-2.16-6.15c-1.05.4-1.77,0.24-1.93-1.06a2.71,2.71,0,0,0-.86-0.77l-1-1.56-0.23.1,0.2-1.25a18,18,0,0,0-.7-2.62A9.19,9.19,0,0,0,68,19.6a9.84,9.84,0,0,0-5.21-.75c-2.62.44-2.62,0.4-3.39-2.37a1,1,0,0,0-1.69-.55c-0.73.53-.53,1.12-0.28,1.79,0.6,1.62.23,2-1.38,2-2.13,0-4.24.1-6.06,1.6a14.84,14.84,0,0,0-4.83,7.31,2.08,2.08,0,0,1-.39,1C43,31,42.35,33.14,41.46,35.12c-0.33.73-.61,1.49-1,2.18-0.75,1.35-1.55,2.66-2.34,4a15.76,15.76,0,0,0,1.38-1.1,19.44,19.44,0,0,0,1.25-1.5c0.32,1.49-1,4.89-2.34,6.46-1.52,1.76-2.83,3.76-5.21,4.53l-1.53,1.9L32,51.87l2-.76c1.28-1.28,2.57-2.56,3.84-3.85A26.09,26.09,0,0,1,40.19,45c-0.58,1.77,0,3.81-1.35,5.35l0.34,0.54a1.27,1.27,0,0,1,.62,0c0.59,0.84.28,4.06-.55,4.62a5.81,5.81,0,0,1-2.06.58,8.52,8.52,0,0,1-1.26.08L35.18,57.5c2.22,0.89,3.93.54,5.2-1.83,1,3.16,1.31,6.22,4.19,7.93-1.32.83-2.45,1.61-3.64,2.28s-2.68,1.33-4,2.07c-2.18,1.23-4.28,2.58-6.48,3.76-1.17.63-1.67,0.33-1.8-1-0.16-1.62-.13-3.25-0.16-4.88a3.07,3.07,0,0,1,.16-0.57,2.1,2.1,0,0,0,.14-1.11,1.81,1.81,0,0,0-1-.3c0.32-.66.67-1.32,1-2,1.32-3,1-6.06.12-9.1-0.46-1.52-.67-3.22-1.51-4.5A9.26,9.26,0,0,1,26,42.14a7.21,7.21,0,0,0-.44-2.39,1.27,1.27,0,0,0-.91-0.06c-0.64,1.23-1.24,2.45-.65,4a4.25,4.25,0,0,1,.24,2.61c-1,3.2-2.1,6.4-3.42,9.5-1.11,2.6-.8,5.82,2.68,7.12a1.2,1.2,0,0,1,.56,1c-0.65,1.22-.08,2.43-0.11,3.63q-0.1,3.82-.21,7.63a10,10,0,0,1-1,.84c-0.69.46-1.41,0.87-2.12,1.31h0l-0.29.2c-2.51,2.43-5,4.9-6.45,8.14-0.68,1.48-2,2.71-1.8,4.55a1.11,1.11,0,0,1-.38.64c-2.24,2.43-3.62,4-1.32,7.71a10.67,10.67,0,0,0,6.45,4.93c1.58,0.42,3.1.52,4.43-.76A22.87,22.87,0,0,1,23.52,101a4.05,4.05,0,0,1,.31.85c0.37,3.8.77,7.59,1.06,11.4,0.26,3.51.4,7,.59,10.58a1.55,1.55,0,0,0,1.68-1.62c0.23-2.2,1-4.36,1-6.56,0.11-3.21-.15-6.44-0.28-9.66-0.09-2.27-.22-4.55-0.34-7,1.91,1,3,.08,3.89-1.32a18.68,18.68,0,0,0,1.22-2.44,3.93,3.93,0,0,1,2.22-2.28c0,0.67.08,1.22,0.09,1.76,0.07,2.6.13,5.21,0.2,7.81a0.55,0.55,0,0,0,.07.34c1.59,1.45.37,3.16-.2,4.18a26.73,26.73,0,0,0-2.86,8.61c-0.52,2.89-.8,5.83-1.06,8.75-0.17,1.92-.14,3.87-0.13,5.8a1.25,1.25,0,0,0,.67.73,11.3,11.3,0,0,0,5.09,1.65c2.07,0.09,2.06.22,1.95,2.07l1-.2L40,135.54l0.27-1.14c0.18-1.44.55-1.81,1.87-1.56,2.56,0.48,5.1,1,7.63,1.61a1.72,1.72,0,0,1,.32.79q0,2,0,4a1,1,0,0,0-.07.15,0.21,0.21,0,0,0,.07.06l0,0.37h0l0,0.71,0.06,1.7c0.15,1,.9,2-0.25,2.85l-0.89.45-1.34-.19-0.42,0c-0.38.06-.77,0.11-1.14,0.19-0.59.13-1,0-1.09-.67l-0.09,0-0.37-.24-0.5-.19L44,144.4l-0.09,0-0.3-.17a0.11,0.11,0,0,0-.15-0.08L43.16,144l-1.1-.53a1.51,1.51,0,0,0-1.57,1.11,1.89,1.89,0,0,1-.67,0q0,1.6,0,3.21a1.1,1.1,0,0,1,.1.16,0.26,0.26,0,0,1-.07.07l0,0.54-0.19.65c-1.83,1.78-3.66,3.57-6.34,4l-0.62.11,0,0-1.34.42-0.06,0,0,0.05-0.42.18h0l-1,.34-3.1,1c-2,1.36-3.95,2.68-5.85,4.12a6.41,6.41,0,0,0-1.16,1.76l-0.7,1a32.08,32.08,0,0,0-1.34,3.09A2.17,2.17,0,0,0,18.85,168l2.93,0.13,1.24,0h3.8l0.55-.13,2-.25,1,0,0.65-.2,1.76-.33,0.35-.17,0.07,0,0.06-.05,0.52-.24,0.44-.23,2.93-.88,0.43-.15c0.05-1.09.85-.57,1.37-0.64l0.66,0,1.32-.44,1.31-.26,0.17-.11,0.87-.31,0.53,0H44.6l0.23,0,0.16-.13,0,0.22,0,0.07L45.14,164l-0.22,0-2.25.83v0.63l0.72-.22,1.57-.21,0.05,0,0,0,1.6-.92,0.07,0,0.72-.49h0l1.33-.69,0.09,0,0.29-.21,0,0,0.58-.27h0.09l0-.08,0.23-.16h0l0.68-.24,0.5-.28,0.89-.45,1.27-.5,0.29-.15h0c1.34-.49,2.62-0.71,3.5.84-1.32.68-2.64,1.41-4,2.06-2.18,1-3.27,1.86-3.28,2.82,1.9-1,3.72-1.8,5.46-2.78a3.05,3.05,0,0,1,3.79.11l-1,1.14,0.16,0.31a12,12,0,0,0,2.37-.49,57.13,57.13,0,0,1,9.52-3.43,21.91,21.91,0,0,1,11.52.43,2.82,2.82,0,0,1,.77.6,3.21,3.21,0,0,1-.83.54c-2.65.7-5.3,1.38-8,2-1.11.28-2.25,0.44-3.34,0.8a5.92,5.92,0,0,0-1.43,1l0.22,0.33a2.89,2.89,0,0,0,.58,0c3.63-.75,7.28-1.45,10.88-2.31a12.27,12.27,0,0,0,4.15-1.68,7.61,7.61,0,0,1,3.65-1.29c2.15-.28,4.56.22,6.3-1.67l1.4-.67L95.74,159l-0.2-.15-0.05-.14,0.07,0a1.73,1.73,0,0,0-.73-2.36c-1-.71-2-1.34-3.1-2-2.47-1.49-5-2.92-7.43-4.45a29,29,0,0,1-6.34-6c-1-1.16-2.2-2.17-2.3-3.78-0.19-3.09-.23-6.19-0.33-9.29A4.7,4.7,0,0,1,79,129.67c2.14,0,2.82-.5,2.89-2.57a3.78,3.78,0,0,1,.12-0.58,17.85,17.85,0,0,0-.62-9.81,1,1,0,0,1,.5-1.46c1.28-.74,2.49-1.61,3.83-2.22a8.11,8.11,0,0,0,4.65-6.12c0.22-1.06.31-1.84,1.5-2.18a4.05,4.05,0,0,0,2-1.61c0.73-.95,2-1.49,2.78-2.39a70.11,70.11,0,0,0,5-6.06,36.73,36.73,0,0,0,3.54-6A6.76,6.76,0,0,0,104.31,81.1ZM34.69,164.52l-0.56.28-0.57.24a2.81,2.81,0,0,1-3.13.63l-1,.1a2.4,2.4,0,0,1-2.73.48l-0.08,0-0.07.06h-1L23,166H22L21.59,166c-0.63.25-1.25,0.73-1.88,0l-0.29-.46a0.17,0.17,0,0,0,0-.2,1.09,1.09,0,0,1-.11-0.16,0.25,0.25,0,0,1,.07-0.08l0-.51,0.07-.46c0.89-1.26,1.78-2.53,2.69-3.79a6.59,6.59,0,0,1,.74-0.74c0.29-.47.42-1.21,1.26-0.72a0.11,0.11,0,0,0,.15-0.1c0.15-.32.14-1,0.73-0.32l0.58,0.17,1.58,0.46,0.78,0.3c1.43,0.4,3.1.36,3.77,2.11L32.85,162,35,163.87Zm0.83-8.81-0.06,4.91-0.68.09-0.46-.37a12.85,12.85,0,0,0-5.48-3l-0.72-.19,0.33-.46,0.31-.08,0.28-.17a0.17,0.17,0,0,0,.2-0.08l0.27-.16h0l2.38-.74h0l1.54-.47,0.36,0,0.85-.21,0.93-.14,0.06,0.65Zm41.64-109,0.73,3.89-0.43.09-0.78-3.89ZM52.69,21.86c1.56,0,3.13.26,4.69,0.4a0.88,0.88,0,0,0,.55-0.08c2-1.56,4.37-1.44,6.71-1.22,3.29,0.31,6.86,3.73,7.13,6.65C71.86,28.52,71.6,29,70.67,29c-1.3,0-2.61,0-3.91-.07-2.34-.13-4.67-0.43-7-0.46-3.21,0-6.42.09-9.63,0.2a17.83,17.83,0,0,0-2.52.45C46.66,25.78,49.43,21.9,52.69,21.86Zm-8,9.75-2.87,6.32C41.3,36.44,43.51,32.27,44.7,31.6ZM41.65,51.31c0.14-1.62-.5-3.25.34-4.87,0.34-.66,1.09-1.36,0-2.16a3,3,0,0,1,.18-1.36A23.21,23.21,0,0,1,44.72,35c0.11-.2.26-0.38,0.39-0.57l0.18,0.08L42,51.36ZM24.82,47.64h0.54l-0.22,4.67c0.31,1.35.66,2.69,0.92,4,0.13,0.71.33,1.46-.48,2a5.09,5.09,0,0,0-.41,1.09c0-.78,0-1.56,0-2.34,0-1.61-.12-3.22-0.18-4.83C25.09,50.76,24.34,49.19,24.82,47.64ZM23.46,60.07a25.48,25.48,0,0,1-.31-3.54,30.58,30.58,0,0,1,.6-3.75l-1,1c-0.15,1.51-.3,3-0.47,4.54a1.36,1.36,0,0,1-.34.48,1.2,1.2,0,0,1-.36-0.47,7.49,7.49,0,0,1,.06-1.89c0.24-1.1.61-2.18,0.92-3.26l1.24-2.53L24,50.71v1.82q0,3.75,0,7.5Zm0.42,17,0.22,5,1.08-1.24c0.33,1.28.3,1.14-.9,1.38a6.07,6.07,0,0,0-2.42,1.22c-1.77,1.39-3.44,2.9-5.17,4.33-0.69.57-1.44,1-2.17,1.57l-0.41-.34C15.8,84,18.25,79.44,23.88,77.11Zm6.55,19.73a2,2,0,0,1-2.18,1A4.88,4.88,0,0,0,23.64,99c-0.94.73-1.74,1.61-2.65,2.38a1.7,1.7,0,0,1-1.06.44,8.81,8.81,0,0,1-5.37-2.08,26.87,26.87,0,0,1-2.63-2.83A3.49,3.49,0,0,1,13,91.74a18.39,18.39,0,0,0,5.23-4.06c1.48-1.5,3.13-3.13,5.37-3.26S28.07,84,30,85.59a5.63,5.63,0,0,1,.46.47A2.64,2.64,0,0,1,28,87.17a3.78,3.78,0,0,0-3.5,1.36,2.93,2.93,0,0,0-.27.85,3.86,3.86,0,0,0,.84.2,14.08,14.08,0,0,0,1.79-.08c1.28-.14,2.24.34,3.19,1.79-1.72.64-3.29,1.27-4.89,1.81-1.27.43-2.62,0.71-3,2.43a4.89,4.89,0,0,0,.75,0c1.72-.19,3.44-0.41,5.16-0.56a2.83,2.83,0,0,1,1.37.28A1.28,1.28,0,0,1,30.44,96.84Zm9.81,54.32,0.3-1.83,0.2-.32,0,0L41,148.8l0.42-1.49-0.21-.76V146c0.13-.86.43-0.27,0.69-0.08h0l0.95,0.42L43,146.38a3.25,3.25,0,0,1,3,1l1.15,0.66,0.52,0.2h1l0.24,0,1.34,0.35-3.48,1.56-0.65.25-1.77.56-0.39.16-1,.19-1.93.17-0.53,0-0.32,0Zm-2,1.08a0.1,0.1,0,0,1-.18,0Zm7.36,9.44-1,.09-1.72.29-0.58.11-0.36,0-0.4.17-0.56.06-1.21.19-1,.13c-0.44-1.23-1.63-2.2-1.46-3.7a0.91,0.91,0,0,1-.08-0.15,0.19,0.19,0,0,1,.06-0.07L37.26,154l0.17-.2,0.76,0L38.6,154l2.95,1.51,0.34,0.29,0,0,0.34,0.41,0.43,0.33,0,0,0.3,0.21h0l0.29,0.21,0.09,0,0.36,0.36c0.8,1.1,1.6,2.18,2.38,3.29C46.36,161.13,46.22,161.53,45.57,161.69Zm2.68,0.65a0.14,0.14,0,1,1,.09-0.19A0.39,0.39,0,0,1,48.25,162.34Zm0.9-1.85-2.82-3.83-0.46-.29L45.56,156l-0.3-.34-0.16-.18-0.47-.28-0.48-.3,0,0-0.28-.25-0.26-.2-0.23-.18a0.11,0.11,0,0,0-.15-0.09L43,154h0l-0.46-.47,1-.42a0.09,0.09,0,0,0,.16,0l0.71-.21,0,0,1.25-.61h0l0.91-.32h0l0.7-.06,0.74,0,0.5-.17a0.18,0.18,0,0,0,.21,0l1.08-.18h0.08l0-.07,0.56-.35-0.14,1.11,0,0.52L50.32,153l0.3,0.34,0.7,0.22L53.49,156l0.16,0.42,0.07,0.54,0,0.72Zm4.3-1a0.34,0.34,0,0,0,0,.1A0.35,0.35,0,0,1,53.45,159.51ZM60,161.82a6.42,6.42,0,0,0,.79-1.21c0.28-.75-0.15-1.14-1-0.94a0.79,0.79,0,0,1-.44.08c-1.76-1.23-3.48-.69-5.2.08a0.78,0.78,0,0,1-.3-0.07l0.06-.65h0a1.44,1.44,0,0,1,0-.58c0.74-1.6.2-3.31,0.46-5v0L54,152.82l-1.83-1.45-0.35-.17,0,0c-0.85,0-.54-0.37-0.22-0.73V150.2a2.67,2.67,0,0,1-.21-3.11v0l-0.38-.16,0.36-.31v-0.23a18,18,0,0,1-.38-1.84c-0.11-1.08-.15-2.17-0.22-3.22l0.62-2.88c0-1.11,0-2.21.1-3.31a1.78,1.78,0,0,1,2-1.74c1.28,0,2.56-.22,3.84-0.26,1.44,0,2.89,0,4.34.05l0.21,0.38L62,134.12c0.28,1.69.59,3.37,0.83,5.06,0.28,1.92.5,3.84,0.73,5.76S62.7,148,61.72,149.3a15.49,15.49,0,0,0-2.65,6.43,2.72,2.72,0,0,0,1.65,3.14c1.42,0.57,2.85,1.12,4.3,1.69A4.72,4.72,0,0,1,60,161.82Zm13.83-27.7c0.07,1.95,0,3.91.26,5.84,0.21,1.55-.56,2.16-1.75,2.62L65,145.44l-1.69-12c0.32-1.35,1.33-1.62,2.51-1.53,2.36,0.18,4.71.39,7.07,0.59l1,0.24Q73.87,133.41,73.87,134.12ZM61.44,156.42a2.77,2.77,0,0,1-.8-2.47,32.61,32.61,0,0,1,2.11-4.65c1.71,0.41,1.7,1.87,2.19,2.86,1,2,1.69,4.06,2.53,6.14A10,10,0,0,1,61.44,156.42Zm32.06,2.79-3-.53a3.77,3.77,0,0,0-.71-0.13c-1.7,0-3.4.11-5.09,0.14-1.23,0-2.45,0-3.88,0l3.08-6.06C85.9,153.12,92.66,157.61,93.5,159.21ZM78.91,149.14L79,149.26l1.49,0.88c1.11-.14,1.46.65,1.62,1.48,0.1,0.51.58,1.31-.49,1.49l-0.06.08-0.18.12c-0.61,1.09-1.22,2.19-1.85,3.27-0.38.66-.79,1.3-1,1.65H71.16l6.29-11.37Zm-2.38-3c-0.56,1.25-1.07,2.63-1.76,3.92-1,1.78-2,3.51-3.1,5.21-0.47.74-1,1.62-2.13,0.88a2,2,0,0,1-.64-0.82c-0.84-1.87-1.64-3.76-2.48-5.63s-0.65-2.47,1.53-3.1,4.4-1.35,6.59-2A1.79,1.79,0,0,1,76.53,146.11Zm4.06-18.74c-1.63-.32-3.06.33-4.6,0.81a22.08,22.08,0,0,1-4.61,1.14c-1.66.14-3.34,0.14-5,.33-1.29.15-2.55,0.6-3.84,0.73-3.16.32-6.32,0.62-9.5,0.76a11.81,11.81,0,0,1-3.33-.59c-2.53-.64-5-0.15-7.56,0a36.85,36.85,0,0,1-7.21-.74,3.57,3.57,0,0,1-2.2-1.27,4.05,4.05,0,0,1-.19-2.37c0.31-3.64.59-7.28,1-10.9a33.81,33.81,0,0,1,1.26-4.66c0.37-1.32.44-2.76,1.57-3.76a1.46,1.46,0,0,0,.21-0.42,2.79,2.79,0,0,1,.69-1.23c0.86-.08,1.92-0.49,2.51.61a2.33,2.33,0,0,1,.28,1c0,0.84,0,1.68,0,2.52a11.25,11.25,0,0,0,1.58,6c2,3.51,5.43,4.67,9.2,4.77,4,0.1,8,.06,11.93-0.23,3.19-.23,6.34-0.93,9.51-1.42l1.89-.3c1.52-.24,3.1-0.23,4.42-1.27a5.17,5.17,0,0,1,1.66-.43c-0.69,1.9,0,3.39.48,4.92A10.85,10.85,0,0,1,80.59,127.37Zm22.27-36.15a43.08,43.08,0,0,1-3.92,5.67,23.2,23.2,0,0,1-7.39,5.63c-0.11-1.66-.26-3.14-0.29-4.63A11.7,11.7,0,0,0,89,91.56,2,2,0,0,1,89,89.49a8.16,8.16,0,0,0,.33-2.27,11.15,11.15,0,0,1-.12-1.42c0.55-2.59-1.53-3.83-2.77-5.5a0.4,0.4,0,0,0-.3-0.17c-1.56.25-2.71-1-4.16-1.15-1-.13-1.28.15-1,1.19,0.37,1.25.71,2.47-.31,3.67a3,3,0,0,0-.09,1.5l-0.63,1.2,1.36,1c0.5,0.38,1,.8,1.51,1.13,0.83,0.52,1.77.89,2,2a1.48,1.48,0,0,0,.53.61,10,10,0,0,1,3.7,5.95,33.83,33.83,0,0,1,.55,4.36,13.77,13.77,0,0,1-.5,3.18c-0.32,1.47-.69,2.94-1.08,4.39a1.51,1.51,0,0,1-.52.87c-1.07.64-2.18,1.21-3.28,1.81a1.61,1.61,0,0,0-.32.14c-3.5,3.18-8,3.76-12.36,4.64a91.12,91.12,0,0,1-10,1c-1.94.17-3.89,0.28-5.84,0.38-3.84.18-7.58-.24-10.8-2.56a5.22,5.22,0,0,1-1.84-2.42,18.36,18.36,0,0,1-.88-9.49A31.6,31.6,0,0,1,50,88.81a15.83,15.83,0,0,1,3-2.48,50.32,50.32,0,0,1,5.41-3.22,14.19,14.19,0,0,1,3.75-1,3.81,3.81,0,0,1,3.1.92c1.9,1.48,2,1.83,1,4-0.23.46-.49,0.91-0.7,1.38a3.66,3.66,0,0,0,2.11,5c3,1.08,5.19.67,7.34-1.75,0.77-.87,2-1.35,2-2.87,0-.49,1-1,1.48-1.44l0.23-1-2.88,1.23c0-.51-0.11-1.09-0.14-1.66-0.12-2.48-.2-5-0.36-7.43a2.55,2.55,0,0,0-.65-1,2.17,2.17,0,0,0-.84.66A4.82,4.82,0,0,0,73.62,80c0.22,2.64.52,5.28,0.76,7.92a9.38,9.38,0,0,1,0,2,1.86,1.86,0,0,1-2.29,1.79,23.26,23.26,0,0,1-3.47-.52c-1.66-.45-1.9-2.68-1.33-4,0.46-1.08.91-2.17,1.31-3.28A1.14,1.14,0,0,0,68.48,83c-1.55-2.48-4.76-3.84-7.45-2.61s-5.42,2.79-8.3,4.29a9.63,9.63,0,0,1-3.43-4.13c-0.6-1.51-1.25-3-1.88-4.5l-0.94,1.56a11.67,11.67,0,0,0,5.32,7.91,45.63,45.63,0,0,0-11.09,17.59c-0.85-.21-1.88-0.39-2.86-0.73a1.38,1.38,0,0,1-.81-0.93c-0.18-2.07-1.18-4-.77-6.2,0.32-1.68,0-3.47.27-5.16A35.49,35.49,0,0,1,37.95,85c0.39-1.25,1-2.45,1.34-3.71a6.53,6.53,0,0,0,0-1.79l-0.4-.06L38,81.56,37.63,80a9.9,9.9,0,0,0-2.27,6.3,12,12,0,0,1-2.29,7c-0.48.68-.88,1.15-1.68,0.36a9.31,9.31,0,0,0-1.63-1c0.62-.59,1.2-1.21,1.85-1.75s1.13-1.25,0-1.9c-0.37-.22-0.71-0.49-1.44-1,0.95-.76,1.6-1.26,2.23-1.8a1,1,0,0,0,0-1.72,17.42,17.42,0,0,0-3.19-1.94,0.88,0.88,0,0,1-.76-1c0.16-2.34.25-4.69,0.37-7.16,2.1-.25,3.59-1.85,5.26-3.11a36,36,0,0,1,8.5-4.61,16.21,16.21,0,0,0,2.78-1.92,9.53,9.53,0,0,1,1.14-.57c0.63,0,1.27,0,1.89-.12a0.92,0.92,0,0,0,.63-0.41,1.36,1.36,0,0,0-.44-0.74,1.77,1.77,0,0,0-.73-0.4c-3.32-.93-4.75-3.35-5.48-6.53-0.45-2,.19-3.57.79-5.36,1-3,1.51-6.06,2.21-9.11s1.39-6.29,2.19-9.4a4.33,4.33,0,0,1,1.32-1.39c0.71-.94,1.43-0.12,2.15,0h0c1.91-.29,3.81-0.7,5.73-0.84a13.14,13.14,0,0,1,3.14.54c0.19,0.31.39,0.6,0.55,0.92a7.15,7.15,0,0,0,.27.75c0.92,1.39,1.87,2.77,2.81,4.15L64.77,38l0.89-.32-0.17-2.17a3.49,3.49,0,0,1,1.28-.15c2.26,0.64,2.63.51,4-1.84-1.71-.21-3.34-0.46-5-0.58s-1.91-.4-2.16-2.12c1.05,0.14,2.05.33,3.06,0.38,1.31,0.06,2.63,0,3.94,0a2.07,2.07,0,0,1,2,1.74c0.44,1.48.72,3,1.06,4.51l0.11,0.52a0.12,0.12,0,0,0,.06.19L75,38.83,74.8,35.37a1.29,1.29,0,0,1,.57.28c0.35,1.27,1.41,2.41.59,3.91a1.91,1.91,0,0,0,.15,1.48c1,2.05.37,4.09,0.07,6.14C76,48.27,76,49.35,75.83,50.68l-1-1.3-1.18.49a8.6,8.6,0,0,0,1.37,2.19c1.18,1,1.18,1.25.75,2.68A14.92,14.92,0,0,1,72,61a21.45,21.45,0,0,1-4.26,2.72c-0.54.33-1.12,0.6-1.85,1,0.92,0.75,1.62,1.27,2.25,1.87a1.27,1.27,0,0,1,.44,1c-0.8,2.19-1.76,4.3-4.08,5.34a14.51,14.51,0,0,1-3.56,1.48,10.34,10.34,0,0,1-3.39-.56c-0.62-.13-1.24-0.43-1.69.33a0.44,0.44,0,0,1-.4.12c-2-.67-4-1.25-5.51-2.85a15,15,0,0,1-1.39-1.63c-0.7-1-1.26-2-.6-3.33a8.83,8.83,0,0,0,.41-2l-1.12.51a18.08,18.08,0,0,0-1.36,3.91c-0.18,1.61,1,2.85,2,4,1.76,2.18,4.25,3.06,6.84,3.73a10.41,10.41,0,0,0,6.91-.46c2-.95,4.23-2.11,5.53-4.21C68,70.51,69,69.14,69.71,67.67a4.94,4.94,0,0,0,.07-1.89,2.05,2.05,0,0,1,.14-1.15,1.27,1.27,0,0,1,1.13-.14c0.55,0.22,1,.73,1.52.95a39.63,39.63,0,0,0,4.88,1.79c2.17,0.56,4.4.95,6.62,1.29C87,69,89.14,70.89,91.58,72.26c1.45,0.81,2.78,1.83,4.2,2.69,2.37,1.45,3.87,3.73,5.51,5.84a12.22,12.22,0,0,1,2.68,5A7.13,7.13,0,0,1,102.85,91.22ZM87.58,89.6l-5.37-4.32,0.91-3.51c1.61,0.58,3.46,1.18,4.09,2.74S87.49,87.81,87.58,89.6Z" transform="translate(-5.87 -15.65)"/><polygon points="36.31 140.58 36.3 140.57 36.3 140.57 36.31 140.58"/><path class="a" d="M38.13,41.29a15.76,15.76,0,0,0,1.38-1.1,19.45,19.45,0,0,0,1.25-1.5c0.32,1.49-1,4.89-2.34,6.46-1.52,1.76-2.83,3.76-5.21,4.53-1.24-.84-0.68-1.91-0.4-3a4.53,4.53,0,0,0,3.66-3.06c0.13-.32.24-0.64,0.4-0.94A3.47,3.47,0,0,1,37.37,42C37.61,41.77,37.87,41.54,38.13,41.29Z" transform="translate(-5.87 -15.65)"/><path class="a" d="M34,51.11c1.28-1.28,2.57-2.56,3.84-3.85A26.09,26.09,0,0,1,40.19,45c-0.58,1.77,0,3.81-1.35,5.35-1.37.6-2.41,1.87-4,2Z" transform="translate(-5.87 -15.65)"/><path class="a" d="M39.17,50.89a1.27,1.27,0,0,1,.62,0c0.59,0.84.28,4.06-.55,4.62a5.81,5.81,0,0,1-2.06.58,8.52,8.52,0,0,1-1.26.08l-0.49-1.8c0.71-.62,1.43-1.22,2.12-1.85S38.63,51.42,39.17,50.89Z" transform="translate(-5.87 -15.65)"/><path class="a" d="M82.92,50c-0.85-.53-1.67-1.1-2.55-1.57-1.19-.65-0.92-1.63-0.8-2.68a14.53,14.53,0,0,0-.15-2.59l0.46,0h0A5.43,5.43,0,0,0,84.1,46.8c-0.42.71-.81,1.44-1.27,2.12C82.54,49.36,82.22,49.71,82.92,50Z" transform="translate(-5.87 -15.65)"/><path class="b" d="M42.06,143.43a1.51,1.51,0,0,0-1.57,1.11,1.89,1.89,0,0,1-.67,0,37.64,37.64,0,0,0-1.11-10l1-.2L40,135.54l0.27-1.14,1,8.8Z" transform="translate(-5.87 -15.65)"/><path class="b" d="M84.1,46.8a5.43,5.43,0,0,1-4.22-3.64l0.62-.75c0.59-.45.44,1,1.08,0.23,1.21,2,3,2.45,5.29,1.77L87,44.87Z" transform="translate(-5.87 -15.65)"/><path class="b" d="M39.17,50.89c-0.54.54-1.07,1.09-1.63,1.6s-1.41,1.24-2.12,1.85l-0.47,0,0-.06-0.07,0c-1-.62.26-1.28,0-1.91,1.61-.13,2.64-1.4,4-2Z" transform="translate(-5.87 -15.65)"/><path class="c" d="M36.48,43.65a4.53,4.53,0,0,1-3.66,3.06c-0.66,0-1.34-.21-1.2-0.95a1.54,1.54,0,0,1,1.23-.89C34.33,45.13,35.24,43.94,36.48,43.65Z" transform="translate(-5.87 -15.65)"/><path class="a" d="M81.06,54.09c-0.15,0-.29-0.08-0.43-0.14-2-.88-2.19-1.25-1.25-3.42l2.73,1.75Z" transform="translate(-5.87 -15.65)"/><path class="b" d="M77.93,32.12c-1.05.4-1.77,0.24-1.93-1.06a2.72,2.72,0,0,0-.86-0.77l-1-1.56-0.23.1,0.2-1.25Z" transform="translate(-5.87 -15.65)"/><path class="b" d="M99,74.85l-0.8.58L96,73.71l0.24-1.08Z" transform="translate(-5.87 -15.65)"/><path class="c" d="M90.74,69c-1.72.14-3.15-.59-3.56-1.83Z" transform="translate(-5.87 -15.65)"/><path class="d" d="M23.71,75.12a10,10,0,0,1-1,.84c-0.69.46-1.41,0.87-2.12,1.31A4.17,4.17,0,0,1,23.71,75.12Z" transform="translate(-5.87 -15.65)"/><path class="b" d="M23,168.14h0Z" transform="translate(-5.87 -15.65)"/><path class="b" d="M34.27,166.55l2.93-.88Z" transform="translate(-5.87 -15.65)"/><path class="c" d="M92.1,70c-1,.34-1.07-0.44-1.34-1Z" transform="translate(-5.87 -15.65)"/><path class="c" d="M86.11,66.79c-0.51.45-.79,0.36-1.38-0.4Z" transform="translate(-5.87 -15.65)"/><path class="b" d="M45.07,165.09l1.6-.92C46.55,165.2,45.85,165.21,45.07,165.09Z" transform="translate(-5.87 -15.65)"/><path class="b" d="M18.85,168l2.93,0.13Z" transform="translate(-5.87 -15.65)"/><path class="b" d="M27.37,168l2-.25Z" transform="translate(-5.87 -15.65)"/><path class="b" d="M95.72,72.47l-0.12.82H95.36l-0.12-.82h0.48Z" transform="translate(-5.87 -15.65)"/><path class="b" d="M37.64,165.52c0.05-1.09.85-.57,1.37-0.64Z" transform="translate(-5.87 -15.65)"/><path class="b" d="M47.49,163.64l1.33-.69Z" transform="translate(-5.87 -15.65)"/><path class="b" d="M32.61,153.35l-1.34.42Z" transform="translate(-5.87 -15.65)"/><path class="c" d="M84.16,66.33l-0.65-.13Z" transform="translate(-5.87 -15.65)"/><path class="b" d="M30.69,154l-1,.34Z" transform="translate(-5.87 -15.65)"/><path class="b" d="M43.4,165.3l1.57-.21Z" transform="translate(-5.87 -15.65)"/><path class="b" d="M51.32,161.68l0.89-.45Z" transform="translate(-5.87 -15.65)"/><path class="b" d="M46.75,164.14l0.72-.49Z" transform="translate(-5.87 -15.65)"/><path class="b" d="M42.42,165.56l0.26-.67v0.63Z" transform="translate(-5.87 -15.65)"/><path class="a" d="M82.24,54.15h0Z" transform="translate(-5.87 -15.65)"/><path class="b" d="M33.27,153.23l-0.62.11Z" transform="translate(-5.87 -15.65)"/><path class="b" d="M50.14,162.21l0.68-.24Z" transform="translate(-5.87 -15.65)"/><path class="b" d="M39.8,148.58l-0.19.65Z" transform="translate(-5.87 -15.65)"/><path class="b" d="M109,157.68c-0.75,0-1.48.29-2.23,0.32-1.54,0-2.73,1.5-4.38,1.06-2.22-1.12-4.46-.43-6.7-0.08l0.44,0.31-1.4.67a5.3,5.3,0,0,1,.69-0.15c1.69-.14,3.45-1.15,5,0.45a1.92,1.92,0,0,0,1,.07h0c0.57-.16,1.12-0.35,1.7-0.46,1.75-.35,3.51-0.67,5.27-1l0.27,0.4c-0.23.72-.48,1.43-0.67,2.16a0.86,0.86,0,0,0,.12.73,0.91,0.91,0,0,0,.77.06c0.77-.3,2-2.73,1.84-3.6A1.44,1.44,0,0,0,109,157.68Z" transform="translate(-5.87 -15.65)"/><path class="b" d="M30.44,167.73l0.65-.2Z" transform="translate(-5.87 -15.65)"/><path class="b" d="M33.32,167l0.52-.24Z" transform="translate(-5.87 -15.65)"/><path class="b" d="M49.19,162.74l0.58-.27Z" transform="translate(-5.87 -15.65)"/><path class="b" d="M99.73,75.57l-0.37-.3Z" transform="translate(-5.87 -15.65)"/><path class="b" d="M99.36,75.28L99.11,75Z" transform="translate(-5.87 -15.65)"/><path class="b" d="M32.84,167.2l0.35-.17Z" transform="translate(-5.87 -15.65)"/><path class="d" d="M20.62,77.25l-0.29.2Z" transform="translate(-5.87 -15.65)"/><path class="c" d="M86.87,67l-0.21-.09Z" transform="translate(-5.87 -15.65)"/><path class="c" d="M95.54,158.81l-0.05-.14,0.07,0A0.13,0.13,0,0,1,95.54,158.81Z" transform="translate(-5.87 -15.65)"/><path class="b" d="M31.16,153.8l-0.42.18Z" transform="translate(-5.87 -15.65)"/><path class="e" d="M75.33,58.37l0.23-.43Z" transform="translate(-5.87 -15.65)"/><path class="a" d="M34.86,54.27l0.07,0,0,0.06Z" transform="translate(-5.87 -15.65)"/><path class="b" d="M39.82,147.8a1.09,1.09,0,0,1,.1.16,0.26,0.26,0,0,1-.07.07Z" transform="translate(-5.87 -15.65)"/><path class="b" d="M53.48,160.73l0.29-.15Z" transform="translate(-5.87 -15.65)"/><path class="c" d="M16.25,161L16,160.69,17,159l-3.91,2.26,0.11,0.5,3-.18,1-.1,0.07,0,0.06-.07c0.51,0.23,1.68-1,1.52.7l0.7-1a3.1,3.1,0,0,0-1.22-.66A10.88,10.88,0,0,0,16.25,161Z" transform="translate(-5.87 -15.65)"/><path class="c" d="M14,155.43l0-.09,0.55-.13,6.91-.18,0.87,0.35-0.15.24c-1.39.8-2.8,1.59-4.17,2.43a2.4,2.4,0,0,0-.53.76c0.47-.2.94-0.38,1.4-0.59l7.47-3.44a1.65,1.65,0,0,0-.59-0.63,18.56,18.56,0,0,0-2.13,0l-1,.14L22,154.16H21.64l-0.82.07h0c-0.69,0-1.39-.09-2.08-0.05a16.94,16.94,0,0,0-2.54.29,8.76,8.76,0,0,0-1.56.65c-0.67-.05-1.33-0.13-2-0.16-1.79-.06-3.69.73-5.31-0.67l-1.46.54c0.23,1.16.88,1,1.51,0.89,1.11,0.71,2.17,1.38,3.48.25a3.53,3.53,0,0,1,1.59-.32L14,155.4Z" transform="translate(-5.87 -15.65)"/><path class="b" d="M49.89,162.38l0.23-.16Z" transform="translate(-5.87 -15.65)"/><path class="b" d="M48.92,162.93l0.29-.21Z" transform="translate(-5.87 -15.65)"/><path class="d" d="M46.48,77.62a11.67,11.67,0,0,0,5.32,7.91,45.63,45.63,0,0,0-11.09,17.59c-0.85-.21-1.88-0.39-2.86-0.73a1.38,1.38,0,0,1-.81-0.93c-0.18-2.07-1.18-4-.77-6.2,0.32-1.68,0-3.47.27-5.16A35.49,35.49,0,0,1,37.95,85c0.39-1.25,1-2.45,1.34-3.71a6.53,6.53,0,0,0,0-1.79l-0.4-.06L38,81.56,37.63,80a9.9,9.9,0,0,0-2.27,6.3,12,12,0,0,1-2.29,7c-0.48.68-.88,1.15-1.68,0.36a9.31,9.31,0,0,0-1.63-1c0.62-.59,1.2-1.21,1.85-1.75s1.13-1.25,0-1.9c-0.37-.22-0.71-0.49-1.44-1,0.95-.76,1.6-1.26,2.23-1.8a1,1,0,0,0,0-1.72,17.42,17.42,0,0,0-3.19-1.94,0.88,0.88,0,0,1-.76-1c0.16-2.34.25-4.69,0.37-7.16,2.1-.25,3.59-1.85,5.26-3.11a36,36,0,0,1,8.5-4.61,16.21,16.21,0,0,0,2.78-1.92,9.75,9.75,0,0,1,1.13-.57l0.71,0.75a18.08,18.08,0,0,0-1.36,3.91c-0.18,1.61,1,2.85,2,4,1.76,2.18,4.25,3.06,6.84,3.73a10.41,10.41,0,0,0,6.91-.46c2-.95,4.23-2.11,5.53-4.21C68,70.51,69,69.14,69.71,67.67a4.94,4.94,0,0,0,.07-1.89,2.05,2.05,0,0,1,.14-1.15,1.27,1.27,0,0,1,1.13-.14c0.55,0.22,1,.73,1.52.95a39.62,39.62,0,0,0,4.88,1.79c2.17,0.56,4.4.95,6.62,1.29C87,69,89.14,70.89,91.58,72.26c1.45,0.81,2.78,1.83,4.2,2.69,2.37,1.45,3.87,3.73,5.51,5.84a12.22,12.22,0,0,1,2.68,5,7.13,7.13,0,0,1-1.12,5.47,43.08,43.08,0,0,1-3.92,5.67,23.2,23.2,0,0,1-7.39,5.63c-0.11-1.66-.26-3.14-0.29-4.63A11.7,11.7,0,0,0,89,91.56,2,2,0,0,1,89,89.49a8.16,8.16,0,0,0,.33-2.27,11.15,11.15,0,0,1-.12-1.42c0.55-2.59-1.53-3.83-2.77-5.5a0.4,0.4,0,0,0-.3-0.17c-1.56.25-2.71-1-4.16-1.15-1-.13-1.28.15-1,1.19,0.37,1.25.71,2.47-.31,3.67a3,3,0,0,0-.09,1.5l-1.91,1-2.88,1.23c0-.51-0.11-1.09-0.14-1.66-0.12-2.48-.2-5-0.36-7.43a2.55,2.55,0,0,0-.65-1,2.17,2.17,0,0,0-.84.66A4.83,4.83,0,0,0,73.62,80c0.22,2.64.52,5.28,0.76,7.92a9.38,9.38,0,0,1,0,2,1.86,1.86,0,0,1-2.29,1.79,23.26,23.26,0,0,1-3.47-.52c-1.66-.45-1.9-2.68-1.33-4,0.46-1.08.91-2.17,1.31-3.28A1.14,1.14,0,0,0,68.48,83c-1.55-2.48-4.76-3.84-7.45-2.61s-5.42,2.79-8.3,4.29a9.63,9.63,0,0,1-3.43-4.13c-0.6-1.51-1.25-3-1.88-4.5,0-.37,0-0.74,0-1.09a21.41,21.41,0,0,0-1.31,1.87A1.71,1.71,0,0,0,46.48,77.62Zm-1.73,7.66a3.81,3.81,0,0,0,.92.71,1.13,1.13,0,0,0,.94-0.12A1.11,1.11,0,0,0,46.55,85a18.46,18.46,0,0,1-1.05-2.35c-0.2-.79,0-1.68-0.18-2.49a33.93,33.93,0,0,1-.74-8.89A3.11,3.11,0,0,0,44.29,70a3.39,3.39,0,0,0-.58-0.75l-0.33.13C43.23,74.69,43,80,44.75,85.28ZM70.87,73.63c-1.64,2.49-4.77,2.45-7.06,4C65.85,79.28,70.49,75.78,70.87,73.63Zm3.26-5.47c-0.82,0-.82,0-1.3,3.61Z" transform="translate(-5.87 -15.65)"/><path class="f" d="M81.31,87.58c0.5,0.38,1,.8,1.51,1.13,0.83,0.52,1.77.89,2,2a1.48,1.48,0,0,0,.53.61,10,10,0,0,1,3.7,5.95,33.82,33.82,0,0,1,.55,4.36,13.78,13.78,0,0,1-.5,3.18c-0.32,1.47-.69,2.94-1.08,4.39a1.51,1.51,0,0,1-.52.87c-1.07.64-2.18,1.21-3.28,1.81a1.61,1.61,0,0,0-.32.14c-3.5,3.18-8,3.76-12.36,4.64a91.13,91.13,0,0,1-10,1c-1.94.17-3.89,0.28-5.84,0.38-3.84.18-7.58-.24-10.8-2.56a5.22,5.22,0,0,1-1.84-2.42,18.36,18.36,0,0,1-.88-9.49A31.6,31.6,0,0,1,50,88.81a15.83,15.83,0,0,1,3-2.48,50.32,50.32,0,0,1,5.41-3.22,14.19,14.19,0,0,1,3.75-1,3.81,3.81,0,0,1,3.1.92c1.9,1.48,2,1.83,1,4-0.23.46-.49,0.91-0.7,1.38a3.66,3.66,0,0,0,2.11,5c3,1.08,5.19.67,7.34-1.75,0.77-.87,2-1.35,2-2.87,0-.49,1-1,1.48-1.44Zm-9.22,14.86c0.31,0.48.7,1,1,1.63,0.79,1.3,1.66,1.52,2.88.69,1.38-.94,2.73-2,4.57-1.13a1.23,1.23,0,0,0,.7-0.07c1.93-.47,2.42-2.18,2.84-3.71s0.77-3-1-4c-0.9-.52-1.73-1.13-2.62-1.66a3.06,3.06,0,0,0-4.41,1.51,5,5,0,0,1-1.17,1.52A9.31,9.31,0,0,0,72.09,102.44ZM53,94a2,2,0,0,0,1.42,2.36c1.22,0.4,2.65,1,3.63-.31a2.81,2.81,0,0,1,2.52-1.29,1.24,1.24,0,0,0,1.19-1.82,5.66,5.66,0,0,0-2.9-3.16,3,3,0,0,0-3.39,0A4.81,4.81,0,0,0,53,94Zm5.28,10.53,3.45,1.93a9.47,9.47,0,0,0,1.06.54c1.63,0.65,2.77,0,3-1.74a15.48,15.48,0,0,0-.14-2.59c0-.32,0-0.65,0-1a2,2,0,0,0,0-1,4.68,4.68,0,0,0-1.8-1,6.86,6.86,0,0,0-1.85.2,3.51,3.51,0,0,0-3.18,2.31C58.59,102.94,58.42,103.77,58.25,104.53Zm-1.58,3.71c-1.39.45-3.11,0.91-4.72,1.6a3,3,0,0,0-1.25,1.65A1.68,1.68,0,0,0,51,113c1.29,0.39,1.81,1.58,2.73,2.33,1.19,1,2.36.72,3.17-.61a1.22,1.22,0,0,1,.67-0.46,2.59,2.59,0,0,0,1.83-2.29c0.16-.85-0.28-1.29-1.1-1.68C57.67,110,57.33,109.1,56.67,108.24Zm-1.75-7.08a9,9,0,0,0-1.63-2.37c-1.41-1.14-2.13-1-3.39.36a32.44,32.44,0,0,0-2.38,3.14c-0.74,1-.65,1.5.33,2.33,0.64,0.54,1.2,1.17,1.87,1.68a1.72,1.72,0,0,0,1.17.35C52,106.46,55,102.73,54.93,101.17Zm15.27,8.06c0.63-1.69.25-2.22-1.54-2.24H66.86a3.07,3.07,0,0,0-3,1.77c-0.31.82,0.37,3.83,1,4.27a0.92,0.92,0,0,0,.43.2,17.66,17.66,0,0,0,3.53.19c0.49-.06.87-0.92,1.31-1.41,0.13-.15.3-0.26,0.44-0.4C71.59,110.61,71.5,109.94,70.19,109.22Z" transform="translate(-5.87 -15.65)"/><path class="e" d="M47.25,64.91l-0.71-.75c0.64,0,1.27,0,1.89-.12a0.92,0.92,0,0,0,.63-0.41,1.36,1.36,0,0,0-.44-0.74,1.77,1.77,0,0,0-.73-0.4c-3.32-.93-4.75-3.35-5.48-6.53-0.45-2,.19-3.57.79-5.36,1-3,1.51-6.06,2.21-9.11s1.39-6.29,2.19-9.4a4.33,4.33,0,0,1,1.32-1.39H51.1c0.55,0,1.09-.09,1.64-0.13l4.52-.24c-0.67.93-1.16,1.65-1.69,2.35A1,1,0,0,1,55,33c-1.4.23-2.81,0.45-4.23,0.61s-1.93.57-1.92,2.37l5.3-.53c0,0.28,0,.43-0.07.58a10.81,10.81,0,0,0-.4,4.19,6.46,6.46,0,0,1-.22,4.14,28.31,28.31,0,0,0-1.37,4.9,2.1,2.1,0,0,0,.11.76,1.65,1.65,0,0,0,1.43-1.86c-0.3-1.54.57-2.55,1-3.69,1.43,0.7,1.12,1.69.72,2.81a9.39,9.39,0,0,0-.23,2.28L55,49.77c-1.24.18-1.88,1.22-1.19,2A26.44,26.44,0,0,0,56,53.88c-1,1.25-1,2.92-.92,4.61,0.05,1.35,0,2.71.09,4.06A2.19,2.19,0,0,0,55.83,64,2.66,2.66,0,0,1,57,66.77a2.48,2.48,0,0,0,1.07-1.27,22.14,22.14,0,0,0,.16-3.17c0-2.05,0-4.11,1.34-5.88a2.49,2.49,0,0,0-.19-1.29,2,2,0,0,0-.81.42,6.07,6.07,0,0,0-.81,1.67c-0.4,1.43-.7,2.89-1,4.33l-0.42,0c0.16-2.29.29-4.58,0.51-6.86a1.44,1.44,0,0,1,.81-1c1.35-.49,2.76-0.83,4.12-1.31a3.59,3.59,0,0,0,1.2-.94A0.7,0.7,0,0,0,63,50.79a0.71,0.71,0,0,0-.6-0.21,14.23,14.23,0,0,0-3.06.52,2.7,2.7,0,0,1-3-.54l0.29-4.63,1.5,0.29-0.61,3.86h1.55c0.62-1.15-.32-2.77,1.28-3.91a12.54,12.54,0,0,0,.15,2.25,10.69,10.69,0,0,0,.87,1.85c1.4-.9,1.6-1.55,1.08-2.86S62.08,46,63,45.13l0.6,5.27,0.36,0.15c0.47-.73,1.33-1.46,1.33-2.2a34.76,34.76,0,0,0-.71-4.53,2.82,2.82,0,0,1,.22-1.62c1.17-2.17,1.79-4.36.71-6.75a3.49,3.49,0,0,1,1.28-.15c2.26,0.64,2.63.51,4-1.84-1.71-.21-3.34-0.46-5-0.58s-1.91-.4-2.16-2.12c1.05,0.14,2.05.33,3.06,0.38,1.31,0.06,2.63,0,3.94,0a2.07,2.07,0,0,1,2,1.74c0.44,1.48.72,3,1.06,4.51l0.11,0.52a0.12,0.12,0,0,0,.06.19c-0.09,1.29-.25,2.58-0.25,3.87,0,2.63.07,5.27,0.11,7.9a8.6,8.6,0,0,0,1.37,2.19c1.18,1,1.18,1.25.75,2.68A14.92,14.92,0,0,1,72,61a21.45,21.45,0,0,1-4.26,2.72c-0.54.33-1.12,0.6-1.85,1,0.92,0.75,1.62,1.27,2.25,1.87a1.27,1.27,0,0,1,.44,1c-0.8,2.19-1.76,4.3-4.08,5.34a14.5,14.5,0,0,1-3.56,1.48,10.34,10.34,0,0,1-3.39-.56c-0.62-.13-1.24-0.43-1.69.33a0.44,0.44,0,0,1-.4.12c-2-.67-4-1.25-5.51-2.85a15,15,0,0,1-1.39-1.63c-0.7-1-1.26-2-.6-3.33a8.83,8.83,0,0,0,.41-2Zm4.77-4c0,1,0,1.92,0,2.87a22.88,22.88,0,0,0,.36,2.71c0.13,0.72.65,0.73,1.18,0.44a1.41,1.41,0,0,0,.33-2.18,1.73,1.73,0,0,1-.38-0.93c-0.07-1.07-.1-2.15-0.1-3.23,0-1.81,0-3.61.06-5.42,0-.42.22-0.82,0.24-1.24a6,6,0,0,0-.1-1.55A1.1,1.1,0,0,0,53,52.14a8.65,8.65,0,0,0-.5,1.21c0,0.1,0,.25,0,0.34C51.28,56,52.38,58.5,52,60.89ZM62.7,65.61l0.4,0.15,1.7-1.4-0.35-.11a55.61,55.61,0,0,1,2-11c-1.31.16-2.36,0.51-2.63,1.81-0.1.46,0.33,1,.26,1.51-0.38,2.55-.85,5.09-1.26,7.63C62.72,64.64,62.73,65.13,62.7,65.61ZM60,64l0.7,0.14a6.65,6.65,0,0,0,.45-1.28c0.37-2.66.72-5.32,1-8a3,3,0,0,0-.31-1.06l-0.38,0a4.27,4.27,0,0,0-.79,1.63c0,2.09-1.27,4-.57,6.18a0.77,0.77,0,0,1,0,.23Q60.06,62.95,60,64Z" transform="translate(-5.87 -15.65)"/><path class="d" d="M80.29,116.4c-0.69,1.9,0,3.39.48,4.92a10.85,10.85,0,0,1-.18,6c-1.63-.32-3.06.33-4.6,0.81a22.08,22.08,0,0,1-4.61,1.14c-1.66.14-3.34,0.14-5,.33-1.29.15-2.55,0.59-3.84,0.73-3.16.32-6.32,0.62-9.5,0.76a11.81,11.81,0,0,1-3.33-.59c-2.53-.64-5-0.15-7.56,0a36.85,36.85,0,0,1-7.21-.74,3.57,3.57,0,0,1-2.2-1.27,4.05,4.05,0,0,1-.19-2.37c0.31-3.64.59-7.28,1-10.9a33.81,33.81,0,0,1,1.26-4.66c0.37-1.32.44-2.76,1.57-3.76a1.46,1.46,0,0,0,.21-0.42,2.79,2.79,0,0,1,.69-1.23c0.86-.08,1.92-0.49,2.51.61a2.33,2.33,0,0,1,.28,1c0,0.84,0,1.68,0,2.52a11.25,11.25,0,0,0,1.58,6c2,3.51,5.43,4.67,9.2,4.77,4,0.1,8,.06,11.93-0.23,3.19-.23,6.34-0.93,9.51-1.42l1.89-.3c1.52-.24,3.1-0.23,4.42-1.27A5.17,5.17,0,0,1,80.29,116.4Z" transform="translate(-5.87 -15.65)"/><path class="f" d="M62,134.12c0.28,1.69.59,3.37,0.83,5.06,0.28,1.92.5,3.84,0.73,5.76S62.7,148,61.72,149.3a15.49,15.49,0,0,0-2.65,6.43,2.72,2.72,0,0,0,1.65,3.14c1.42,0.57,2.85,1.12,4.3,1.69a4.72,4.72,0,0,1-5,1.26,6.42,6.42,0,0,0,.79-1.21c0.28-.75-0.15-1.14-1-0.94a0.79,0.79,0,0,1-.44.08c-1.76-1.23-3.48-.69-5.2.08a0.78,0.78,0,0,1-.3-0.07l0.06-.65h0a5,5,0,0,0,.46-5.54v0L54,152.82l-1.83-1.45-0.35-.17,0,0-0.22-.73V150.2l-0.21-3.11v0l0-.47v-0.23c0-1.54.08-3.09,0.09-4.63,0-1.1,0-2.2-.07-3.3s0-2.21.1-3.31a1.78,1.78,0,0,1,2-1.74c1.28,0,2.56-.22,3.84-0.26,1.44,0,2.89,0,4.34.05l0.21,0.38Z" transform="translate(-5.87 -15.65)"/><path class="e" d="M30,91.3c-1.72.64-3.29,1.27-4.89,1.81-1.27.43-2.62,0.71-3,2.43a4.89,4.89,0,0,0,.75,0c1.72-.19,3.44-0.41,5.16-0.56a2.83,2.83,0,0,1,1.37.28,1.28,1.28,0,0,1,1,1.54,2,2,0,0,1-2.18,1A4.88,4.88,0,0,0,23.64,99c-0.94.73-1.74,1.61-2.65,2.38a1.69,1.69,0,0,1-1.06.44,8.81,8.81,0,0,1-5.37-2.08,26.88,26.88,0,0,1-2.63-2.83A3.49,3.49,0,0,1,13,91.74a18.39,18.39,0,0,0,5.23-4.06c1.48-1.5,3.13-3.13,5.37-3.26S28.07,84,30,85.59a5.61,5.61,0,0,1,.46.47A2.64,2.64,0,0,1,28,87.17a3.78,3.78,0,0,0-3.5,1.36,2.93,2.93,0,0,0-.27.85,3.86,3.86,0,0,0,.84.2,14.1,14.1,0,0,0,1.79-.08C28.11,89.36,29.07,89.84,30,91.3Z" transform="translate(-5.87 -15.65)"/><path class="g" d="M47.61,29.1c-0.94-3.32,1.82-7.2,5.09-7.24,1.56,0,3.13.26,4.69,0.4a0.88,0.88,0,0,0,.55-0.08c2-1.56,4.37-1.44,6.71-1.22,3.29,0.31,6.86,3.73,7.13,6.65C71.86,28.52,71.6,29,70.67,29c-1.3,0-2.61,0-3.91-.07-2.34-.13-4.67-0.43-7-0.46-3.21,0-6.42.09-9.63,0.2A17.83,17.83,0,0,0,47.61,29.1Z" transform="translate(-5.87 -15.65)"/><path class="b" d="M55.19,49.61a9.39,9.39,0,0,1,.23-2.28c0.39-1.12.7-2.11-.72-2.81-0.44,1.14-1.31,2.15-1,3.69a1.65,1.65,0,0,1-1.43,1.86,2.1,2.1,0,0,1-.11-0.76,28.31,28.31,0,0,1,1.37-4.9,6.46,6.46,0,0,0,.22-4.14,10.81,10.81,0,0,1,.4-4.19c0-.15,0-0.3.07-0.58L48.9,36c0-1.8.38-2.2,1.92-2.37S53.64,33.27,55,33a1,1,0,0,0,.53-0.39c0.52-.7,1-1.41,1.69-2.35l-4.52.24c-0.55,0-1.1.08-1.64,0.13,1.91-.29,3.81-0.7,5.73-0.84a13.14,13.14,0,0,1,3.14.54,4.16,4.16,0,0,0-1.88.51,10,10,0,0,0-2.68,8.75,5.5,5.5,0,0,0,2.32,3.94c3,1.68,5.84,0,6.66-3,0.44-1.62-.36-2.94-0.78-4.37L64.77,38l0.89-.32-0.17-2.17c1.08,2.39.46,4.58-.71,6.75a2.82,2.82,0,0,0-.22,1.62,34.76,34.76,0,0,1,.71,4.53c0,0.73-.86,1.46-1.33,2.2l-0.36-.15L63,45.13c-0.9.86-.91,1.11-0.44,2.28s0.32,2-1.08,2.86a10.69,10.69,0,0,1-.87-1.85,12.54,12.54,0,0,1-.15-2.25c-1.6,1.14-.66,2.77-1.28,3.91H57.59l0.61-3.86-1.5-.29-0.29,4.63a2.7,2.7,0,0,0,3,.54,14.23,14.23,0,0,1,3.06-.52,0.71,0.71,0,0,1,.6.21,0.7,0.7,0,0,1-.05.66,3.59,3.59,0,0,1-1.2.94c-1.35.49-2.76,0.82-4.12,1.31a1.44,1.44,0,0,0-.81,1c-0.23,2.28-.35,4.57-0.51,6.86l0.42,0c0.34-1.45.65-2.9,1-4.33a6.07,6.07,0,0,1,.81-1.67,2,2,0,0,1,.81-0.42,2.49,2.49,0,0,1,.19,1.29c-1.36,1.78-1.31,3.83-1.34,5.88a22.14,22.14,0,0,1-.16,3.17A2.48,2.48,0,0,1,57,66.77,2.66,2.66,0,0,0,55.83,64a2.19,2.19,0,0,1-.68-1.43c-0.11-1.35,0-2.7-.09-4.06-0.06-1.7,0-3.36.92-4.61a26.44,26.44,0,0,1-2.15-2.06c-0.69-.82,0-1.87,1.19-2l0.28,0Z" transform="translate(-5.87 -15.65)"/><path class="e" d="M73.87,134.12c0.07,1.95,0,3.91.26,5.84,0.21,1.55-.56,2.16-1.75,2.62L65,145.44l-1.69-12c0.32-1.35,1.33-1.62,2.51-1.53,2.36,0.18,4.71.39,7.07,0.59l1,0.24v1.42Z" transform="translate(-5.87 -15.65)"/><path class="e" d="M42.06,143.43l-0.79-.23-1-8.8c0.18-1.44.55-1.81,1.87-1.56,2.56,0.48,5.1,1,7.63,1.61a1.72,1.72,0,0,1,.32.79q0,2,0,4a1,1,0,0,0-.07.15,0.21,0.21,0,0,0,.07.06l0,0.37h0l0,0.71,0.06,1.7-0.25,2.85-0.89.45-1.34-.19-0.42,0-2.23-.48-0.09,0-0.37-.24h0l-0.5-.2L44,144.4l-0.09,0-0.3-.17a0.11,0.11,0,0,0-.15-0.08L43.16,144Z" transform="translate(-5.87 -15.65)"/><path class="e" d="M63.59,36.2c0.42,1.43,1.22,2.75.78,4.37-0.82,3-3.7,4.7-6.66,3a5.5,5.5,0,0,1-2.32-3.94,10,10,0,0,1,2.68-8.75A4.16,4.16,0,0,1,60,30.38c0.19,0.31.39,0.6,0.55,0.92a7.15,7.15,0,0,0,.27.75C61.71,33.44,62.66,34.82,63.59,36.2Z" transform="translate(-5.87 -15.65)"/><path class="e" d="M30.44,165.68l-1,.1-2.73.48-0.08,0-0.07.06h-1L23,166H22L21.59,166h-1.9l0,0-0.3-.48a0.17,0.17,0,0,0,0-.2l0-.23,0-.51,0.07-.46c0.89-1.26,1.78-2.53,2.69-3.79a6.58,6.58,0,0,1,.74-0.74l1.26-.72a0.11,0.11,0,0,0,.15-0.1l0.73-.32,0.58,0.17,1.58,0.46,0.78,0.3,3.77,2.11h0L32.85,162,35,163.87l-0.36.67,0,0-0.58.29-0.57.24Z" transform="translate(-5.87 -15.65)"/><path class="e" d="M43.48,153.11a0.09,0.09,0,0,0,.16,0l0.71-.21,0,0,1.26-.62-0.05-.06,0,0.07,0.91-.32h0l0.7-.06,0.74,0,0.5-.17a0.18,0.18,0,0,0,.21,0l1.08-.18h0.08l0-.07,0.42,0.76,0,0.52L50.32,153l0.3,0.34,0.7,0.22L53.49,156l0.16,0.42,0.07,0.54,0,0.72-4.56,2.84-2.82-3.83-0.48-.3,0,0L45.56,156l-0.3-.34-0.16-.18-0.47-.28-0.48-.3,0,0-0.28-.25-0.26-.2-0.23-.18a0.11,0.11,0,0,0-.15-0.09L43,154h0Z" transform="translate(-5.87 -15.65)"/><path class="e" d="M41.56,162.39l-0.56.06-1.21.19-1,.13c-0.44-1.23-1.63-2.2-1.46-3.7a0.21,0.21,0,0,0,0-.22L37.26,154l0.17-.2,0.76,0L38.6,154l2.95,1.51,0.34,0.29,0,0,0.34,0.42h0l0.43,0.33,0,0,0.3,0.21h0l0.29,0.21,0.09,0,0.36,0.36c0.8,1.1,1.6,2.18,2.38,3.29,0.37,0.53.23,0.93-.42,1.08l-1,.09-1.72.29-0.58.11-0.36,0Z" transform="translate(-5.87 -15.65)"/><path class="d" d="M14.11,89.06c1.69-5.1,4.14-9.62,9.77-11.94l0.22,5,1.08-1.24c0.33,1.28.3,1.14-.9,1.38a6.07,6.07,0,0,0-2.42,1.22c-1.77,1.39-3.44,2.9-5.17,4.33-0.69.57-1.44,1-2.17,1.57Z" transform="translate(-5.87 -15.65)"/><path class="e" d="M41,148.8l0.42-1.49-0.21-.76V146l0.69-.08h0l0.95,0.42L43,146.38l3,1,1.15,0.66,0.52,0.2h1l0.24,0,1.34,0.35-3.48,1.56-0.65.25-1.77.56-0.39.16-1,.19-1.93.17-0.53,0-0.24-.36,0.3-1.83,0.2-.32,0,0Z" transform="translate(-5.87 -15.65)"/><path class="e" d="M29,156.48a0.17,0.17,0,0,0,.2-0.08l0.27-.16h0l2.38-.74h0l1.54-.47,0.36,0,0.85-.21,0.93-.14,0.06,0.65-0.12.42q0,2.46-.06,4.91l-0.68.09h0l-0.46-.37a12.85,12.85,0,0,0-5.48-3l-0.39-.65,0.31-.08Z" transform="translate(-5.87 -15.65)"/><path class="a" d="M75,38.83L74.8,35.37a1.29,1.29,0,0,1,.57.28c0.35,1.27,1.41,2.41.59,3.91a1.91,1.91,0,0,0,.15,1.48c1,2.05.37,4.09,0.07,6.14C76,48.27,76,49.35,75.83,50.68l-1-1.3a5.29,5.29,0,0,1-.44-1.56c0.09-2.17.28-4.34,0.43-6.51C74.91,40.48,75,39.66,75,38.83Z" transform="translate(-5.87 -15.65)"/><path class="a" d="M45.29,34.55L42,51.36l-0.39,0c0.14-1.62-.5-3.25.34-4.87,0.34-.66,1.09-1.36,0-2.16a3,3,0,0,1,.18-1.36A23.21,23.21,0,0,1,44.72,35c0.11-.2.26-0.38,0.39-0.57Z" transform="translate(-5.87 -15.65)"/><path class="b" d="M75,38.83c0,0.83-.09,1.65-0.15,2.48-0.15,2.17-.34,4.34-0.43,6.51a5.29,5.29,0,0,0,.44,1.56l-1.18.49c0-2.63-.12-5.27-0.11-7.9,0-1.29.16-2.58,0.25-3.87Z" transform="translate(-5.87 -15.65)"/><path class="e" d="M24,52.54V60l-0.58,0a25.48,25.48,0,0,1-.31-3.54,30.65,30.65,0,0,1,.6-3.75Z" transform="translate(-5.87 -15.65)"/><path class="a" d="M41.83,37.92c-0.53-1.47,1.68-5.65,2.87-6.32Z" transform="translate(-5.87 -15.65)"/><path class="e" d="M25.14,52.33c0.31,1.35.66,2.69,0.92,4,0.13,0.71.33,1.46-.48,2a5.09,5.09,0,0,0-.41,1.09c0-.78,0-1.56,0-2.34,0-1.61-.12-3.22-0.18-4.83l0.08,0Z" transform="translate(-5.87 -15.65)"/><path class="b" d="M51.34,138.43c0,1.1.08,2.2,0.07,3.3,0,1.54-.06,3.09-0.09,4.63a17.93,17.93,0,0,1-.38-1.84c-0.11-1.08-.15-2.17-0.22-3.22Z" transform="translate(-5.87 -15.65)"/><path class="b" d="M81.31,87.58l-2.87-.25,0.23-1,1.91-1-0.63,1.2Z" transform="translate(-5.87 -15.65)"/><path class="e" d="M22.74,53.77c-0.15,1.51-.3,3-0.47,4.54a1.36,1.36,0,0,1-.34.48,1.2,1.2,0,0,1-.36-0.47,7.49,7.49,0,0,1,.06-1.89c0.24-1.1.61-2.18,0.92-3.26Z" transform="translate(-5.87 -15.65)"/><path class="f" d="M25.14,52.33l-0.08,0-0.08,0c0.1-1.55-.64-3.13-0.16-4.67h0.54Z" transform="translate(-5.87 -15.65)"/><path class="b" d="M54.45,153.58a5,5,0,0,1-.46,5.54,1.44,1.44,0,0,1,0-.58C54.72,156.93,54.19,155.21,54.45,153.58Z" transform="translate(-5.87 -15.65)"/><path class="a" d="M77.16,46.69l0.73,3.89-0.43.09-0.78-3.89Z" transform="translate(-5.87 -15.65)"/><path class="f" d="M22.74,53.77l-0.2-.59,1.24-2.53L24,50.71q0,0.91,0,1.82l-0.29.24Z" transform="translate(-5.87 -15.65)"/><path class="h" d="M46.48,77.62a1.71,1.71,0,0,1-.37-0.77A21.41,21.41,0,0,1,47.42,75c0,0.35,0,.72,0,1.09Z" transform="translate(-5.87 -15.65)"/><path class="b" d="M31.63,161.5l-3.77-2.11C29.29,159.78,31,159.74,31.63,161.5Z" transform="translate(-5.87 -15.65)"/><path class="b" d="M51.34,147.09l0.21,3.11A2.67,2.67,0,0,1,51.34,147.09Z" transform="translate(-5.87 -15.65)"/><path class="b" d="M46.05,147.39l-3-1A3.25,3.25,0,0,1,46.05,147.39Z" transform="translate(-5.87 -15.65)"/><path class="b" d="M30.44,165.68l3.13-.63A2.81,2.81,0,0,1,30.44,165.68Z" transform="translate(-5.87 -15.65)"/><path class="b" d="M50.1,139.29q0-2,0-4v4Z" transform="translate(-5.87 -15.65)"/><path class="b" d="M26.75,166.25l2.73-.48A2.4,2.4,0,0,1,26.75,166.25Z" transform="translate(-5.87 -15.65)"/><path class="b" d="M49.95,145.15l0.25-2.85C50.35,143.27,51.1,144.3,49.95,145.15Z" transform="translate(-5.87 -15.65)"/><path class="b" d="M45.08,144.9l2.23,0.48c-0.38.06-.77,0.11-1.14,0.19C45.57,145.7,45.15,145.59,45.08,144.9Z" transform="translate(-5.87 -15.65)"/><path class="b" d="M51.06,30.69H48.92C49.63,29.75,50.35,30.57,51.06,30.69Z" transform="translate(-5.87 -15.65)"/><path class="b" d="M23,166l2.65,0.26Z" transform="translate(-5.87 -15.65)"/><path class="b" d="M31.9,155.5l-2.38.74Z" transform="translate(-5.87 -15.65)"/><path class="b" d="M19.69,166h1.9C21,166.22,20.32,166.7,19.69,166Z" transform="translate(-5.87 -15.65)"/><path class="b" d="M50.3,152.12l-0.42-.76,0.56-.35Z" transform="translate(-5.87 -15.65)"/><path class="b" d="M45.64,152.22l-1.26.62Z" transform="translate(-5.87 -15.65)"/><path class="b" d="M24.05,158.88l-1.26.72C23.08,159.12,23.21,158.38,24.05,158.88Z" transform="translate(-5.87 -15.65)"/><path class="b" d="M39.78,162.64l1.21-.19Z" transform="translate(-5.87 -15.65)"/><path class="b" d="M43.48,153.11L43,154l-0.46-.47Z" transform="translate(-5.87 -15.65)"/><path class="b" d="M41,151.48l1.93-.17Z" transform="translate(-5.87 -15.65)"/><path class="b" d="M27.08,159.09l-1.58-.46Z" transform="translate(-5.87 -15.65)"/><path class="b" d="M33.43,155l-1.54.47Z" transform="translate(-5.87 -15.65)"/><path class="b" d="M32.85,162l-1.23-.53Z" transform="translate(-5.87 -15.65)"/><path class="b" d="M24.92,158.46l-0.73.32C24.35,158.46,24.34,157.79,24.92,158.46Z" transform="translate(-5.87 -15.65)"/><path class="b" d="M51.54,150.44l0.22,0.73C50.91,151.16,51.22,150.8,51.54,150.44Z" transform="translate(-5.87 -15.65)"/><path class="b" d="M28.46,156.73l0.39,0.65-0.72-.19Z" transform="translate(-5.87 -15.65)"/><path class="b" d="M47.72,145.42l1.34,0.19Z" transform="translate(-5.87 -15.65)"/><path class="b" d="M48.05,162.26a0.15,0.15,0,0,1,.29-0.11A0.15,0.15,0,0,1,48.05,162.26Z" transform="translate(-5.87 -15.65)"/><path class="b" d="M44.61,161.77l1-.09Z" transform="translate(-5.87 -15.65)"/><path class="b" d="M79.87,43.16l-0.46,0,0.27-.41Z" transform="translate(-5.87 -15.65)"/><path class="b" d="M34.68,164.54l0.36-.67Z" transform="translate(-5.87 -15.65)"/><path class="b" d="M51.31,146.59l0,0.47-0.38-.16Z" transform="translate(-5.87 -15.65)"/><path class="b" d="M42.91,146.31L42,145.88Z" transform="translate(-5.87 -15.65)"/><path class="b" d="M73.77,37.92l-0.11-.52Z" transform="translate(-5.87 -15.65)"/><path class="b" d="M42,145.88l-0.69.08C41.4,145.1,41.7,145.69,42,145.88Z" transform="translate(-5.87 -15.65)"/><path class="b" d="M73.88,132.7l-1-.24Z" transform="translate(-5.87 -15.65)"/><path class="b" d="M54,152.82l0.45,0.73Z" transform="translate(-5.87 -15.65)"/><path class="b" d="M46.54,151.9l-0.91.32Z" transform="translate(-5.87 -15.65)"/><path class="b" d="M49.77,151.43l-1.08.18Z" transform="translate(-5.87 -15.65)"/><path class="b" d="M51.32,153.53l-0.7-.22Z" transform="translate(-5.87 -15.65)"/><path class="b" d="M53.7,157.64l0-.72Z" transform="translate(-5.87 -15.65)"/><path class="b" d="M34.78,160.73l0.68-.09Z" transform="translate(-5.87 -15.65)"/><path class="b" d="M44.35,152.86l-0.71.21Z" transform="translate(-5.87 -15.65)"/><path class="b" d="M50.14,140.59l0-.71Z" transform="translate(-5.87 -15.65)"/><path class="b" d="M44.6,163.67h0Z" transform="translate(-5.87 -15.65)"/><path class="b" d="M43.34,163.72l-0.87.31Z" transform="translate(-5.87 -15.65)"/><path class="b" d="M47.23,151.85l-0.7.06Z" transform="translate(-5.87 -15.65)"/><path class="b" d="M40.25,151.16l0.24,0.36-0.32,0Z" transform="translate(-5.87 -15.65)"/><path class="b" d="M41.26,146.56l0.21,0.76Z" transform="translate(-5.87 -15.65)"/><path class="b" d="M34.65,154.78L33.8,155Z" transform="translate(-5.87 -15.65)"/><path class="b" d="M44.12,144.45l0.5,0.2Z" transform="translate(-5.87 -15.65)"/><path class="b" d="M34.33,160.36l0.46,0.37Z" transform="translate(-5.87 -15.65)"/><path class="b" d="M26.12,166.28h0Z" transform="translate(-5.87 -15.65)"/><path class="b" d="M22,166h0Z" transform="translate(-5.87 -15.65)"/><path class="b" d="M19.42,165.52l0.3,0.48Z" transform="translate(-5.87 -15.65)"/><path class="b" d="M42.32,162.17l0.58-.11Z" transform="translate(-5.87 -15.65)"/><path class="b" d="M46.12,150.39l0.65-.25Z" transform="translate(-5.87 -15.65)"/><path class="b" d="M38.21,152.25a0.22,0.22,0,0,1-.1,0,0.22,0.22,0,0,1-.08-0.06Z" transform="translate(-5.87 -15.65)"/><path class="b" d="M34.13,164.8l0.58-.29Z" transform="translate(-5.87 -15.65)"/><path class="b" d="M48.47,151.65l-0.5.17Z" transform="translate(-5.87 -15.65)"/><path class="b" d="M19.37,164.12l-0.07.46Z" transform="translate(-5.87 -15.65)"/><path class="b" d="M47.72,148.26l-0.52-.2Z" transform="translate(-5.87 -15.65)"/><path class="b" d="M45.85,156.36l0.48,0.3Z" transform="translate(-5.87 -15.65)"/><path class="b" d="M44.16,154.93l0.48,0.3Z" transform="translate(-5.87 -15.65)"/><path class="b" d="M42.61,156.55l-0.43-.33Z" transform="translate(-5.87 -15.65)"/><path class="b" d="M45.56,156l0.32,0.35Z" transform="translate(-5.87 -15.65)"/><path class="b" d="M42.18,156.23l-0.34-.42Z" transform="translate(-5.87 -15.65)"/><path class="b" d="M38.6,154l-0.4-.17Z" transform="translate(-5.87 -15.65)"/><path class="b" d="M44.92,164.07a0.17,0.17,0,0,1,.09-0.2L45.14,164Z" transform="translate(-5.87 -15.65)"/><path class="b" d="M48.92,148.23l-0.24,0Z" transform="translate(-5.87 -15.65)"/><path class="b" d="M51.8,151.19l0.35,0.17Z" transform="translate(-5.87 -15.65)"/><path class="b" d="M35.52,155.72l0.12-.42Z" transform="translate(-5.87 -15.65)"/><path class="b" d="M19.34,165.09l0,0.23a1.1,1.1,0,0,1-.11-0.16A0.25,0.25,0,0,1,19.34,165.09Z" transform="translate(-5.87 -15.65)"/><path class="b" d="M41.89,155.83l-0.34-.29Z" transform="translate(-5.87 -15.65)"/><path class="b" d="M61.85,133.55l-0.21-.38Z" transform="translate(-5.87 -15.65)"/><path class="b" d="M44,151.12l0.39-.16Z" transform="translate(-5.87 -15.65)"/><path class="b" d="M43.9,154.71L44.18,155Z" transform="translate(-5.87 -15.65)"/><path class="b" d="M43.16,144l0.34,0.21Z" transform="translate(-5.87 -15.65)"/><path class="b" d="M43.65,144.25l0.3,0.17Z" transform="translate(-5.87 -15.65)"/><path class="b" d="M40.75,149l-0.2.32Z" transform="translate(-5.87 -15.65)"/><path class="b" d="M43.41,154.34l0.23,0.18Z" transform="translate(-5.87 -15.65)"/><path class="b" d="M43,154l0.31,0.25Z" transform="translate(-5.87 -15.65)"/><path class="b" d="M41,148.8l-0.26.19Z" transform="translate(-5.87 -15.65)"/><path class="b" d="M44.62,144.65L45,144.89Z" transform="translate(-5.87 -15.65)"/><path class="b" d="M50.12,139.87l0-.37Z" transform="translate(-5.87 -15.65)"/><path class="b" d="M37.32,158.85a0.21,0.21,0,0,1,0,.22,0.91,0.91,0,0,1-.08-0.15A0.19,0.19,0,0,1,37.32,158.85Z" transform="translate(-5.87 -15.65)"/><path class="b" d="M37.44,153.81l-0.17.2Z" transform="translate(-5.87 -15.65)"/><path class="b" d="M43.61,157.31L43.25,157Z" transform="translate(-5.87 -15.65)"/><path class="b" d="M43.16,156.92l-0.29-.21Z" transform="translate(-5.87 -15.65)"/><path class="b" d="M42.88,156.73l-0.3-.21Z" transform="translate(-5.87 -15.65)"/><path class="b" d="M29,156.48l-0.28.17Z" transform="translate(-5.87 -15.65)"/><path class="b" d="M41.56,162.39l0.4-.17Z" transform="translate(-5.87 -15.65)"/><path class="b" d="M50.32,153l-0.06-.34Z" transform="translate(-5.87 -15.65)"/><path class="b" d="M29.51,156.24l-0.27.16Z" transform="translate(-5.87 -15.65)"/><path class="b" d="M53.65,156.38L53.49,156Z" transform="translate(-5.87 -15.65)"/><path class="b" d="M45,163.8a0.17,0.17,0,0,1-.2-0.09l0.16-.13Z" transform="translate(-5.87 -15.65)"/><path class="b" d="M45.1,155.5l0.16,0.18Z" transform="translate(-5.87 -15.65)"/><path class="e" d="M76.53,146.11c-0.56,1.25-1.07,2.63-1.76,3.92-1,1.78-2,3.51-3.1,5.21-0.47.74-1,1.62-2.13,0.88a2,2,0,0,1-.64-0.82c-0.84-1.87-1.64-3.76-2.48-5.63s-0.65-2.47,1.53-3.1,4.4-1.35,6.59-2A1.79,1.79,0,0,1,76.53,146.11Z" transform="translate(-5.87 -15.65)"/><path class="e" d="M81.41,153.31c-0.61,1.09-1.22,2.19-1.85,3.27-0.38.66-.79,1.3-1,1.65H71.16l6.29-11.37,1.45,2.28,0,0.1,0.1,0,1.49,0.88c1,0.77,1.72,1.61,1.13,3l-0.06.08Z" transform="translate(-5.87 -15.65)"/><path class="e" d="M83.88,152.64c2,0.48,8.78,5,9.62,6.57l-3-.53a3.77,3.77,0,0,0-.71-0.13c-1.7,0-3.4.11-5.09,0.14-1.23,0-2.45,0-3.88,0Z" transform="translate(-5.87 -15.65)"/><path class="e" d="M62.74,149.3c1.71,0.41,1.7,1.87,2.19,2.86,1,2,1.69,4.06,2.53,6.14a10,10,0,0,1-6-1.89,2.77,2.77,0,0,1-.8-2.47A32.62,32.62,0,0,1,62.74,149.3Z" transform="translate(-5.87 -15.65)"/><path class="c" d="M81.65,153.11c0.59-1.36-.17-2.2-1.13-3,1.11-.14,1.46.65,1.62,1.48C82.24,152.13,82.72,152.93,81.65,153.11Z" transform="translate(-5.87 -15.65)"/><path class="c" d="M79,149.26l-0.1,0,0-.1Z" transform="translate(-5.87 -15.65)"/><path class="c" d="M81.41,153.31l0.18-.12Z" transform="translate(-5.87 -15.65)"/><path class="c" d="M44.75,85.28C43,80,43.23,74.69,43.38,69.38l0.33-.13a3.39,3.39,0,0,1,.58.75,3.11,3.11,0,0,1,.29,1.28,33.93,33.93,0,0,0,.74,8.89c0.17,0.81,0,1.7.18,2.49A18.46,18.46,0,0,0,46.55,85a1.11,1.11,0,0,1,.06.86,1.13,1.13,0,0,1-.94.12A3.81,3.81,0,0,1,44.75,85.28Z" transform="translate(-5.87 -15.65)"/><path class="c" d="M70.87,73.63c-0.38,2.15-5,5.65-7.06,4C66.1,76.08,69.23,76.12,70.87,73.63Z" transform="translate(-5.87 -15.65)"/><path class="h" d="M74.14,68.16l-1.3,3.61C73.32,68.19,73.32,68.19,74.14,68.16Z" transform="translate(-5.87 -15.65)"/><path class="b" d="M72.09,102.44a9.31,9.31,0,0,1,2.84-5.27,5,5,0,0,0,1.17-1.52,3.06,3.06,0,0,1,4.41-1.51c0.89,0.53,1.73,1.14,2.62,1.66,1.75,1,1.37,2.66,1,4s-0.91,3.24-2.84,3.71a1.23,1.23,0,0,1-.7.07c-1.84-.85-3.19.19-4.57,1.13-1.22.83-2.1,0.62-2.88-.69C72.79,103.49,72.4,102.92,72.09,102.44ZM82,99.19c0-.06,0-0.37,0-0.69-0.09-1.25-1-1.69-2-2s-1.73-.56-2.5.32a8.33,8.33,0,0,1-1.22.7,6.09,6.09,0,0,0-2,1.84A3.53,3.53,0,0,0,74.4,102c0.26,0.5,1.31.64,2,.83a1.4,1.4,0,0,0,.86-0.32c0.87-.54,1.72-1.1,2.56-1.69C80.52,100.37,81.15,99.86,82,99.19Z" transform="translate(-5.87 -15.65)"/><path class="g" d="M53,94a4.81,4.81,0,0,1,2.48-4.23,3,3,0,0,1,3.39,0,5.66,5.66,0,0,1,2.9,3.16,1.24,1.24,0,0,1-1.19,1.82A2.81,2.81,0,0,0,58,96c-1,1.31-2.41.71-3.63,0.31A2,2,0,0,1,53,94Z" transform="translate(-5.87 -15.65)"/><path class="i" d="M58.25,104.53c0.16-.76.34-1.59,0.53-2.42A3.51,3.51,0,0,1,62,99.8a6.86,6.86,0,0,1,1.85-.2,4.68,4.68,0,0,1,1.8,1,2,2,0,0,1,0,1c0,0.33,0,.65,0,1a15.48,15.48,0,0,1,.14,2.59c-0.21,1.77-1.35,2.39-3,1.74a9.47,9.47,0,0,1-1.06-.54Z" transform="translate(-5.87 -15.65)"/><path class="h" d="M56.67,108.24c0.65,0.85,1,1.72,1.62,2,0.83,0.39,1.27.83,1.1,1.68a2.59,2.59,0,0,1-1.83,2.29,1.22,1.22,0,0,0-.67.46c-0.81,1.33-2,1.6-3.17.61-0.92-.76-1.43-1.95-2.73-2.33a1.68,1.68,0,0,1-.3-1.46A3,3,0,0,1,52,109.84C53.57,109.15,55.28,108.7,56.67,108.24Z" transform="translate(-5.87 -15.65)"/><path class="j" d="M54.93,101.17c0,1.56-2.88,5.29-4,5.49a1.72,1.72,0,0,1-1.17-.35c-0.67-.5-1.23-1.14-1.87-1.68-1-.83-1.07-1.3-0.33-2.33a32.44,32.44,0,0,1,2.38-3.14c1.26-1.37,2-1.5,3.39-.36A9,9,0,0,1,54.93,101.17Z" transform="translate(-5.87 -15.65)"/><path class="k" d="M70.19,109.22c1.31,0.72,1.4,1.39.37,2.39-0.14.14-.31,0.25-0.44,0.4-0.44.49-.82,1.35-1.31,1.41a17.66,17.66,0,0,1-3.53-.19,0.92,0.92,0,0,1-.43-0.2c-0.6-.44-1.28-3.46-1-4.27a3.07,3.07,0,0,1,3-1.77h1.79C70.44,107,70.82,107.53,70.19,109.22Z" transform="translate(-5.87 -15.65)"/><path class="b" d="M52,60.89c0.36-2.38-.74-4.85.42-7.19,0-.1,0-0.24,0-0.34a8.65,8.65,0,0,1,.5-1.21,1.1,1.1,0,0,1,.66.23,6,6,0,0,1,.1,1.55c0,0.42-.23.83-0.24,1.24,0,1.8-.06,3.61-0.06,5.42,0,1.08,0,2.16.1,3.23a1.73,1.73,0,0,0,.38.93,1.41,1.41,0,0,1-.33,2.18c-0.53.29-1,.28-1.18-0.44A22.88,22.88,0,0,1,52,63.76C52,62.8,52,61.84,52,60.89Z" transform="translate(-5.87 -15.65)"/><path class="b" d="M62.7,65.61c0-.48,0-1,0.1-1.45,0.42-2.55.89-5.08,1.26-7.63,0.07-.48-0.35-1-0.26-1.51,0.27-1.3,1.32-1.65,2.63-1.81a55.61,55.61,0,0,0-2,11l0.35,0.11-1.7,1.4Z" transform="translate(-5.87 -15.65)"/><path class="b" d="M60,64q0-1.08.1-2.16a0.77,0.77,0,0,0,0-.23c-0.71-2.14.61-4.09,0.57-6.18a4.27,4.27,0,0,1,.79-1.63l0.38,0a3,3,0,0,1,.31,1.06c-0.31,2.66-.65,5.32-1,8a6.65,6.65,0,0,1-.45,1.28Z" transform="translate(-5.87 -15.65)"/><path class="e" d="M55.19,49.61l0.14,0.14-0.28,0Z" transform="translate(-5.87 -15.65)"/><path class="e" d="M82,99.19c-0.88.67-1.51,1.18-2.17,1.64-0.84.59-1.69,1.14-2.56,1.69a1.4,1.4,0,0,1-.86.32c-0.73-.19-1.78-0.33-2-0.83a3.53,3.53,0,0,1-.19-2.68,6.09,6.09,0,0,1,2-1.84,8.33,8.33,0,0,0,1.22-.7c0.77-.88,1.6-0.63,2.5-0.32s1.92,0.79,2,2C82,98.82,82,99.13,82,99.19Z" transform="translate(-5.87 -15.65)"/></svg>