<svg xmlns="http://www.w3.org/2000/svg" viewBox="0 0 104.29 146.65"><defs><style>.a{fill:#55ddf6;}.b{fill:#ecbcb4;}.c{fill:#bf7267;}.d{fill:#a39f9f;}.e{fill:#fdfdfd;}.f{fill:#ea4b2e;}.g{fill:#211c1f;}</style></defs><title>sculpt</title><path class="a" d="M102.76,98.33l0.31-.69,0.68,1v0.41l0,0.62,1.52,7.1c0.22,1,.43,2.06.65,3.1L106,113c0,0.47.08,0.95,0.15,1.42,0.11,0.83-.21,1.67.68,2.44,0.48,0.42.32,1.57,0.43,2.4,0.18,1.33.37,2.65,0.51,4,0.08,0.82.08,1.65,0.11,2.48a0.9,0.9,0,0,0,0,.12c-0.09.76,0.09,1.89-.33,2.2s-1.52-.09-2.29,0c-2,.21-4,0.53-6,0.78-1,.13-2,0.17-3,0.29-2.06.23-4.12,0.48-6.18,0.73l-4.08.47-0.71.05-1.93-.08-1.44-.19a0.16,0.16,0,0,0-.22,0L81,130l-1.91,0-1.21.11-0.7.14-1,0-2.38.19-1.93.11-2.9.59-2.87.55-1,.17-0.48.11-0.75.11-0.43,0-1.32.2H61.5l-1.41.07-0.37.12H59.4l-2.17.12c-1.52.15-3,.27-4.54,0.45-0.74.09-1.46,0.29-2.19,0.44l-1.05-.7,0.9-5.45v0l0.34-1,0.58-2.36,0.17-.51,0.18-.49,0.16-.79,0.2-.85c0.39-.78.8-1.54,1.15-2.34s0.52-1.44.77-2.17l0.27-.56,0-.45,1.35-3.38,0.3-.7,0.13-.76,1.37-3.59,0.13-.45,0.23-.48v0l0.1-.21L58,105.9l0.25-.53a0.21,0.21,0,0,0,.17-0.12l2.65,0.38c0.25,0-.75-2.72-1.88-3a0.13,0.13,0,0,0,0-.17l-0.26-.17H58.17a12.74,12.74,0,0,1-5.6-1.9A14.29,14.29,0,0,0,51,99.56,14,14,0,0,0,49.3,98.5c-3-1.37-5.47-3.59-8-5.69-0.39-.33-0.81-0.62-1.22-0.92l-0.37-.29H39.8l-2-2.36c-1.94-2.32-3.9-4.62-5.79-7a28.26,28.26,0,0,1-1.78-2.82c-0.3-1,.53-1.25,1.14-1.49a11.58,11.58,0,0,0,4.8-4l1.59-1.71,1,1.44c0.24,1.19.45,2.38,0.72,3.56A2.68,2.68,0,0,0,40,78l0.23,0.73,0.39,1.52c1.55,1.69,3.06,3.42,4.65,5.06a38.52,38.52,0,0,0,12.2,8.62c1.41,0.62,2.88,1.09,4.32,1.63l1,0.39c2.93,0.71,3.06-1.74,2.08-1.89-0.62-.1-0.85-0.44-0.39-1s1-1,1.42-1.53c0.86-1,1.71-2.09,2.48-3.19a3.13,3.13,0,0,0-.65-1l0.37-.43,1.37-.35V89c1-.48,1.85-0.86,2.06-1.94l0.89,0.12,0.17,1.69,1.73-1.28c2.38-.14,4.77-0.19,7.13-0.46,3.19-.36,5.79-2.06,8.26-4a21.29,21.29,0,0,1,2.08-1.29c0.07,1.78.78,2.25,2.33,1.43A10.85,10.85,0,0,0,95.64,82c1,0.6,1.57,1.87,3,1.55a2.61,2.61,0,0,0,2.66-.08,1.42,1.42,0,0,1,1,1.71,11,11,0,0,0,0,1.16l0,0.43a0.93,0.93,0,0,0-.65,1.3c0.19,0.69.31,1.39,0.46,2.09a4.22,4.22,0,0,0-.29,3.67,19.11,19.11,0,0,1,.31,2.12l0,0.72Z" transform="translate(-6.99 -9.16)"/><path class="b" d="M84.26,37.48L84,37.34l-3.25-.11,0,0,0.05,0-0.68.52L80,37.68l0.06,0.07-0.43,1,0.87,0.79h0c1,1.48,1,2.37,0,3.5a0.1,0.1,0,0,1-.08.14l-0.24.24-0.23.2,0,0-2,2.15a2.07,2.07,0,0,1,.63-2.41c0.95-.65.77-1.3,0.38-2.09l-1.18.06-1.14.07-0.24.06a3.17,3.17,0,0,1-1,.34,1.25,1.25,0,0,0-1.3,1.38c-0.05,1.23.17,2.44,1.5,3,1,0.39,2,.62,3,0.92l-0.08.4-0.6.93q-1.34,1.66-3.51-.21c-0.9.21-.19,0.6-0.08,0.89,0.31,0.83.64,1.64,1,2.46l0.1,2h1.18l1.73-.38,3.68-.85,0.18-.52-0.07-1.22,0-.72L82,49.59c-0.77-1.58-1.94-3.1-.78-5a6.44,6.44,0,0,1,.57-0.7l0.65,0.73,1.26-.6a1.52,1.52,0,0,1,0-.78,5.13,5.13,0,0,0,1.09-4.18l0-.48-0.32-.92Z" transform="translate(-6.99 -9.16)"/><path class="b" d="M60.07,151.2c0.37,0,.91-0.6,1.06.28,0.71-.6,1.43-1.17,2.11-1.8a10.21,10.21,0,0,0,.93-1.15l-1-1.65-0.84-1.33v0l-0.07.06-0.09,0-1.06-1.83-1.14.38c-1.69.91-3.32,2-5.08,2.71-2.64,1.11-5.21,2.25-7,4.64l2.39,1.41,0.08,0,0.05,0.08h2.77l0.89-.19,0.53-.05,0.88-.09,0.5-.1,0.24-.08,1.59-.54Z" transform="translate(-6.99 -9.16)"/><path class="c" d="M106.47,84a6.44,6.44,0,0,0,3.48-3.21,1.65,1.65,0,0,1-2.15-.68c-0.5-.7-0.91-1.46-1.36-2.19a42.36,42.36,0,0,1-.1-4.36c0.14-1.94.54-3.86,0.75-5.8a14.83,14.83,0,0,0-.93-6.33l-0.68-.77L105,60.46l-0.95,0,0,1.37,0.05,0.39c0.72,1.58.13,3.13-.08,4.69v0L103.2,71.7,103,72.93l-0.37,1.72a0.27,0.27,0,0,1,0,.21l-0.35,3.09a3.68,3.68,0,0,0,1.39,3.1C104.59,82,105.52,83,106.47,84Z" transform="translate(-6.99 -9.16)"/><path class="c" d="M98.64,83.59a2.61,2.61,0,0,0,2.67-.08l1-.64c-0.84-.95-1.84-1.85-1.64-3.28,0.32-2.23.72-4.44,1.09-6.66a0.2,0.2,0,0,1,0-.23l0.37-2.41,0.18-1.41,0.33-1.93L102.76,65c-0.2-.92-0.42-1.84-0.56-2.77a1.45,1.45,0,0,1,.36-0.64l0-1.06-1.12-.3a34,34,0,0,1-1.9,11.49c-0.71,2.36-1.39,4.73-1.94,7.12-0.36,1.56.07,2.24,1.5,2.94a6.93,6.93,0,0,0,1.59.28Z" transform="translate(-6.99 -9.16)"/><path class="b" d="M69.43,86.57l0.51-3.41-1.46,1.53-0.42,2.22Z" transform="translate(-6.99 -9.16)"/><path class="b" d="M68,84.47l0-.1L68,84.3l-0.1.16Z" transform="translate(-6.99 -9.16)"/><path class="c" d="M110.28,80.56l-0.32.23Z" transform="translate(-6.99 -9.16)"/><path class="c" d="M110.77,80.49l-0.28.05Z" transform="translate(-6.99 -9.16)"/><path class="b" d="M80.48,54.65a35.94,35.94,0,0,1,4.79.35,1.76,1.76,0,0,1,.19.64l-1.94,4.19,0.25,0.23a2,2,0,0,0,.74-0.37c0.92-1.21,2.3-2.18,2-4a1.18,1.18,0,0,1,.14-0.45c2.31,0.94,4.61,1.89,6.92,2.82,0.66,0.26,1.34.46,2,.68l0,0L95.87,59,96,59.23c-0.11,2.79-.15,5.59-0.37,8.37A9.1,9.1,0,0,1,94.66,70l-0.29.63-0.3.54L93.6,72.3l-0.44.84-0.19.5-0.21.49c-0.59,1.59-1.2,3.18-1.76,4.79a1.38,1.38,0,0,0,.79,2l0,0.94a21.27,21.27,0,0,0-2.08,1.29c-2.47,1.94-5.07,3.64-8.26,4-2.36.27-4.75,0.31-7.13,0.46l1.07-2.32-1.07-.43,1.37-6.58a2.88,2.88,0,0,0-1.87,2.16c-0.5,2.24-.93,4.5-1.39,6.76L71.49,87a24.47,24.47,0,0,0,.22-3.45c-0.17-1.33.41-2.76,0.66-4.15l0.93-2.89,0,0,0.39-.71,0.41-.72,0.4-.41,4.31,1.64,1.57-1.45L78.8,74l-2.44-.94-0.66-.62-0.43-.35L74.92,71l1.26-2.2L76.4,68.9v2.36c0.17,0.63.43,0.62,0.76,0.11l0.5-.54v0a1.6,1.6,0,0,0,.47-2L78.21,68l0.38-2.19h0.2l0.34,6.35c0.86-.15,2.5-1.74,2.39-2.39s-0.6-1.33-.68-2c-0.14-1.22-.08-2.47-0.14-3.7a6.24,6.24,0,0,0-.3-1.19,4.55,4.55,0,0,1-.91.58,1.49,1.49,0,0,1-.69-0.15c0-.2,0-0.4.06-0.59a1.68,1.68,0,0,0,0-.88,1.69,1.69,0,0,0-1-.18,1.51,1.51,0,0,0-.53.22,3.14,3.14,0,0,0-1,.1c-1.62.75-3.23,1.51-4.81,2.34-3.86,2-5.91-.33-7.13-3.37a1.41,1.41,0,0,1,.35-1.18,10.76,10.76,0,0,1,4.91-3.07c1.35-.38,2.72-0.74,4.07-1.11l2.14-.3A38.85,38.85,0,0,1,80.48,54.65Zm5,14.23c-0.77-1.34-1.29-2.3-1.87-3.22-0.37-.59-0.57-1.6-1.62-1-0.88.47-1,1.39-.44,2.34s0.88,1.86,1.31,2.79l0.71,1.57ZM76.61,84.12a5.05,5.05,0,0,0,.7,1.14c0.41-.31,1.16-0.63,1.16-0.94a8.3,8.3,0,0,0-.63-4.11A3.47,3.47,0,0,0,76.61,84.12Z" transform="translate(-6.99 -9.16)"/><path class="c" d="M91.78,80.88l0,0.94c0.07,1.78.78,2.25,2.33,1.43A10.84,10.84,0,0,0,95.64,82,22.33,22.33,0,0,1,96,78.73c0.87-3.26,1.86-6.5,2.8-9.74a17.79,17.79,0,0,0,.55-7.07,2.71,2.71,0,0,0-1.59-2.39c-0.09,2.22-.1,4.44-0.33,6.64a6.28,6.28,0,0,1-1.12,2.05l-0.81,1.88-0.92,2.15-0.16.52c-0.14.41-.3,0.82-0.43,1.23-0.71,2.2-2.25,4.31-.61,6.89H91.78Z" transform="translate(-6.99 -9.16)"/><path class="d" d="M38.71,62.81l0.64-.51,2.52-2.46c0.64-.63,1.32-1.23,1.92-1.91,1.21-1.38,1.21-1.41,2.64-.32a11.75,11.75,0,0,1,1.17,1.18l0.84,0.39L50,59.78l0.72-.06,0.1-.47-2.3-3.32-1-1.21c-0.8-.79-1.59-1.6-2.41-2.37S43.41,50.8,42.54,50l-0.67-.42-0.51,0a9.22,9.22,0,0,0,.53,2.35c0.77,1.47.73,2-.62,3.08l-2.75,2.34-0.24.22-0.68.82-2,2.54-0.23,1.92,2.16,1.26,0.67-.79,0.25-.26h0Z" transform="translate(-6.99 -9.16)"/><path class="d" d="M15.21,79.79a0.24,0.24,0,0,1-.17.13l-1.21,1.25-0.7.68-0.55.43h0l-0.78,1,0.28,0.42,0.27,0.46h0l0.19,0.25,0.33,1.42,2.2-1.9,0-.1,0.09,0,1.44-1.39a8.7,8.7,0,0,1,4.28-3.22c0.7-.67,1.38-1.34,2.09-2,0.36-.33.77-0.61,1.16-0.92-0.38-.8-0.77-1.6-1.15-2.4-0.14-.31-0.25-0.63-0.38-1l-0.46-.1a9.26,9.26,0,0,0-3.64,3.42,17.53,17.53,0,0,1-1.69,1.95C16.34,78.83,15.76,79.3,15.21,79.79Z" transform="translate(-6.99 -9.16)"/><path class="b" d="M25,68.46a18.89,18.89,0,0,1,3.36-3.3c3.1-2.37,7.31,0,8.5,2.4l0.47,2.51,0,0.46a0.21,0.21,0,0,0-.07.19l-0.87.89-0.15.21L36,72a0.12,0.12,0,0,1-.08.1l-1.3,2-0.46.2h0l-0.22.3c-0.84.51-1.67,1.06-2.54,1.5a3,3,0,0,1-1.1.09l0.46-1-0.69-.2-0.48.17-0.5,0-1.91-.49a8.41,8.41,0,0,1-.83-0.47C24.84,73.27,23.27,70.68,25,68.46Z" transform="translate(-6.99 -9.16)"/><path class="d" d="M34.2,74.39l-0.22.3Z" transform="translate(-6.99 -9.16)"/><path class="d" d="M79.83,18.86l1.42,0.9,5.72,4a1.28,1.28,0,0,1,.67,0q1.86,2,3.66,4.06c0.67,0.76,1.28,1.58,1.92,2.37l1.54,1.36,4.58-4L99.3,27.2a2.51,2.51,0,0,1-1.87-1c-1.18-1.4-2.53-2.64-3.79-4-2.39-2.51-4.79-5-7.12-7.57-0.84-.92-0.68-1.3.51-2l-2-.52-0.53.8-0.14.31A9.3,9.3,0,0,1,79.8,18Z" transform="translate(-6.99 -9.16)"/><path class="b" d="M70.4,41l0.33-2.36A9.14,9.14,0,0,0,69,38a1,1,0,0,0-.84.54,43.26,43.26,0,0,0-.25,4.7c0,1.09,1,1,1.78,1.18a11.42,11.42,0,0,1,1.45-1.08,10.66,10.66,0,0,1,1.66-.58L74,41.25l-0.24-.91-1.18-.56a1.49,1.49,0,0,1-.92,2C70.89,42.17,70.59,41.64,70.4,41Z" transform="translate(-6.99 -9.16)"/><path class="b" d="M77.63,34.53l-2.89,0-0.43.32-1,.66c-0.7.84-.06,1.33,0.48,1.84l0.7,0.28C76.29,37.36,76.92,35.91,77.63,34.53Z" transform="translate(-6.99 -9.16)"/><path class="e" d="M87,12.66c-1.18.69-1.35,1.06-.51,2,2.33,2.56,4.74,5.06,7.12,7.57,1.26,1.33,2.62,2.57,3.79,4a2.51,2.51,0,0,0,1.87,1l0.31-.26,0.1-.32A6,6,0,0,0,99,25.32a21.47,21.47,0,0,0-1.67-1.59,0.13,0.13,0,0,1-.1-0.16L96.7,23l-0.07-.07-0.77-.84L94.7,20.69A52.08,52.08,0,0,0,87,12.66Z" transform="translate(-6.99 -9.16)"/><path class="d" d="M79.75,16.37c0.84-.61,1.68-1.21,2.52-1.83A3.27,3.27,0,0,0,83.84,12a3.83,3.83,0,0,0-1.24.45c-1.2,1-2.34,2.11-3.51,3.18l-0.29.92,0.25,0.1Z" transform="translate(-6.99 -9.16)"/><path class="f" d="M85.3,52.77L86.75,53a0.34,0.34,0,0,1,.22,0h0.48a4,4,0,0,1,.91.16c2.58,1.11,5.15,2.24,7.72,3.37l1,0.12,5.51,1.35,0.73,0.1,0.95,0.13,1.94,0.25,0.69,0.25,1.7,0.22c0.95-1.85.68-1.8-.55-3.46-2.65-3.58-6.62-4.71-10.43-6.18a46,46,0,0,0-5.8-1.76,25.38,25.38,0,0,0-3.63-.36H87.73l-0.26.19-0.49,0c-2.35,1.1-3.27,2.5-3.16,4.84h0Z" transform="translate(-6.99 -9.16)"/><path class="d" d="M72.77,76l0.08-.73a6.39,6.39,0,0,0-2.39,6.28l1.11-3.34Z" transform="translate(-6.99 -9.16)"/><path class="b" d="M77.13,152.25l5.53-.39c0.41-.82,1.35-1.5.72-2.61L79.77,144l-0.46,0-2.66.44-0.7.31-1,.43a0.12,0.12,0,0,1-.16.09c-0.78.94-1.42,2.11-3,1.88l-1.22.3-0.28.16-1.43.92a2.91,2.91,0,0,0-1.27.91c-0.18.94-.67,0.92-1.34,0.76l-0.71,0c-1.07.61-2.16,1.18-3.2,1.84a1,1,0,0,0-.34.9,1.11,1.11,0,0,0,.73.56,8.49,8.49,0,0,0,1.39.19c1-.24,2.08-0.42,3.09-0.74a10.72,10.72,0,0,1,4.5-.63A44,44,0,0,0,77.13,152.25Z" transform="translate(-6.99 -9.16)"/><path class="b" d="M99,147.61c-1.33-1.65-3.24-2.19-5.16-2.73-0.67-.19-1.35-0.34-2-0.51l-0.85.78-2,2-0.22.24-0.25.25a4.63,4.63,0,0,1-.32.34c-1.8,1.58-1.8,1.58-.45,3.77l7.77-.84a11.24,11.24,0,0,0,1.12-.24,0.15,0.15,0,0,1,.21,0C98.17,150.31,99.29,148.73,99,147.61Z" transform="translate(-6.99 -9.16)"/><path class="b" d="M84.88,147.53c0.34,0.81.83,0.88,1.51,0.35,0.49-.38,1-0.69,1.55-1l0.25-.19,0,0,2.39-2.6,0.43-.34h0l-0.18-1c-0.77-.32-1.53-0.68-2.33-0.95-1.7-.57-3.41-1.09-5.12-1.63L82.92,140H81.84c0,0.93-.3,2,0.06,2.7A52.36,52.36,0,0,0,84.88,147.53Z" transform="translate(-6.99 -9.16)"/><path class="b" d="M71.88,140.58a14.78,14.78,0,0,0-5.78,1.11l-0.48.12-0.48.22-0.94.33-0.23.08-0.5.1,0,0.48,0.29,0.69c0.57,1,1.11,1.94,1.71,2.88a8.6,8.6,0,0,0,.91,1c1.91-.76,3.83-1.49,5.72-2.29,0.82-.35,1.58-0.84,2.36-1.27l0-.09h0.09a0.46,0.46,0,0,0,0-.23Z" transform="translate(-6.99 -9.16)"/><path class="b" d="M82.39,135.09l0,2.21a4,4,0,0,1,.69.13l9.4,3.47,0.71-2.45,0.24-3.36,0.09-.71,0.35-2.23,0.09-.42a7.06,7.06,0,0,0-1.5-.21c-1.28.09-2.56,0.28-3.84,0.42H88.18l-4.56.43-0.66.14,0,0.87-0.44,1.11Z" transform="translate(-6.99 -9.16)"/><path class="d" d="M36.24,71.82L36,72Z" transform="translate(-6.99 -9.16)"/><path class="b" d="M74.66,140.38a0.15,0.15,0,0,1,.12.16L75,140.81h0l0.24,0.25a6.23,6.23,0,0,0,1,1,3.69,3.69,0,0,0,1.11.29c0.81-.35,1.64-0.68,2.42-1.08a1,1,0,0,0,.48-0.71c0.18-1.89.31-3.79,0.46-5.68l-0.58.07c-0.27.12-.54,0.26-0.82,0.37a18.59,18.59,0,0,0-2.83,1.05c-1.68,1-2,1-3.19-.42-0.28.9-1,1.81,0.08,2.66h0l0.77,0.25L74.33,140l0,0Z" transform="translate(-6.99 -9.16)"/><path class="b" d="M73.79,132.52l-0.31.41v2.41a2.74,2.74,0,0,0,.88.1c1.42-.31,2.82-0.67,4.23-1,2.06-.37,2.4-0.78,1.92-2.28l-3.63.19-1.51,0-0.87.17Z" transform="translate(-6.99 -9.16)"/><path class="g" d="M109.95,80.79h0l0.32-.23,0.1,0,0.1,0,0.28-.05,0.52-.58L109,78.22l-0.72-1.45-0.42-3-0.13.88,0,0.9,0-.9c-0.1-.31-0.24-0.62-0.32-0.94,0.08,0.32.22,0.63,0.32,0.94l0.13-.88a0.87,0.87,0,0,0,.06-0.15,0.17,0.17,0,0,0-.06-0.06l0.9-6.61q-0.09-2.6-.17-5.19c0-.35,0-0.7,0-1.05l0,0L108.59,59l-1.7-.22-0.69-.25-1.94-.25-0.95-.13-0.73-.1h0l-5.51-1.35-1-.12c-2.57-1.13-5.14-2.26-7.72-3.37a4,4,0,0,0-.91-0.16H87a0.34,0.34,0,0,0-.22,0h0l-1.46-.27-1.45-.45,0,1.68c0.7,0.4,1,.5,1.21.09-0.18.41-.51,0.32-1.21-0.09h0l0-1.68h0l-1.07-.68,1.07,0.68c-0.11-2.34.81-3.75,3.16-4.84h0l0.49,0,0.26-.19h0.44a25.37,25.37,0,0,1,3.63.36,46,46,0,0,1,5.8,1.76c3.81,1.47,7.78,2.6,10.43,6.18,1.23,1.66,1.5,1.6.55,3.46l0.07,1.64c0.67-1.25,1.68-2.27,2.4-3.44,0.36-.58-0.15-1.9-0.59-2.7a9.93,9.93,0,0,0-2-2c-1.09-1.75-2.9-2.49-4.65-3.32-0.82-.39-1.69-0.69-2.48-1.12a2.11,2.11,0,0,1-.49-0.85,12.5,12.5,0,0,1,1-1.49c0.4-.47,1.48-0.46,1-1.5a1.65,1.65,0,0,0-2.18-.69,4,4,0,0,0-2.86,3,2.54,2.54,0,0,1-.93,0,17.35,17.35,0,0,0-8.45-1.07A8.62,8.62,0,0,0,86,46.54l-2.62,1.75-0.94-3.63-0.65-.73a6.43,6.43,0,0,0-.57.7c-1.16,1.88,0,3.39.78,5l0.16,0.31,0,0.72,0.07,1.22,0.45-.24-0.29-.93,0.29,0.93h0l-0.45.24-0.18.52-3.68.85-1.73.38H75.47l-0.1-2c-0.32-.82-0.66-1.63-1-2.46-0.11-.29-0.82-0.68.08-0.89q2.17,1.87,3.51.21l0.6-.93,0.08-.4c-1-.3-2.05-0.53-3-0.92-1.32-.53-1.55-1.74-1.5-3a1.25,1.25,0,0,1,1.3-1.38,3.17,3.17,0,0,0,1-.34l0.24-.06,1.14-.07L79,41.3c0.39,0.79.56,1.44-.38,2.09A2.07,2.07,0,0,0,78,45.79l2-2.15h0l0,0a0.36,0.36,0,0,1,0-.22l0.36-.17L80,43.4a0.36,0.36,0,0,0,0,.22l0.23-.2,0.24-.24h0A0.1,0.1,0,0,0,80.55,43c1-1.13,1-2,0-3.5h0l-0.87-.79,0.43-1h0L80,37.68l0.06,0.06,0.67-.51h0L84,37.34h0l0.22,0.14,0.24,0.2,0.32,0.92,0,0.48a5.13,5.13,0,0,1-1.09,4.18,1.52,1.52,0,0,0,0,.78c2.83-1.46,3.42-4.13,2.69-7a7.24,7.24,0,0,0-.64-1.32L85.3,35.5h0L83.86,35H83.38l-0.46,0V34.31l5.85-5.54,1.81,1.7,0.83,1,0,0,1.79-1.34c-0.64-.79-1.25-1.6-1.92-2.37q-1.8-2.06-3.66-4.06a1.28,1.28,0,0,0-.67,0l-5.72-4L81,20.15l0.28-.38-1.42-.9,0-.88a9.3,9.3,0,0,0,4.58-4.73l0.14-.31,0.53-.8h0l2,0.52a52.08,52.08,0,0,1,7.69,8,0.88,0.88,0,0,0,.61-0.53,0.88,0.88,0,0,1-.61.53l1.16,1.37,0.77,0.84h0L96.7,23l0.57,0.6a0.13,0.13,0,0,0,.1.16A21.47,21.47,0,0,1,99,25.32a6,6,0,0,1,.66,1.29l-0.1.32-0.26.62-4.58,4-1.54-1.36-1.79,1.34c0.73,0.88,1.45,1.77,2.21,2.64,0.51,0.59,1.35.71,1.51,0,0.42-1.9,2.19-2.48,3.22-3.77,0.51-.64,1-1.27,1.55-1.9a4.83,4.83,0,0,0,1.49-3.93c0-.49-0.93-0.93-1.43-1.39L99.72,23l-1.5-1.73L98,21.07h0l0,0,0,0-0.21-.21A60.92,60.92,0,0,0,88.61,10.8a2.21,2.21,0,0,1-.29-0.21c-1-1.18-1.92-2-3.75-1a14.85,14.85,0,0,0-6.14,5.52l0.67,0.5c1.16-1.07,2.3-2.16,3.51-3.18A3.83,3.83,0,0,1,83.84,12L83,11.35,83.84,12a3.27,3.27,0,0,1-1.58,2.54c-0.83.62-1.68,1.22-2.52,1.83l-0.68.28-0.25-.1,0.29-.92-0.67-.5-0.86,1.57-0.6.43a3.07,3.07,0,0,0-.7.8,2.69,2.69,0,0,0-.37,1.73,3.67,3.67,0,0,0,1.7.73c1.57,0.91,3.15,1.81,4.7,2.75a14.15,14.15,0,0,1,1.46,1.17l1,0.68,0.27,1.16-0.21.24h0l-0.52.45-1.2,1.38-0.89,1-0.31.36-0.3.3-0.19.16L81,30.68l-1,1.16v0h0l-0.53.52-0.05,0,0,0.07-0.34,0a21.32,21.32,0,0,0-4.07.36c-0.75.2-1.3,1.12-1.94,1.72l-0.21.32-0.38.45-0.61.67-0.68.15L70.65,36a2.23,2.23,0,0,0-3,.94A9.92,9.92,0,0,0,66,43.27a7.2,7.2,0,0,0,.69,2.58,3.4,3.4,0,0,0,1.22.9,5,5,0,0,0-1.06,1.78,2.13,2.13,0,0,0,.87,1.67,2,2,0,0,0,1.74-.15,20.23,20.23,0,0,0,2.36-2.18,8.3,8.3,0,0,0,.36,1.19c0.51,1.09,1.06,2.16,1.59,3.24l0,1.64a14.14,14.14,0,0,0-9.88,5.3l-0.07.1c-1.9,2.36-1.91,2.61-.22,5.1,2,3,4.21,3.49,7.43,1.9,1.64-.81,3.35-1.48,5.37-2.36,0,0.08,0,.15,0,0.22-0.31,1.2-.53,2.3-0.9,3.34S74.5,69.84,74,71l0.28,0a3.8,3.8,0,0,0,.4,1.43,1.22,1.22,0,0,0,.49.48,1.22,1.22,0,0,1-.49-0.48,3.8,3.8,0,0,1-.4-1.43L74,71l-0.22.23-0.82.7-0.14.27-1.65,3a23.42,23.42,0,0,0-3,7.1c-0.12.66-.13,1.34-0.18,2L68,84.37l0,0.1,0.48,0.22,1.46-1.53-0.51,3.41V89c1-.48,1.85-0.86,2.06-1.93a24.47,24.47,0,0,0,.22-3.45c-0.17-1.33.41-2.76,0.66-4.15h0l0.93-2.89,0,0,0.39-.71,0.42-.72,0.4-.41L74,74.31h0l0.48,0.37,4.31,1.64,1.57-1.45L78.8,74h0l-2.44-.94-0.66-.62-0.43-.35L74.92,71l1.26-2.2L76.4,68.9v2.36c0.17,0.63.43,0.62,0.76,0.11l0-.56c-0.22-.91-0.49-1.81-0.66-2.73a9.48,9.48,0,0,1-.16-1.39,9.48,9.48,0,0,0,.16,1.39c0.17,0.92.44,1.82,0.66,2.73l0,0.56,0.5-.54v0a1.6,1.6,0,0,0,.47-2L78.21,68l0.38-2.19h0.2l0.34,6.35c0.86-.15,2.5-1.74,2.39-2.39s-0.6-1.33-.68-2c-0.14-1.22-.08-2.47-0.14-3.7a6.24,6.24,0,0,0-.3-1.19,4.55,4.55,0,0,1-.91.58,1.49,1.49,0,0,1-.69-0.15c0-.2,0-0.4.06-0.59a1.68,1.68,0,0,0,0-.88,1.69,1.69,0,0,0-1-.18,1.51,1.51,0,0,0-.53.22,3.14,3.14,0,0,0-1,.1c-1.62.75-3.23,1.51-4.81,2.34-3.86,2-5.91-.33-7.13-3.37a1.41,1.41,0,0,1,.35-1.18,10.76,10.76,0,0,1,4.91-3.07c1.35-.38,2.72-0.74,4.07-1.11l2.14-.3a38.85,38.85,0,0,1,4.56-.68,35.93,35.93,0,0,1,4.79.35,1.76,1.76,0,0,1,.19.64l-1.94,4.19,0.25,0.23a2,2,0,0,0,.74-0.37c0.92-1.21,2.3-2.18,2-4a1.18,1.18,0,0,1,.14-0.45c2.31,0.94,4.61,1.89,6.92,2.82,0.66,0.26,1.34.46,2,.68l0,0L95.87,59,96,59.23c-0.11,2.79-.15,5.59-0.37,8.37A9.1,9.1,0,0,1,94.66,70l-0.29.63-0.3.54L93.6,72.3l-0.44.84-0.19.5-0.21.49c-0.59,1.59-1.2,3.18-1.76,4.79a1.38,1.38,0,0,0,.79,2h1.66c-1.64-2.59-.09-4.69.61-6.89,0.13-.41.28-0.82,0.43-1.23l0.16-.52,0.92-2.15,0.81-1.88a9.68,9.68,0,0,1,.08-1.48,9.68,9.68,0,0,0-.08,1.48,6.28,6.28,0,0,0,1.12-2.05c0.23-2.2.23-4.43,0.33-6.64,0-.13,0-0.25,0-0.38,0,0.13,0,.25,0,0.38a2.71,2.71,0,0,1,1.59,2.39A17.79,17.79,0,0,1,98.83,69c-0.94,3.25-1.93,6.48-2.8,9.74A22.33,22.33,0,0,0,95.64,82c1,0.6,1.57,1.87,3,1.55l2-1.52a6.93,6.93,0,0,1-1.59-.28c-1.43-.7-1.86-1.38-1.5-2.94,0.55-2.4,1.23-4.77,1.94-7.12a34,34,0,0,0,1.9-11.49h0l1.12,0.3,0,1.06q0,0.64,0,1.27V61.6a1.45,1.45,0,0,0-.36.64c0.15,0.93.37,1.84,0.56,2.77l-0.16,1.94-0.33,1.93-0.18,1.41-0.37,2.41a0.2,0.2,0,0,0,0,.23c-0.37,2.22-.77,4.43-1.09,6.66-0.2,1.43.8,2.33,1.64,3.28A28.35,28.35,0,0,0,104.64,85a1.67,1.67,0,0,0,1.38.12,2.21,2.21,0,0,0,.45-1.09c-1-1-1.88-2-2.87-3a3.68,3.68,0,0,1-1.39-3.1l0.35-3.09a0.27,0.27,0,0,0,0-.21L103,72.93l0.23-1.23L104,67v0c0.21-1.56.8-3.12,0.08-4.69l-0.05-.39,0-1.37,0.95,0,0.49,0.19,0.68,0.77a14.83,14.83,0,0,1,.93,6.33c-0.2,1.94-.6,3.86-0.75,5.8a42.39,42.39,0,0,0,.1,4.36c0.45,0.73.86,1.49,1.36,2.19A1.65,1.65,0,0,0,109.95,80.79ZM71.8,78.22l0.11,0Zm1.05-3L72.77,76l-1.2,2.21h0l-1.11,3.34A6.39,6.39,0,0,1,72.85,75.25ZM95.41,19c0-.07,0-0.14,0-0.21A13.08,13.08,0,0,1,96.11,20,3,3,0,0,0,95.41,19ZM84.8,24.69h0Zm-14.08,14h0a1.67,1.67,0,0,1,0-.18A1.67,1.67,0,0,0,70.72,38.65Zm2.05,0.17,0.05-.68h0l-0.05.68a3.79,3.79,0,0,0-.67.5A3.82,3.82,0,0,1,72.78,38.82Zm1.73-1.16-0.7-.28c-0.53-.52-1.18-1-0.48-1.84h0l1-.66,0.43-.32,2.89,0C76.92,35.91,76.29,37.36,74.5,37.66ZM74,41.25l-1.18,1.47a10.66,10.66,0,0,0-1.66.58,11.42,11.42,0,0,0-1.45,1.08c-0.76-.15-1.76-0.09-1.78-1.18a43.27,43.27,0,0,1,.25-4.7A1,1,0,0,1,69,38a9.14,9.14,0,0,1,1.71.7L70.4,41c0.19,0.63.49,1.15,1.26,0.78a1.49,1.49,0,0,0,.92-2l1.18,0.56,0.05-.53-0.05.53Zm0.24,9.57-0.54.48,0.54-.49-1-2.29-0.76-1.65,0.76,1.65ZM89,47.26c0.54,0,1.08-.05,1.62-0.09C90.06,47.2,89.52,47.24,89,47.26ZM99.67,59.53l0.78,0.32Z" transform="translate(-6.99 -9.16)"/><path class="g" d="M99.49,115.39l-0.26.57-0.35.66L99,116.87l1.15-.46a37.29,37.29,0,0,0,1.64-3.83,39.94,39.94,0,0,0,.85-4.19l0.1-.41,0-.23,0.21-1,0.16-1.19,0.1-.48v0l0.16-1.18,0.07-1.45,0-.7,0-.25-0.15-.88-0.32-.11a4,4,0,0,0-.68,1.17c-0.43,2.49-.79,5-1.18,7.5l-1.06,4.37-0.31.87-0.19.51Zm0.69-.94h0Z" transform="translate(-6.99 -9.16)"/><path class="g" d="M106.71,38a5.64,5.64,0,0,1-.77.91l-0.37-.25c0.71-1.34,1.48-2.66,2.1-4,0.53-1.21.89-2.49,1.31-3.75,0.24-.73.45-1.47,0.67-2.2l0.59,0.07a5.61,5.61,0,0,1,.11,1.47C109.8,33.14,108.07,35.5,106.71,38Z" transform="translate(-6.99 -9.16)"/><path class="g" d="M15.62,100.82L16.08,101l-1.42,8.12-0.41.25a2.35,2.35,0,0,1-.56-1c0.14-1.77.35-3.53,0.58-5.29A2.66,2.66,0,0,1,15.62,100.82Z" transform="translate(-6.99 -9.16)"/><path class="g" d="M7.19,100.2c1.4-1.17,2.88-2.26,4.36-3.34a1.44,1.44,0,0,1,.74.08,2.16,2.16,0,0,1-.28.8c-1,1.09-2.08,2.17-3.2,3.17a8.42,8.42,0,0,1-1.83.9A3.75,3.75,0,0,1,7.19,100.2Z" transform="translate(-6.99 -9.16)"/><path class="g" d="M16.64,82.52a8.7,8.7,0,0,1,4.28-3.22l0.87,0.88-4.85,3.36h0Z" transform="translate(-6.99 -9.16)"/><path class="g" d="M70.9,140.13h0l1,0.44a14.78,14.78,0,0,0-5.78,1.11l0.27-1.06a11.27,11.27,0,0,1,1.79-.82c1.49-.4,2.91-0.81,3.17-2.65l0,1Z" transform="translate(-6.99 -9.16)"/><path class="g" d="M41.54,46.08l-1.17.17C40.63,45.34,41,45.46,41.54,46.08Z" transform="translate(-6.99 -9.16)"/><path class="g" d="M107.78,113l0.08-.75,0,1Z" transform="translate(-6.99 -9.16)"/><path class="g" d="M107.46,24.58a1.12,1.12,0,0,1-.07.13l-1,3.58a27.09,27.09,0,0,1-1,2.51c-0.76,1.42-1.56,2.84-2.45,4.18-0.34.52-.85,1.23-1.84,0.54,0.33-.5.61-1,0.93-1.4,0.7-1,1.51-1.9,2.12-2.94,0.71-1.21,1.24-2.53,1.85-3.8l0.24-2.49a2.16,2.16,0,0,1,1.22-2.55l0.13,1.4-0.15.79Z" transform="translate(-6.99 -9.16)"/><path class="g" d="M99.3,27.2l0.31-.26-0.26.62Z" transform="translate(-6.99 -9.16)"/><path class="g" d="M15.1,83.88l0.09,0a0.23,0.23,0,0,1-.12.07Z" transform="translate(-6.99 -9.16)"/><path class="g" d="M12.6,88.12c0.41-.44.78-0.9,1.17-1.36l0.79-.8h0l1-.76,0.39-.34,0.53-.63h0l0.49-.7-0.3-1L15.2,83.91a0.23,0.23,0,0,1-.12.07l-2.2,1.9-0.33-1.42-0.19-.25h0l-0.27-.46-0.28-.42,0.78-1h0l0.55-.43,0.7-.68h0L15,79.93h0a0.24,0.24,0,0,0,.17-0.13c0.55-.5,1.13-1,1.64-1.5a17.53,17.53,0,0,0,1.69-1.95,9.26,9.26,0,0,1,3.64-3.42L22.64,73l0.47-.74L22.64,73c0.13,0.32.23,0.64,0.38,1,0.37,0.8.77,1.6,1.15,2.4l0.66,0.39a1.73,1.73,0,0,1,.75-0.11c1,0.36,1.88.77,2.88,1.19a0.31,0.31,0,0,1,0,.22c-1.12,1.46-.33,2.75.51,3.86,2,2.67,4.1,5.27,6.22,7.84a39.55,39.55,0,0,0,3.91,4.31,68.43,68.43,0,0,0,6.49,5.23,52.9,52.9,0,0,0,5.37,3h0l0.42,0.22c1.22,1.25,2.86,1.42,4.44,1.75l0.28,0h0.06l0.39,0.12L56.27,107l-0.31.59-0.14.36-0.07.31-0.09,0,0,0.09-0.14.32L52.7,116.1l-0.07,0-0.88,1.91,0.15,0.43-0.11.7-0.09.23-0.23.8v0a3,3,0,0,0-1.17,3.12c-0.61,2.22-1.32,4.42-1.82,6.66-0.42,1.9-.6,3.85-0.93,6L71.77,133l-0.38,4a0.09,0.09,0,0,0-.06.14l0,1-0.47,1.94,1,0.44,2.71,3.16a0.45,0.45,0,0,1,0,.23H74.47l0,0.09c-0.79.43-1.54,0.92-2.36,1.27-1.89.8-3.81,1.53-5.72,2.29a8.6,8.6,0,0,1-.91-1c-0.6-.94-1.14-1.92-1.71-2.88L63.44,143l0-.48,0.5-.1h0l0.23-.08,0.94-.33,0.48-.22h0l0.48-.12,0.27-1.06c-1.41.42-2.85,0.79-4.24,1.27a7.87,7.87,0,0,0-1.55,1l-0.63.38-0.31.28c-2.49,1.13-5,2.3-7.48,3.39a12.58,12.58,0,0,0-5,3.87l-1.39,1.56a5.86,5.86,0,0,0,6.44,2.18c1.65-.5,3.37-0.78,5-1.19a5.78,5.78,0,0,0,1-.46l1.06-.59h0l0.8-1.1-2.23.62,1.28,0.3h0l-1.28-.3-1.59.54-0.24.08-0.5.1-0.88.09-0.53.05-0.89.19H50.44l-0.05-.08-0.08,0-2.39-1.41c1.77-2.39,4.34-3.53,7-4.64,1.76-.74,3.39-1.79,5.08-2.71l1.14-.38,1.06,1.83,0.09,0,0.07-.06v0l0.84,1.33,1,1.65a10.21,10.21,0,0,1-.93,1.15c-0.67.63-1.4,1.2-2.11,1.8-0.46,1.1-1.39,2.11-.75,3.43a1.3,1.3,0,0,0,.66.73,9,9,0,0,0,5.45-.51h0l0.31-.18,2.64-.22,0.47,0c2.57-.11,5.13-0.24,7.7-0.31,2.8-.07,5.61-0.08,8.41-0.12l0.71,0.06,0.93-.77,0-1.79c-1.35-2.19-1.35-2.19.45-3.77a4.65,4.65,0,0,0,.32-0.34l0.25-.25,0.22-.24,2-2,0.85-.78c0.68,0.17,1.36.32,2,.51,1.92,0.54,3.83,1.07,5.16,2.73,0.33,1.12-.79,2.7-2.16,3a0.15,0.15,0,0,0-.21,0,11.23,11.23,0,0,1-1.12.24l-7.77.84,0,1.79-0.93.77,5.74-1,0.72-.07,4.6-1h0l0.84-1,0.31-.61v0l0.23-.68,0.24-.39c0.43-1.09.87-2.17,1.27-3.28a1.34,1.34,0,0,0-.19-0.64l-1.06-.94-1.93-1.21c-0.91-.31-1.84-0.58-2.73-0.95a2.68,2.68,0,0,1-.71-0.71,0.43,0.43,0,0,0-.17,0h0a0.44,0.44,0,0,1,.17,0l1.29-.95c-1.22-.09-1-0.84-0.88-1.64,0.33-2.41.59-4.82,0.88-7.24l0.07-.62a30.22,30.22,0,0,1,10.84-.9,4.81,4.81,0,0,1,1.06.44c1.45-1.64,2.58-3.35,2.26-5.77-0.39-3-.64-6-0.87-9-0.07-.92.28-1.92-0.79-2.5l0-.3-0.12-.27c-0.13-.81-0.25-1.63-0.4-2.44,0.15,0.81.27,1.62,0.4,2.44l0.08-.75-0.41-4.72-0.09-.33-0.24-.22,0.24,0.22c-0.49-2.54-1-5.07-1.47-7.61a27.9,27.9,0,0,1-.43-3.42,37.63,37.63,0,0,0-2-9.21,0.81,0.81,0,0,0-1.15-.62l0,0.43a0.93,0.93,0,0,0-.65,1.3c0.19,0.69.31,1.39,0.46,2.09a4.22,4.22,0,0,0-.29,3.67,19.12,19.12,0,0,1,.31,2.12l0,0.72h0a33.37,33.37,0,0,1-5.61,10,75.12,75.12,0,0,1-5.41,5.36c-0.2.19-.36,0.41-0.54,0.62L90.2,113l-1.12.92-1.55,1-0.4.41a0.16,0.16,0,0,0-.17.09l-1,.66-3.07,1.63-0.33.23,0,0.07,0-.06-0.93.76-1.86.8-1.41.47-1.7.72-0.44.21c-2.32.59-4.63,1.25-7,1.76a10.42,10.42,0,0,1-7.39-1.09c-0.75-.65-1,0-1.33.5s-0.68,1.22.16,1.62,1.84,0.71,2.76,1.05h0l0.34,0.1,1.11,0.2h0.48l2.4-.22,0.71,0,4.06-1.06,0.5-.12,3.76-1.41,0.33-.16,2.37-.71,0.5-.12,3.25-1.9a0.11,0.11,0,0,0,.12-0.1l2.08-1.31,0.31-.17,0.56-.37a0.13,0.13,0,0,0,.16-0.08l0.54-.38,0-.07,0,0.06,0.93-.68,0.43-.37,1-.67,1.2-1.22c3.35-3.05,6.88-5.94,9.1-10,1-1.87,2-3.76,3-5.64l0.31-.69,0.68,1v0.41l0,0.62,1.52,7.1c0.22,1,.43,2.06.65,3.1L106,113c0,0.47.08,0.95,0.15,1.41,0.11,0.83-.21,1.67.68,2.44,0.48,0.42.32,1.57,0.43,2.4,0.18,1.33.37,2.65,0.51,4,0.08,0.82.08,1.65,0.11,2.48a0.9,0.9,0,0,0,0,.12c-0.09.76,0.09,1.89-.33,2.2s-1.52-.09-2.29,0c-2,.21-4,0.53-6,0.78-1,.13-2,0.17-3,0.29-2.06.23-4.12,0.48-6.18,0.73l-4.08.47-0.71.05-1.93-.08-1.44-.19a0.16,0.16,0,0,0-.22,0L81,130l-1.91,0h0l-1.21.11-0.7.14-1,0-2.38.19-1.93.11,0.22,1.08,0.67,0.1-0.67-.1h0l-0.22-1.07-2.9.59-2.87.55-1,.17-0.48.11-0.75.11-0.43,0-1.32.2H61.5l-1.41.07-0.37.12H59.4l-2.17.12c-1.52.15-3,.27-4.54,0.45-0.74.09-1.46,0.29-2.19,0.44l-1.05-.7-0.21.06a2,2,0,0,0-.4.13,2,2,0,0,1,.4-0.13l0.21-.06,0.9-5.45v0l0.35-1,0.58-2.36,0.17-.51,0.18-.49,0.16-.79,0.2-.85c0.39-.78.8-1.54,1.15-2.34s0.52-1.44.77-2.17l0.27-.56,0-.45-1-.49c0.33-1,.62-1.93,1-2.87-0.39.93-.67,1.91-1,2.87l1,0.49,1.35-3.38,0.3-.7,0.13-.76,1.37-3.59,0.13-.45,0.23-.48v0l0.1-.21L58,105.9l0.25-.53a0.21,0.21,0,0,0,.17-0.12l0-.18h0l0,0.18,2.65,0.38-2.4-.78,2.4,0.78,0.74,0.15,3.57,0.31H66.1c1.66,0.4,3.31,1,5,.15l0.55,0H73.5l0.51-.12a18.62,18.62,0,0,0,7-2.13,19.59,19.59,0,0,0,2.37-1.58,2.46,2.46,0,0,0,0-1.29,4.25,4.25,0,0,0-1.13.23c-0.88.44-1.71,1-2.56,1.45l-4.31,1.13-4.32.43-0.45.13H69.43L69,104.34l-1.43-.22-0.32,0-2.12-.14-0.92,0-5-1.29a0.13,0.13,0,0,0,0-.17l-0.26-.17H58.17a12.74,12.74,0,0,1-5.6-1.9A14.29,14.29,0,0,0,51,99.56,14,14,0,0,0,49.3,98.5c-3-1.37-5.47-3.59-8-5.69-0.39-.33-0.81-0.62-1.22-0.92l-0.37-.29H39.8l-2-2.36c-1.94-2.32-3.9-4.62-5.79-7a28.26,28.26,0,0,1-1.78-2.82L29.84,79l0.42,0.4c-0.3-1,.53-1.25,1.14-1.49a11.58,11.58,0,0,0,4.8-4l1.59-1.71,1,1.44c0.24,1.19.45,2.38,0.72,3.56A2.69,2.69,0,0,0,40,78l0.69-.71h0L40,78l0.23,0.73,0.39,1.52h0c1.55,1.69,3.06,3.42,4.65,5.06a38.52,38.52,0,0,0,12.2,8.62c1.41,0.62,2.88,1.09,4.32,1.63l1,0.39a28.35,28.35,0,0,0,8.89.55c1.11-.08,2.24,0,3.34-0.17a16.75,16.75,0,0,0,7.77-2.77,4.48,4.48,0,0,1,1.12-.66,7.28,7.28,0,0,0,4.71-5.43c0.11-.42.24-0.83,0.43-1.51a11.15,11.15,0,0,0-1.07.48,0.65,0.65,0,0,0-.25.4c-0.63,3-3.23,4-5.5,5.28a14.11,14.11,0,0,1-7.48,2.11c-2.3-.07-4.61.17-6.91,0.18a18.93,18.93,0,0,1-3-.36c-0.62-.1-0.85-0.44-0.39-1s1-1,1.42-1.53c0.86-1,1.71-2.09,2.48-3.19a3.13,3.13,0,0,0-.65-1L65.39,90a0.11,0.11,0,0,0-.09.16l-0.17.18-0.06,0,0,0.06-0.16.23-0.52.75L64,92l-0.54.79-0.2.28C62.61,93,62,93,61.4,92.84a11.14,11.14,0,0,1-1.3-.44l-0.21-.1c-2.69-1.52-5.49-2.88-8-4.62a51.21,51.21,0,0,1-9.47-9,6.75,6.75,0,0,1-.74-1.45l-0.16-1.18-0.8-3.37v0L40.42,72l-0.71-3L39,67.64l-0.58-2.4L39,64.11a0.33,0.33,0,0,0,.21-0.05l0.51-.44c1.2-1.15,2.47-2.23,3.58-3.46,1-1.07,1.72-.42,2.56.08,1.84,2,4.27,1.87,6.66,1.7,0.83-.06,1.63-1.75,1.24-2.42-0.77-1.3-1.49-2.64-2.38-3.85a30.92,30.92,0,0,0-3-3.45c-1.52-1.51-3.12-2.93-4.69-4.39h0l-2-1.71-0.06,0-1.17.17,0.53,0.9-0.53-.9L39.91,47l0,2.64-0.08.51-0.07.48c0.1,0.87.24,1.74,0.28,2.62a2.45,2.45,0,0,1-.25,1.19,13.94,13.94,0,0,1-1,1.5l-4,4.3h0l-0.06.06-0.16.16-2.26,1.47c-2.49-.35-4.11,1.31-5.68,2.73a25.34,25.34,0,0,0-2.92,4c-0.55.74-1.15,1.45-1.76,2.14-1.82,2-3.67,4.05-5.51,6.07l-1.66,1.83h0l-0.22.24-0.24.2-0.78.73-0.9.63L12,80.81a32.66,32.66,0,0,0-2.55,2.57,1.75,1.75,0,0,0,.17,1.39c0.51,1.07,1.18,2.05,1.67,3.13C11.67,88.72,12.06,88.7,12.6,88.12Zm52.94,36.07,0.1,0.18h0ZM103.77,96.7l0,1,0.31,0.23-0.31-.23ZM62.72,144h0Zm17.86-12h0c-0.61-.18-1.23-0.44-1.84-0.58C79.35,131.56,80,131.82,80.58,132Zm0.23-1.36h0l0.09,0.2Zm13.13-.36h0l1.19-.51ZM94,131.74l-0.09.42-0.35,2.23-0.09.71-0.24,3.36-0.71,2.45-9.4-3.47a4,4,0,0,0-.69-0.13l0-2.21,0.14-.59L83,133.4l0-.87a3.28,3.28,0,0,0-.19-0.93,0.56,0.56,0,0,0-.69-0.38,0.56,0.56,0,0,1,.69.38,3.28,3.28,0,0,1,.19.93l0.66-.14,0.25-.1-0.25.1,4.56-.43h0.48c1.28-.15,2.56-0.33,3.84-0.42A7.07,7.07,0,0,1,94,131.74Zm-9.79.39,0.64-.29Zm8.3,8.77h0l0.67-.06Zm-7.64,6.62a52.37,52.37,0,0,1-3-4.84c-0.35-.73-0.06-1.77-0.06-2.7h1.09l0.46,0.11c1.71,0.54,3.42,1.06,5.12,1.63,0.79,0.27,1.55.63,2.33,0.95l0.18,1-0.42.33-2.39,2.6h0l0,0-0.25.19c-0.52.34-1.06,0.65-1.55,1C85.71,148.4,85.22,148.33,84.88,147.53Zm-18.53.11,0.3,0.21-0.3-.21h0Zm8.47-2.42a0.12,0.12,0,0,0,.16-0.09l1-.43,0.7-.31h0l2.66-.44,0.46,0,3.6,5.27h0c0.62,1.11-.31,1.78-0.72,2.61l-0.09.52,0.09-.52-5.52.39h0a44,44,0,0,1-5.34,0,10.71,10.71,0,0,0-4.5.63c-1,.32-2.06.5-3.09,0.74h0a8.49,8.49,0,0,1-1.39-.19,1.11,1.11,0,0,1-.73-0.56,1,1,0,0,1,.34-0.9c1-.66,2.13-1.24,3.2-1.84l0.71,0c0.68,0.16,1.16.17,1.34-.76a2.91,2.91,0,0,1,1.27-.91l1.43-.92,0.28-.16,1.22-.3C73.39,147.32,74,146.16,74.82,145.22ZM74.33,140l-0.19-1.16-0.77-.25h0c-1.06-.86-0.36-1.77-0.08-2.66l0.2-.6v-2.41l0.31-.41,0.48-1.75h0l-0.48,1.75,0.72,0,0.87-.17,1.51,0,3.63-.19c0.48,1.5.14,1.91-1.92,2.28-1.41.34-2.81,0.7-4.23,1a2.74,2.74,0,0,1-.88-0.1l-0.2.6c1.23,1.4,1.52,1.38,3.19.42a18.59,18.59,0,0,1,2.83-1.05c0.28-.1.55-0.24,0.82-0.37l0.58-.07c-0.15,1.9-.28,3.79-0.46,5.68a1,1,0,0,1-.48.71c-0.78.4-1.61,0.73-2.42,1.08a3.69,3.69,0,0,1-1.11-.29,6.22,6.22,0,0,1-1-1L75,140.81h0l-0.24-.28a0.15,0.15,0,0,0-.12-0.16l-0.31-.32ZM51.48,120.72l-0.24.94,0,0.94,0-.94ZM57,104.13h0l0.25,0.71h0Zm-3.1-1.75-0.1.18h0ZM38.71,62.81l-0.25.26h0l-0.25.26-0.67.79c-0.1.17-.22,0.34-0.32,0.51,0.1-.17.22-0.34,0.32-0.51l-2.16-1.26,0.23-1.92h0l2-2.54,0.68-.82,0.24-.22h0L41.26,55h0c1.35-1.07,1.39-1.61.62-3.08a9.22,9.22,0,0,1-.53-2.35l0.51,0-0.24-.34,0.24,0.34L42.54,50h0c0.87,0.77,1.75,1.53,2.6,2.32s1.61,1.58,2.41,2.37l1,1.21h0l2.3,3.32h0l-0.1.47L50,59.78l0.34,0.63L50,59.78l-1.56-.59-0.84-.39a11.74,11.74,0,0,0-1.17-1.18C45,56.53,45,56.57,43.8,57.94c-0.59.68-1.27,1.28-1.92,1.91l-2.52,2.46,0.47,0.07-0.47-.07Zm3.39,17.8-0.51-.49h0l0.51,0.49h0Zm-1.41-.52-0.09.1,0.09-.1h0Zm0.45-1.61-0.49-1.23h0l0.49,1.23v0.41l0.26,1.23h0l-0.26-1.24Q41.16,78.69,41.16,78.48ZM25,68.46a18.89,18.89,0,0,1,3.36-3.3c3.1-2.37,7.31,0,8.5,2.4l0.47,2.51,0,0.46a0.21,0.21,0,0,0-.06.19h0l-0.87.89-0.15.21L36,72a0.12,0.12,0,0,1-.08.1l-1.3,2-0.46.2h0l-0.22.3c-0.84.51-1.67,1.06-2.54,1.5a3,3,0,0,1-1.1.09l0.46-1-0.69-.2-0.48.17-0.5,0-1.91-.49a8.41,8.41,0,0,1-.83-0.47C24.84,73.27,23.27,70.68,25,68.46Z" transform="translate(-6.99 -9.16)"/><path class="g" d="M16.38,106.49l0.77-1.33,1.91-.06,0.76,0.22,0.54,0.25-0.06,0,0.22,0.23a1.84,1.84,0,0,1,.49.65,23.13,23.13,0,0,1-2,3.83,1.47,1.47,0,0,1-2.37-.24,2.76,2.76,0,0,1-.47-3.11Z" transform="translate(-6.99 -9.16)"/><path class="g" d="M18.83,98c-0.68-.36-1.37-0.7-2-1.1a0.75,0.75,0,0,1-.28-0.64,14.77,14.77,0,0,1,1.1-1.38C19.9,94.91,21,97,22.93,97.77c-0.14.38-.24,0.72-0.37,1-0.49,1.14-1,1.31-2,.61A19.59,19.59,0,0,1,18.83,98Z" transform="translate(-6.99 -9.16)"/><path class="g" d="M23,77.3c0.36-.33.77-0.61,1.16-0.92l0.66,0.39a5.33,5.33,0,0,1-.74,1.53,24.4,24.4,0,0,1-2.3,1.87l-0.87-.88C21.61,78.63,22.3,78,23,77.3Z" transform="translate(-6.99 -9.16)"/><path class="g" d="M74.29,87.58l-1.73,1.28-0.17-1.69c0.46-2.25.89-4.51,1.39-6.76a2.88,2.88,0,0,1,1.87-2.16l-1.37,6.58,1.07,0.43Z" transform="translate(-6.99 -9.16)"/><path class="g" d="M93.89,100l1-5.22c0.26-1.26.5-2.53,0.81-3.78a1.72,1.72,0,0,1,.68-0.54,2.2,2.2,0,0,1,.38.88c-0.12,1.46-.32,2.92-0.49,4.38l0,0.5-0.15.36-0.72,2.76L94,102.71a10.51,10.51,0,0,1-1,1.48,35.32,35.32,0,0,1-3.17,3.23c-2.29,1.94-4.62,3.85-7,5.61a12,12,0,0,1-6.3,2c-2.17.16-4.34,0.22-6.51,0.32l-2.9-.36-0.75-.26L65,114a11.49,11.49,0,0,0,.7-1.22c0.35-.87,1-0.78,1.66-0.52s1.22,0.51,1.83.76l0.94,0.1,2.43,0.23c2-.26,4-0.42,5.9-0.8a14.26,14.26,0,0,0,4-1.29,33.61,33.61,0,0,0,4.7-3.22c2.75-2.16,5.45-4.38,6.62-7.88a11,11,0,0,0-.2,1.58,10.92,10.92,0,0,1,.2-1.58A0.09,0.09,0,0,1,93.89,100Z" transform="translate(-6.99 -9.16)"/><path class="g" d="M82,64.62c1-.56,1.25.45,1.62,1,0.58,0.93,1.1,1.89,1.87,3.22l-1.91,2.44-0.71-1.57c-0.43-.93-0.82-1.89-1.31-2.79S81.13,65.09,82,64.62Z" transform="translate(-6.99 -9.16)"/><path class="g" d="M78.47,84.32c0,0.31-.75.63-1.16,0.94a5.05,5.05,0,0,1-.7-1.14,3.47,3.47,0,0,1,1.23-3.91A8.3,8.3,0,0,1,78.47,84.32Z" transform="translate(-6.99 -9.16)"/></svg>