<svg xmlns="http://www.w3.org/2000/svg" viewBox="0 0 192.58 115.58"><title>speechbubble_mirror</title><path d="M20.25,83.37c2-2.28,1.57-5.17,1.74-7.85,0.22-3.4,0-6.83.08-10.25,0.09-2.7.64-5.4,0.62-8.09,0-3.66-.4-7.31-0.61-11S21.73,38.75,21.44,35a13.9,13.9,0,0,0-.91-4.16c-0.77-1.86-1.85-3.6-2.8-5.39-0.71-1.34-.32-2.09,1.18-2.06,2.94,0.07,5.88.15,8.81,0.33,4,0.25,7.94.67,11.92,0.88,5.49,0.29,11,.56,16.48.64C59.54,25.31,63,25,66.38,24.84c2.82-.17,5.64-0.52,8.46-0.67C78,24,81.12,24,84.26,23.84c2.5-.09,5-0.2,7.48-0.28s5.09-.13,7.63-0.2q5.84-.16,11.69-0.33c1.87-.06,3.73-0.16,5.6-0.23,3.86-.13,7.71-0.34,11.57-0.34,2.7,0,5.4.27,8.1,0.41,4.41,0.22,8.83.45,13.24,0.63,3.3,0.14,6.61.28,9.92,0.29,3.13,0,6.28.13,9.17-1.55,1.23-.71,2.46.09,3.59,0.66a0.65,0.65,0,0,1,.28.49c0,1.62.1,3.25,0,4.86s-0.53,3.07-.45,4.59c0.14,2.85.52,5.7,0.83,8.54,0.18,1.65.47,3.29,0.62,4.94,0.21,2.41-.71,4.76.06,7.3,0.67,2.21.37,4.72,0.48,7.1,0.13,2.77.3,5.55,0.35,8.32,0,1.89-.23,3.79.65,5.58a4.83,4.83,0,0,1,.71,2c0,3.44.44,6.9-.45,10.32-0.38,1.46-.49,3-0.73,4.51a5.47,5.47,0,0,0-1.18.59c-1,.8-2,0.56-3,0.29a3.1,3.1,0,0,0-1.15-.17c-2.79.4-5.56,0.78-8.33-.17a7.57,7.57,0,0,0-2-.39c-1.87-.11-3.74-0.16-5.61-0.23l-2.45-.12c1,1.79,1.85,3.31,2.74,4.8,0.63,1.06,1.41,2,2,3.11,1.64,3,3.24,5.92,4.8,8.92a24.36,24.36,0,0,1,1.32,3.31c0.24,0.69,0,1.2-.83.91a19,19,0,0,1-4.38-1.83c-3.07-2.12-6-4.47-8.95-6.74-2.17-1.67-4.3-3.39-6.49-5-3.46-2.6-6.94-5.17-10.43-7.73a2.16,2.16,0,0,0-1.16-.55c-2.5.11-5.1-.05-7.49,0.55A42.94,42.94,0,0,1,110,92.08c-3.63-.12-7.25-0.37-10.88-0.47-3-.08-6,0-9.06-0.06s-6-.22-9.07-0.27c-4.21-.07-8.43,0-12.64-0.11C63.79,91,59.25,90.7,54.72,90.4s-8.81-.67-13.21-1c-1.95-.16-3.88-0.58-5.83-0.59A53.5,53.5,0,0,1,20,86a12.9,12.9,0,0,1-1.72-.89A19.41,19.41,0,0,0,20.25,83.37Zm3-54a15.23,15.23,0,0,1,1.87,6.93c0.07,4.33.53,8.66,1,13,0.56,5.63,0,11.22-.38,16.83-0.15,2.06-.26,4.13-0.29,6.19,0,1,.29,2.06.26,3.09a36.94,36.94,0,0,1-.49,6.36c-0.27,1.28-1.29,2.4-2.11,3.84a50.18,50.18,0,0,0,6.16,1.47c3.88,0.44,7.79.55,11.69,0.89,4.49,0.39,9,1,13.45,1.31,4.68,0.34,9.32,1,14.08.7s9.64,0.18,14.47.28c4.11,0.09,8.22.08,12.33,0.18,3.31,0.08,6.62.36,9.93,0.38,4,0,8-.12,12.06-0.24a18.06,18.06,0,0,0,2.1-.48c2.31-.36,4.63-0.7,7-1,0.87-.11,1.75-0.08,2.62-0.17a4.33,4.33,0,0,1,4.21,1.57,14.78,14.78,0,0,0,2.63,2.2c1.81,1.41,3.68,2.76,5.46,4.21,1.26,1,2.4,2.19,3.63,3.25,0.89,0.77,1.84,1.49,2.77,2.22,1.45,1.15,2.89,2.31,4.36,3.44a16.51,16.51,0,0,0,1.53.92l4.27,2.59c-1.32-3.81-3.54-6.85-5.16-10.19s-4.39-5.88-5.67-9.6c2,0,3.69.07,5.35,0a29.11,29.11,0,0,1,9.31,1.23,2.53,2.53,0,0,0,2.65-.53c0.94-.89,2.1-0.45,3.19-0.22,0.82,0.18,1.62.41,2.44,0.58a0.84,0.84,0,0,0,1.18-.88c0.21-1.58.65-3.12,0.87-4.7,0.25-1.84.4-3.7,0.54-5.56a10.08,10.08,0,0,0,0-2.27,12.72,12.72,0,0,0-.76-3.42c-1-2.26-.64-4.6-0.72-6.93-0.17-4.81-.42-9.61-0.59-14.42-0.09-2.53,0-5.06-.15-7.59-0.05-1.34-.3-2.67-0.45-4-0.07-.59-0.1-1.19-0.16-1.78-0.11-1.08-.23-2.15-0.34-3.23a34.89,34.89,0,0,1-.35-4c0-1.88.26-3.75,0.4-5.63,0.07-.89-0.27-1.15-1.21-1.07a54.05,54.05,0,0,1-6.79.33c-3.59-.13-7.17-0.55-10.75-0.74-2.54-.14-5.09-0.08-7.63-0.18s-5.32-.37-8-0.45c-3.62-.11-7.24-0.22-10.86-0.14-5.73.13-11.46,0.44-17.2,0.65-2.75.1-5.5,0.17-8.24,0.24-3.74.1-7.48,0.13-11.22,0.28-4.61.18-9.23,0.42-13.84,0.69-4.89.28-9.78,0.81-14.67,0.89-3.94.06-7.88-.43-11.82-0.58-2-.07-4,0.2-6,0.1-3.42-.17-6.84-0.54-10.26-0.78-2.89-.21-5.78-0.36-8.68-0.52a6.47,6.47,0,0,0-.87.09C22,26.52,22.52,28,23.23,29.4Z"/></svg>